<svg xmlns="http://www.w3.org/2000/svg" viewBox="0 0 300 300"><style>.st0{fill:#f6a71c}.st1{fill:#fbc410}.st2{fill:#f04f4f}.st3{fill:#f7901e}.st4{fill:#96c93d}.st5{fill:#fff}.st6{fill:#231f20}</style><g id="XMLID_2_"><path id="XMLID_48_" class="st0" d="M143 144h14v22h-14z"/><path id="XMLID_47_" class="st1" d="M173.2 155h-44.3c-3.6 0-3.9 3.5-3.9 8.1V180c0 3.8 4 23.3 4 39s2.6 16 5.5 16h30.3c3 0 6.1-.7 6.1-16 0-21 4-35.2 4-39v-16.9c.1-4.6 1.9-8.1-1.7-8.1z"/><path id="XMLID_46_" class="st0" d="M163 233.5c0 .8-5.8 1.5-13 1.5s-13-.7-13-1.5V198c0-3 5.8-5 13-5s13 2 13 5v35.5z"/><path id="XMLID_45_" class="st2" d="M171 237.5c0 5.8-4.7 10.5-10.5 10.5h-21c-5.8 0-10.5-4.7-10.5-10.5s4.7-10.5 10.5-10.5h21c5.8 0 10.5 4.7 10.5 10.5z"/><path id="XMLID_44_" class="st2" d="M129 215h42v15h-42z"/><path id="XMLID_43_" class="st3" d="M106 224.5c0-1.9 2.1-3.5 4.7-3.5h18.7c2.6 0 4.7 1.6 4.7 3.5s-2.1 3.5-4.7 3.5h-18.7c-2.6 0-4.7-1.6-4.7-3.5z"/><path id="XMLID_42_" class="st1" d="M222.5 234.5c0 5.9-5.4 10.5-12.1 10.5H89.9c-6.7 0-12.1-4.6-12.1-10.5S83.2 224 89.9 224h120.4c6.7 0 12.2 4.6 12.2 10.5z"/><path id="XMLID_41_" class="st1" d="M128.8 156.1c3.3 1.5 5.1 4.5 4.1 6.6L115 201c-1 2.1-4.5 2.6-7.8 1.1s-5.1-4.5-4.1-6.6l17.9-38.3c1-2.2 4.5-2.7 7.8-1.1z"/><path id="XMLID_40_" class="st1" d="M112.9 203.5l-37.2 21c-4.9 2.2-4.9-1.6-2.3-5.9 0 0 1.8-5.1 2.6-8.1l29.7-18c1.7-1.1 5.5.3 7.6 3.2s1.3 6.7-.4 7.8z"/><ellipse id="XMLID_39_" class="st4" cx="150.1" cy="113.1" rx="30.5" ry="27.1"/><g id="XMLID_37_"><path id="XMLID_38_" class="st1" d="M167.4 130.4c-6.9 0-13.7-4.6-16.4-10.4h-1.5c-2.8 5.8-9.8 10.4-16.7 10.4h-.9v1.4c0 11 8.2 20 18.2 20 10.1 0 18.2-8.9 18.2-20v-1.4c-.3-.1-.6 0-.9 0z"/></g><g id="XMLID_34_"><path id="XMLID_36_" class="st5" d="M144 100h5v4h4c1.5 0 3 .5 3 2v4c0 1.5-1.5 3-3 3h-9v-13z"/><path id="XMLID_35_" class="st5" d="M155 115v-2h7v2h-7z"/></g><path id="XMLID_33_" class="st3" d="M194 241.5c0-1.9-2.2-3.5-5-3.5h-20c-2.8 0-5 1.6-5 3.5s2.2 3.5 5 3.5h20c2.8 0 5-1.6 5-3.5z"/><path id="XMLID_32_" class="st3" d="M178 240.5c0 2.5-2.5 4.5-5.5 4.5h-4c-3 0-5.5-2-5.5-4.5s2.5-4.5 5.5-4.5h4c3 0 5.5 2 5.5 4.5z"/><path id="XMLID_31_" class="st1" d="M171.7 156.1c-3.3 1.5-5.1 4.5-4.1 6.6l17.9 38.3c1 2.1 4.5 2.6 7.8 1.1s5.1-4.5 4.1-6.6l-17.9-38.3c-1.1-2.2-4.5-2.7-7.8-1.1z"/><path id="XMLID_30_" class="st1" d="M187.5 203.5l37.2 21c4.9 2.2 4.9-1.6 2.3-5.9 0 0-1.8-5.1-2.6-8.1l-29.7-18c-1.7-1.1-5.5.3-7.6 3.2s-1.3 6.7.4 7.8z"/><path id="XMLID_29_" class="st2" d="M60 267l-5 11h10z"/><path id="XMLID_28_" class="st2" d="M72 267l-5 11h10z"/><path id="XMLID_27_" class="st2" d="M84 267l-5 11h10z"/><path id="XMLID_26_" class="st2" d="M96 267l-5 11h10z"/><path id="XMLID_25_" class="st2" d="M108 267l-5 11h10z"/><path id="XMLID_24_" class="st2" d="M120 267l-5 11h10z"/><path id="XMLID_23_" class="st2" d="M132 267l-5 11h10z"/><path id="XMLID_22_" class="st2" d="M144 267l-5 11h10z"/><path id="XMLID_21_" class="st2" d="M156 267l-5 11h10z"/><path id="XMLID_20_" class="st2" d="M168 267l-5 11h10z"/><path id="XMLID_19_" class="st2" d="M180 267l-5 11h10z"/><path id="XMLID_18_" class="st2" d="M192 267l-5 11h10z"/><path id="XMLID_17_" class="st2" d="M204 267l-5 11h10z"/><path id="XMLID_16_" class="st2" d="M216 267l-5 11h10z"/><path id="XMLID_15_" class="st2" d="M228 267l-5 11h10z"/><path id="XMLID_14_" class="st2" d="M240 267l-5 11h10z"/><path id="XMLID_13_" class="st0" d="M126 181h48s0 7-8.2 7h-32.7c-7.1 0-7.1-7-7.1-7z"/><path id="XMLID_12_" d="M143 135c-1.1 0-2-.9-2-2h-2c0 2.2 1.8 4 4 4s4-1.8 4-4h-2c0 1.1-.9 2-2 2z"/><path id="XMLID_11_" d="M157 135c-1.1 0-2-.9-2-2h-2c0 2.2 1.8 4 4 4s4-1.8 4-4h-2c0 1.1-.9 2-2 2z"/><path id="XMLID_10_" class="st6" d="M153 144c0 .6-.4 1-1 1h-4c-.6 0-1-.4-1-1s.4-1 1-1h4c.6 0 1 .4 1 1z"/><path id="XMLID_9_" class="st1" d="M69 204v7c2.2 0 4 1.8 4 4s-1.8 4-4 4-4-1.8-4-4h-7c0 6.1 4.9 11 11 11s11-4.9 11-11-4.9-11-11-11z"/><circle id="XMLID_8_" class="st1" cx="69.5" cy="207.5" r="3.5"/><circle id="XMLID_7_" class="st1" cx="61.5" cy="215.5" r="3.5"/><path id="XMLID_6_" class="st1" d="M232 204v7c-2.2 0-4 1.8-4 4s1.8 4 4 4 4-1.8 4-4h7c0 6.1-4.9 11-11 11s-11-4.9-11-11 4.9-11 11-11z"/><circle id="XMLID_5_" class="st1" cx="231.5" cy="207.5" r="3.5"/><circle id="XMLID_4_" class="st1" cx="239.5" cy="215.5" r="3.5"/><path id="XMLID_3_" class="st4" d="M50 277h200v12H50z"/></g></svg>