<svg xmlns="http://www.w3.org/2000/svg" viewBox="0 0 107 43"><path d="M27.417 16.235c-1.506 0-3.853.575-5.422 1.28-.307.138-.5.258-.5.502 0 .14.07.307.15.45l1.057 2.264c.11.256.283.313.427.313.154 0 .282-.074.423-.164 1.53-.978 2.65-1.517 3.538-1.517 1.174 0 1.97.777 2.463 1.95.458 1.09.635 2.6.635 4.34v.512c-.965-.604-2.634-.936-3.468-.936-4.486 0-6.906 4.262-6.906 8.818 0 4.91 2.827 8.517 6.225 8.517 1.892 0 3.605-1.11 4.752-2.512 0 0 .61 1.457.69 1.63.08.174.164.24.395.24l1.814.002c.2 0 .352-.15.352-.402V27.405c0-3.467-.175-6.114-1.09-7.918-1.145-2.263-3.19-3.252-5.535-3.252zM30.19 37.98c-.89.86-1.956 1.31-2.913 1.31-.958 0-1.7-.442-2.293-1.262-.724-1-1.06-2.535-1.06-4.238 0-2.692.994-5.455 3.102-5.455 1.042 0 2.187.342 3.166 1.12v8.526zm16.825-21.427c-2.434 0-4.97 1.775-4.97 1.775v-1.142c0-.25-.1-.35-.35-.35H38.59c-.25 0-.4.15-.4.35v24.336c0 .25.1.404.35.404h3.156c.198 0 .35-.152.35-.404v-20.83s1.463-.93 3.243-.93c1.69 0 3.027.84 3.027 2.565V41.52c0 .25.15.405.402.405h3.103c.25 0 .35-.202.35-.404V21.237c0-3.054-1.88-4.683-5.158-4.683zm23.82-12.207H67.73c-.25 0-.4.15-.4.35v12.278c-1.192-.458-2.278-.7-3.154-.7-5.043 0-8.504 4.822-8.504 14.09 0 7.94 3.367 12.2 7.762 12.2 1.852 0 3.38-1.06 4.5-2.057l.678 1.15c.114.195.21.266.438.266l1.786.002c.2 0 .354-.152.354-.402V4.695c-.004-.25-.105-.35-.356-.35zM67.33 38.488c-.766.415-1.73.8-2.768.8-3.32 0-4.785-3.937-4.785-9.746 0-5.106 1.494-10.164 4.548-10.164 1.032 0 2.025.34 3.005 1.116v17.994zm38.912-21.655h-2.766c-.31 0-.468.16-.548.37-.176.46-1.345 3.54-1.824 4.818-.344.912-1.264 3.522-1.264 3.522h-.105c-.006-.01-.678-1.9-1.042-2.845-.297-.768-1.84-4.828-2.032-5.328-.103-.27-.22-.537-.615-.537H93.01c-.33 0-.518.364-.41.592.106.227 4.934 11.223 4.934 11.223S92.35 40.96 92.2 41.235c-.153.276.037.688.41.688h2.652c.452 0 .632-.24.768-.62.38-1.068.948-2.556 1.755-4.854.53-1.52 1.373-4.194 1.373-4.194h.093s.925 2.725 1.27 3.613c.865 2.25 1.978 5.193 2.094 5.503.12.325.295.55.604.55h3.013c.3 0 .436-.342.296-.636-.336-.706-3.194-7.654-5.18-12.223 0 0 5.153-11.37 5.253-11.652.098-.282.068-.58-.358-.58zm-23.294-.508c-5.17 0-7.723 6.764-7.723 14.124 0 7.705 3.64 12.022 8.318 12.022 2.06 0 4.105-.81 5.45-1.555.203-.117.24-.277.192-.476l-.394-1.627c-.047-.198-.145-.3-.397-.3-.108 0-1.805.497-3.456.497-3.828 0-5.586-3.404-5.586-7.926v-1.1s1.904.264 3.048.264h7.227V28.16c0-7.707-2.7-11.835-6.677-11.835zm-.248 10.79v.002c-1.145 0-3.226.283-3.226.283s.026-.83.128-1.626c.446-4.228 1.457-6.366 3.196-6.366 1.515 0 2.552 2.187 2.8 6.017.05.797.05 1.69.05 1.69H82.7z"/><path fill="red" d="M22.48.056h-3.543c-.313 0-.51.153-.554.377-.045.225-5.313 16.286-5.696 17.625-.27.948-1.158 4.29-1.37 5.095L9.485 18.15C9.04 16.773 4.772 4.854 4.648 4.376c-.07-.26-.19-.586-.648-.586H.542c-.34 0-.53.37-.42.6.087.186 6.334 16.807 8.858 23.156v13.96c0 .255.102.41.357.41h3.276c.202 0 .356-.153.356-.41v-13.85C15.073 21.78 22.76.876 22.84.64c.1-.284.07-.584-.362-.584z"/></svg>