<svg xmlns="http://www.w3.org/2000/svg" viewBox="0 0 300 300"><style>.st0{fill:#f6a71c}.st1{fill:#f04f4f}.st2{fill:#96c93d}.st3{fill:#329fd9}.st4{fill:#1880af}.st5{fill:#dcdbd8}.st6{fill:#c97f4c}.st7{fill:#fac8b6}.st8{fill:#815b24}.st9{fill:#c03e3e}.st10{fill:#a6c3c5}.st11{fill:#5a4a42}.st12{fill:#fbc410}.st13{fill:#f7901e}</style><g id="XMLID_2_"><path id="XMLID_87_" class="st0" d="M96 199v34c6.1-17.1 30-29.8 56.5-29.8h.5V199H96z"/><path id="XMLID_86_" class="st1" d="M96 195h57v4H96z"/><path id="XMLID_85_" class="st0" d="M204 176v34c-6.1-17.1-30-29.8-56.5-29.8h-.5V176h57z"/><path id="XMLID_84_" class="st1" d="M147 172h57v4h-57z"/><path id="XMLID_83_" class="st2" d="M50 277h200v12H50z"/><path id="XMLID_82_" class="st3" d="M195.7 247.2c-4.9 0-8.9-4.2-9.2-8.2-.3 4-4.2 8.4-9.2 8.4-4.9 0-8.9-4.4-9.2-8.4-.3 4-4.2 8.4-9.2 8.4-4.9 0-8.9-4.4-9.2-8.4-.3 4-4.2 8.4-9.2 8.4s-8.9-4.4-9.2-8.4c-.3 4-4.2 8.4-9.2 8.4-4.9 0-8.9-4.4-9.2-8.4-.3 4-4 8.2-8.9 8.2-1.6 0-3.1-.6-4.1-1.3V277h100v-31.1c-1.2.7-2.7 1.3-4.2 1.3z"/><g id="XMLID_74_"><path id="XMLID_80_" class="st4" d="M158.9 256v.5c0-.2.1-.3 0-.5z"/><path id="XMLID_79_" class="st4" d="M103.8 256v.5c.1-.2.1-.3 0-.5z"/><path id="XMLID_77_" class="st4" d="M195.4 256.5c0 4.9-4 8.9-9.1 8.9s-9.1-4-9.1-8.9c0 4.9-4.1 8.9-9.1 8.9s-9.2-4-9.2-8.9c0 4.9-4.1 8.9-9.2 8.9s-9.2-4-9.2-8.9c0 4.9-4.1 8.9-9.2 8.9s-9.2-4-9.2-8.9c0 4.9-4.1 8.9-9.2 8.9s-9.2-4-9.2-8.9c0 3-1.5 5.6-3.9 7.3V277h100v-12.7c-1.9-1.5-4.4-4.4-4.4-7.8z"/><path id="XMLID_76_" class="st4" d="M195.6 256v.5c.1-.2.1-.3 0-.5z"/></g><path id="XMLID_73_" class="st5" d="M162 91h-25c-2.5 0-4 2.1-4 4.1v20.7c0 2 1.5 3.2 4 3.2h11l5 6v-6h9c2.5 0 4-1.3 4-3.2V95.1c0-2-1.5-4.1-4-4.1z"/><g id="XMLID_69_"><path id="XMLID_70_" class="st1" d="M148.3 108.3v-.3c0-.4 0-1 .4-1.7.3-.5.7-.9 1.1-1.4l.7-.7c.4-.5.8-1 .8-1.9 0-.7-.3-1.1-.5-1.3-.4-.3-.8-.4-1.1-.4-.6 0-1.1.2-1.5.6-.3.3-.6.8-.8 1.3l-2.7-1c.4-1 1-2 2-2.6 1.1-.7 2.3-.8 3.1-.8 1.2 0 2.7.2 3.8 1.3.5.5 1.1 1.4 1.1 2.8 0 .6-.1 1.8-1.3 2.9l-.9.8c-.7.7-.9 1-1 1.1-.1.3-.3.8-.3 1.2v.3h-2.9zm1.5 1.6c.9 0 1.7.8 1.7 1.7s-.8 1.7-1.7 1.7-1.7-.8-1.7-1.7.8-1.7 1.7-1.7z"/></g><g id="XMLID_55_"><path id="XMLID_68_" class="st6" d="M163.5 145c-3 0-5.5-2.9-5.5-6.2v-7c0-3.3 2.5-5.8 5.5-5.8s5.5 2.5 5.5 5.8v7c0 3.3-2.4 6.2-5.5 6.2z"/><path id="XMLID_67_" class="st7" d="M162 141c-2.2 0-4-1.8-4-4v-2c0-2.2 1.8-4 4-4s4 1.8 4 4v2c0 2.2-1.8 4-4 4z"/><ellipse id="XMLID_66_" class="st7" cx="161.2" cy="132.3" rx="2.2" ry="2.5"/><path id="XMLID_65_" class="st8" d="M161.3 134.8c.6 0 1.1-.8 1.1-1.8h-2.2c-.1 1 .4 1.8 1.1 1.8z"/><path id="XMLID_64_" class="st1" d="M176 172h-16v-27.5c0-2 1.6-3.5 3.5-3.5h8.8c2 0 3.7 1.7 3.7 3.7V172z"/><path id="XMLID_63_" class="st9" d="M160 141h8v31h-8z"/><path id="XMLID_62_" class="st6" d="M158.1 139.8c0 1.7 1.5 4 3.4 4s3.4-2.3 3.4-4-1.5-3-3.4-3-3.4 1.3-3.4 3z"/><path id="XMLID_61_" class="st7" d="M158.2 138.3c0 .3.8 1.5 1.8 1.5s1.8-1.2 1.8-1.5-.8-.5-1.8-.5-1.8.2-1.8.5z"/><path id="XMLID_60_" class="st3" d="M173.3 140h-1.5c-.5 0-.8 1-.8 1.8v7c0 1.6 1.3 3 3 3s3-1.4 3-3v-5.3c0-2.1-1.7-3.5-3.7-3.5z"/><path id="XMLID_59_" class="st10" d="M162 151h3v20h-3z"/><path id="XMLID_58_" class="st7" d="M166 154.5c0-.8-.7-1.5-1.5-1.5h-2c-.8 0-1.5.7-1.5 1.5v1c0 .8.7 1.5 1.5 1.5h2c.8 0 1.5-.7 1.5-1.5v-1z"/><path id="XMLID_57_" class="st1" d="M165 153h7v4h-7z"/><path id="XMLID_56_" class="st10" d="M158 162h11v1h-11z"/></g><g id="XMLID_41_"><path id="XMLID_54_" class="st1" d="M123 195h16v-27.5c0-2-1.6-3.5-3.5-3.5h-8.8c-2 0-3.7 1.7-3.7 3.7V195z"/><path id="XMLID_53_" class="st9" d="M131 164h8v31h-8z"/><path id="XMLID_52_" class="st3" d="M125.7 163h1.5c.5 0 .8 1 .8 1.8v7c0 1.6-1.3 3-3 3s-3-1.4-3-3v-5.3c0-2.1 1.7-3.5 3.7-3.5z"/><path id="XMLID_51_" class="st11" d="M141.2 168.3c2.2-2.2 1.8-6-.5-8.3l-4.9-4.9c-2.3-2.3-5.9-2.3-8-.2-2.1 2.1-2.1 5.6.2 7.9l4.9 4.9c2.3 2.3 6.1 2.7 8.3.6z"/><path id="XMLID_50_" class="st7" d="M138 157.3c-1.6-1.6-4.1-1.6-5.7 0-1.6 1.6-1.6 4.1 0 5.7l1.4 1.4c1.6 1.6 4.1 1.6 5.7 0 1.6-1.6 1.6-4.1 0-5.7l-1.4-1.4z"/><ellipse id="XMLID_49_" transform="rotate(-45 133.8 157.62)" class="st7" cx="133.8" cy="157.6" rx="2.2" ry="2.5"/><path id="XMLID_48_" class="st11" d="M135.6 159.4c-.4.4-1.3.3-2-.4l1.6-1.6c.6.7.8 1.5.4 2z"/><path id="XMLID_47_" class="st10" d="M134 174h3v20h-3z"/><path id="XMLID_46_" class="st7" d="M134.5 176h2c.8 0 1.5.7 1.5 1.5v1c0 .8-.7 1.5-1.5 1.5h-2c-.8 0-1.5-.7-1.5-1.5v-1c0-.8.7-1.5 1.5-1.5z"/><path id="XMLID_45_" class="st11" d="M141.3 160.7c1.2 1.2 1.8 3.9.4 5.2-1.3 1.3-4 .7-5.2-.4s-1.1-3.2.3-4.5 3.3-1.5 4.5-.3z"/><path id="XMLID_44_" class="st7" d="M140.2 159.7c.2.2.5 1.6-.2 2.3-.7.7-2.1.4-2.3.2s.2-.9.9-1.6c.7-.7 1.4-1.1 1.6-.9z"/><path id="XMLID_43_" class="st1" d="M127 176h7v4h-7z"/><path id="XMLID_42_" class="st10" d="M130 185h11v1h-11z"/></g><g id="XMLID_22_"><path id="XMLID_40_" class="st0" d="M50 138h50v17H50z"/><path id="XMLID_39_" class="st0" d="M50 131h12v15H50z"/><path id="XMLID_38_" class="st0" d="M69 131h12v15H69z"/><path id="XMLID_37_" class="st0" d="M88 131h12v15H88z"/><path id="XMLID_36_" class="st0" d="M50 237h50v40H50z"/><g id="XMLID_26_"><path id="XMLID_35_" class="st12" d="M50 241h18v8H50z"/><path id="XMLID_34_" class="st12" d="M72 241h17v8H72z"/><path id="XMLID_33_" class="st12" d="M61 253h17v8H61z"/><path id="XMLID_32_" class="st12" d="M82 253h18v8H82z"/><path id="XMLID_31_" class="st12" d="M93 241h7v8h-7z"/><path id="XMLID_30_" class="st12" d="M50 265h18v8H50z"/><path id="XMLID_29_" class="st12" d="M72 265h17v8H72z"/><path id="XMLID_28_" class="st12" d="M93 265h7v8h-7z"/><path id="XMLID_27_" class="st12" d="M50 253h7v8h-7z"/></g><path id="XMLID_25_" class="st12" d="M54 159h42v78H54z"/><path id="XMLID_24_" class="st13" d="M50 155l4 6h42l4-6z"/><path id="XMLID_23_" class="st1" d="M83 199v-13.2c0-4.9-3.6-8.8-8-8.8s-8 3.9-8 8.8V199h16z"/></g><g id="XMLID_3_"><path id="XMLID_21_" class="st0" d="M200 138h50v17h-50z"/><path id="XMLID_20_" class="st0" d="M200 131h12v15h-12z"/><path id="XMLID_19_" class="st0" d="M219 131h12v15h-12z"/><path id="XMLID_18_" class="st0" d="M238 131h12v15h-12z"/><path id="XMLID_17_" class="st0" d="M200 237h50v40h-50z"/><g id="XMLID_7_"><path id="XMLID_16_" class="st12" d="M200 241h18v8h-18z"/><path id="XMLID_15_" class="st12" d="M222 241h17v8h-17z"/><path id="XMLID_14_" class="st12" d="M211 253h17v8h-17z"/><path id="XMLID_13_" class="st12" d="M232 253h18v8h-18z"/><path id="XMLID_12_" class="st12" d="M243 241h7v8h-7z"/><path id="XMLID_11_" class="st12" d="M200 265h18v8h-18z"/><path id="XMLID_10_" class="st12" d="M222 265h17v8h-17z"/><path id="XMLID_9_" class="st12" d="M243 265h7v8h-7z"/><path id="XMLID_8_" class="st12" d="M200 253h7v8h-7z"/></g><path id="XMLID_6_" class="st12" d="M204 159h42v78h-42z"/><path id="XMLID_5_" class="st13" d="M200 155l4 6h42l4-6z"/><path id="XMLID_4_" class="st1" d="M233 199v-13.2c0-4.9-3.6-8.8-8-8.8s-8 3.9-8 8.8V199h16z"/></g></g></svg>