<svg xmlns="http://www.w3.org/2000/svg" viewBox="96 115 307 224"><path fill="#c67e49" d="M96.2 320.9H403v18H96.2z"/><path fill="#a5a7aa" d="M294 312h-47c-2.9-2-4-4.2-6-8.1V281h-49v22.9c-2 4.1-3.4 6.1-6 8.1h-46v4.2h154V312z"/><path fill="#919395" d="M149 312h9v3.5h-9zm18 0h9v3.5h-9zm18 0h9v3.5h-9zm18 0h9v3.5h-9zm19 0h9v3.5h-9zm18 0h9v3.5h-9zm18 0h9v3.5h-9zm18 0h9v3.5h-9z"/><path fill="#d0d2d3" d="M96.4 246.8v29c0 2.8 2.4 5.2 5.2 5.2h230.2c2.8 0 5-2 5-5v-29.2H96.4z"/><path d="M328.5 115.4H104.7c-4.6 0-8.3 3.7-8.3 8.3v133.1h240.4v-133c0-4.6-3.7-8.4-8.3-8.4z"/><path fill="#de4544" d="M399.2 280H391v-7h-42v40.4c0 3.9 3.3 7.6 7.2 7.6h29c3.3 0 5.9-3.3 5.9-6.6V312h8.2c2.3 0 3.8-2.4 3.8-4.7v-23.4c-.1-2.3-1.7-3.9-3.9-3.9zm-2.2 26h-6v-20h6v20z"/><path fill="#d0d2d3" d="M264.6 315H135v6h163v-6z"/><path fill="#afc93a" d="M105.2 124.4h222.6v123.3H105.2z"/><path fill="#fff" d="M238.4 221.2v-9h27.1v9h-27.1z"/><path fill="#d0d2d3" d="M375.9 267.3c-.8 0-1.6-.4-2.1-1.1-1.7-2.4-2.6-5.1-2.4-8.4-.1-2.1 1.2-4.2 2.6-6.5 1.1-1.7 2.1-3.5 2.4-5 .3-1.6.2-2.3-2.3-4.7-1-1-1-2.5-.1-3.5s2.5-1 3.5-.1c2.5 2.4 4.6 4.9 3.7 9.3-.5 2.4-1.9 4.6-3.1 6.6-.8 1.2-1.9 3.1-1.9 3.8-.2 2.6.5 4.1 1.6 5.7.8 1.1.5 2.7-.7 3.5-.2.3-.7.4-1.2.4z"/><path fill="#fff" d="M223.8 175h-14.3v-16h-20v53h34.3c8.2 0 14.7-7.1 14.7-15.3v-7.1c-.1-8.3-6.5-14.6-14.7-14.6z"/><circle fill="#fff" cx="216.5" cy="269" r="6"/><path d="M586.9 256.7h.1v.1h-.1z"/><path fill="#d0d2d3" d="M362.2 267.3c-.8 0-1.6-.4-2.1-1.1-2-3-2.5-6.4-1.3-9.4l.2-.4c.6-1 .9-1.6 1.2-2.1.8-1.3.8-1.4 2-3.7.5-1-.2-2.5-1.8-4.1-1-1-1-2.5-.1-3.5 1-1 2.5-1 3.5-.1 3.3 3.2 4.4 6.9 2.8 10-1.3 2.5-1.4 2.6-2.2 3.9-.3.4-.6 1-1.1 1.8-.5 1.4-.2 3.1.9 4.6.8 1.1.5 2.7-.7 3.5-.3.5-.8.6-1.3.6z"/></svg>