<svg xmlns="http://www.w3.org/2000/svg" xmlns:x="http://www.w3.org/1999/xlink"><path d="M162 218l40 24v48l-40-24zm80 0l-40 24v48l40-24zm-23-13.8l23 13.8-40 24-40-24 23-13.8m34 .8a17 11 0 1 1 0-.01v13a17 11 0 1 1-34 0V205" id="a" stroke="#FFF" stroke-width="2" fill="#17A1E6"/><use x:href="#a" x="-40" y="24"/><use x:href="#a" x="-80"/><use x:href="#a" x="-80" y="-48"/><use x:href="#a" x="-80" y="-96"/><use x:href="#a" x="-120" y="24"/><use x:href="#a" x="-120" y="-72"/><use x:href="#a" x="-160" y="48"/><use x:href="#a" x="-160"/><use x:href="#a" x="-160" y="-48"/><use x:href="#a" x="-160" y="-96"/><use x:href="#a" x="-160" y="-144"/><use x:href="#a" x="-160" y="-192"/><use x:href="#a" x="-160" y="-192"/></svg>
