<svg xmlns="http://www.w3.org/2000/svg" xmlns:x="http://www.w3.org/1999/xlink"><path d="M162 26l40 24v48l-40-24zm80 0l-40 24v48l40-24zm-23-13.8L242 26l-40 24-40-24 23-13.8m34 .8a17 11 0 1 1 0-.01v13a17 11 0 1 1-34 0V13" id="a" stroke="#fff" stroke-width="2" fill="#17a1e6"/><use x:href="#a" x="-40" y="24"/><use x:href="#a" x="-80" y="48"/><use x:href="#a" x="-120" y="72"/><use x:href="#a" x="-40" y="72"/><use x:href="#a" y="96"/><use x:href="#a" x="-160" y="96"/><use x:href="#a" x="-120" y="120"/><use x:href="#a" x="-40" y="120"/><use x:href="#a" x="-80" y="144"/><use x:href="#a" x="-80" y="192"/><use x:href="#a" x="-40" y="216"/></svg>