<svg viewBox="0 0 82 37" xmlns="http://www.w3.org/2000/svg"><path d="M27.856 12.98h-2.348c-.19 0-.303.15-.303.265v7.23H20.85v-7.23c0-.19-.074-.266-.264-.266h-2.348c-.19 0-.303.113-.303.265v18.4c0 .19.076.304.265.304h2.386c.15 0 .265-.114.265-.304V22.86h4.355v8.784c0 .19.113.303.303.303h2.348c.19 0 .265-.152.265-.304v-18.4a.26.26 0 0 0-.264-.267zm53.298 16.47c-.038-.113-.076-.15-.19-.15-.188 0-1.21.416-2.687.416C75.4 29.716 74 26.95 74 22.56c0-3.862 1.173-7.687 3.142-7.687.53 0 1.174.15 2.196 1.098.113.115.19.152.303.152.115 0 .23-.075.342-.265l1.022-1.666a.61.61 0 0 0 .113-.34c0-.15-.15-.265-.38-.38-1.55-.794-2.61-.945-3.52-.945-3.56 0-6.322 4.24-6.322 10.867 0 5.717 2.65 9.012 6.437 9.012 1.59 0 3.294-.758 3.976-1.25a.375.375 0 0 0 .15-.416l-.304-1.287zM65 21.538l4.543-8.292c.076-.114.038-.266-.113-.266h-2.234c-.644 0-.87.227-1.098.72l-3.407 7.08c-.188.416-.378.68-.567.795v-8.33c0-.15-.075-.266-.228-.266h-2.46c-.114 0-.23.113-.23.265v18.44c0 .112.077.264.23.264h2.46c.152 0 .228-.114.228-.266V22.18c.113.076.19.19.265.34l4.316 8.86c.228.455.568.568 1.06.568h2.424c.152 0 .19-.15.114-.265L65 21.537zm-21.696 8.027h-.454c-.568 0-.72-.228-.72-.682V13.245c0-.19-.075-.266-.228-.266H34.33c-.19 0-.303.113-.303.265v1.362c0 4.582-.265 10.49-2.688 14.957h-.834c-.228 0-.303.113-.303.303v5.528c0 .19.15.265.265.265h1.817c.417 0 .568-.303.568-.567V31.95h8.103v3.445c0 .15.113.265.266.265h1.93c.228 0 .455-.19.455-.567v-5.226c0-.19-.114-.303-.303-.303zm-4.09 0h-5.49c1.932-3.294 2.69-7.005 2.954-11.55.075-.983.113-2.006.113-2.65h2.425v14.2zm11.815-17.04c-4.09 0-5.908 5.15-5.908 10.755 0 5.716 2.575 9.124 6.36 9.124 1.856 0 3.484-.72 4.317-1.25.15-.075.188-.19.15-.34l-.303-1.288c-.038-.15-.113-.228-.303-.228-.15 0-1.25.417-2.803.417-2.914 0-4.277-2.537-4.277-5.87v-.895s1.477.177 2.348.177h5.53v-1.59c0-5.87-2.083-9.012-5.11-9.012zm-.418 8.218c-.87 0-2.234.15-2.234.15s0-.567.076-1.173c.34-3.22 1.136-4.848 2.46-4.848 1.213 0 1.97 1.666 2.16 4.582.037.605.037 1.287.037 1.287h-2.498v.002z"/><path d="M13.623 3.566H9.307c-4.24 0-7.838 3.22-7.838 9.466 0 3.75 1.74 6.513 4.846 7.876L.523 31.358c-.19.34 0 .606.303.606h2.688c.227 0 .378-.076.454-.266l5.263-10.26h1.894v10.26c0 .113.114.266.265.266h2.347c.227 0 .303-.114.303-.304V3.945c0-.264-.152-.38-.417-.38zm-2.5 15.45h-1.59c-2.498 0-4.92-1.818-4.92-6.36 0-4.734 2.27-6.665 4.58-6.665h1.932v13.025z" fill="red"/></svg>