<svg xmlns="http://www.w3.org/2000/svg" xmlns:x="http://www.w3.org/1999/xlink" viewBox="8 0 215 200"><clipPath id="a"><circle id="b" fill="#fdcf09" cx="121" cy="100" r="100"/></clipPath><g clip-path="url(#a)"><use x:href="#b"/><pattern id="e" patternUnits="userSpaceOnUse" x=".6" y="-6.6" width="40" height="23.85"><g id="d"><path id="c" fill="#e1b724" d="M2 6.1v5.8c0 2.7 3.8 4.8 8.5 4.8 4.1 0 8.5-1.6 8.5-3.8V7H2z"/><use x:href="#c" x="20" y="-12.2"/><ellipse fill="#f7c21b" cx="10.55" cy="7" rx="8.5" ry="4.8"/></g><use x:href="#d" x="20" y="11.6"/></pattern><path fill="url(#e)" d="M0 0h220v200H0z"/><circle fill="#9e9f9f" cx="113.4" cy="36.8" r="21.8"/><path fill="#c6c6c6" d="M119.3 59.4l-2.1-3.4c8-4.8 13.7-15.3 7.2-26.7-6.5-11.5-18.3-12.1-26.6-7.6 1.7-1.9 4.4-3.7 7.2-4.9 6.3-2.7 13.8.3 17.2 3.2 3 2.6 4.3 4.8 5.8 7.4 5.3 9.6 5 23.8-8.7 32z"/><path fill="#7f7f7f" d="M133.4 28.1c-1.5 5.3-5 10.1-10.2 13-10.5 6-23.8 2.4-29.8-8.1-.3-.5-1-1.8-1.1-1.9-1.5 5.4-.9 11.4 2.1 16.6 6 10.5 19.3 14.1 29.8 8.1 9.8-5.7 13.6-17.6 9.2-27.7z"/><path fill="#b2b2b2" d="M119.3 59.4l-2.1-3.4c5.9-3.5 10.5-10.1 10-17.8l3.4-3.9c1.9 8.6-.6 18.7-11.3 25.1z"/><path fill="#de4443" d="M104.4 58.2L52.8 88.9c-6.2 3.7-14.2 1.7-17.9-4.5-3.7-6.2-1.7-14.2 4.5-17.9L91 35.8c6.2-3.7 14.2-1.7 17.9 4.5 3.7 6.2 1.7 14.2-4.5 17.9z"/><path fill="#c63c3c" d="M110.4 44l-55 32.7c-2.6 1.5-9.6 6.7-12.7 4.8-6.2 3.7-11.5-3.2-7.8 3 3.1 5.2 9.3 7.5 14.9 5.8-.3.2.7-.2.7-.2l.3-.2c.7-.3 1.4-.6 2-1l51.6-30.7c5-3 7.3-8.8 6-14.2zm58.5 67.2l-19 11.3V98.1l19-11.3zm-.5-45.5L149.3 77V52.6l19.1-11.3zm-37.8 21.1l-19 11.4V75.4z"/><use x:href="#c" x="-40" y="-23"/><path fill="#8ab23d" d="M73.1 98v24.2l19.1 11.5 19.5 11.4.2-24.3z"/><path fill="#8ab23d" d="M131.7 179.1l-38.8-22.7v-24.2l38.8 22.7z"/><path fill="#80a530" d="M149.9 122.5l-38.1 22.6v-24.4l38.1-22.6zm.8 45.4l-31 18.8v-24.4l31-18.8z"/><path fill="#ed7e1b" d="M149.3 77.1l-19 11.3V64.1l19-11.4zm-76.2 45.1l-19.3-11.4V86.7L73.1 98z"/><path fill="#f78f22" d="M92.2 86.8l-19 11.3-19.4-11.4 19-11.3zm57.3-34.1l-19.2 11.4-19.4-11.4 19.2-11.4z"/><path fill="#db9126" d="M111.6 98.2L92.2 86.8l19.4-11.6z"/><path fill="#f3a61f" d="M130.3 64.1l-19.4-11.4-38.1 22.7 19.4 11.4z"/><path fill="#de4443" d="M168.4 41.3l-18.9 11.4-19.4-11.4L149.2 30zm-38.2 22.8l-18.8 11.3 38.5 23 19-11.6z"/><path fill="#93c73f" d="M149.9 98.4l-19.3-11.6-19 11.4-19.4-11.5-19 11.4 38.7 22.7zm-38 22.4l-19 11.4 28.9 17-2.1 13.1 12-7.4 19-11.3z"/><g id="f"><path fill="#db9126" d="M96.2 71c-1.4-.6-3.1-1-5-1-2.2 0-4.3.5-5.8 1.4L82.7 70v5c0 2.8 3.8 5 8.5 5 4.1 0 7.7-1.7 8.5-4v-6l-3.5 1z"/><ellipse fill="#ef9f20" cx="91.2" cy="70" rx="8.5" ry="5"/></g><g id="g"><path fill="#ed7e1b" d="M136.2 47c-1.4-.6-3.1-1-5-1-2.2 0-4.3.5-5.8 1.4l-2.7-1.4v5c0 2.8 3.8 5 8.5 5 4.1 0 7.7-1.7 8.5-4v-6l-3.5 1z"/><ellipse fill="#f48b2c" cx="131.2" cy="46" rx="8.5" ry="5"/></g><g id="h"><path fill="#c63c3c" d="M156.2 36c-1.4-.6-3.1-1-5-1-2.2 0-4.3.5-5.8 1.4l-2.7-1.4v5c0 2.8 3.8 5 8.5 5 4.1 0 7.7-1.7 8.5-4v-6l-3.5 1z"/><ellipse fill="#d84444" cx="151.2" cy="35" rx="8.5" ry="5"/></g><g id="i"><path fill="#80a530" d="M96.2 93c-1.4-.6-3.1-1-5-1-2.2 0-4.3.5-5.8 1.4L82.7 92v5c0 2.8 3.8 5 8.5 5 4.1 0 7.7-1.7 8.5-4v-6l-3.5 1z"/><ellipse fill="#94bf40" cx="91.2" cy="92" rx="8.5" ry="5"/></g><use x:href="#f" x="20" y="-12"/><use x:href="#g" x="-58" y="35"/><use x:href="#h" y="47"/><use x:href="#h" x="-20" y="35"/><use x:href="#i" x="40"/><use x:href="#i" x="20" y="12"/><use x:href="#i" x="20" y="34"/><use x:href="#i" x="40" y="46"/><path fill="#9e9f9f" d="M28.5 88.5c-1.7-2.9-.7-6.5 2.1-8.2l3.4-2c2.9-1.7 6.5-.7 8.2 2.1 1.7 2.9.7 6.5-2.1 8.2l-3.4 2c-2.9 1.7-6.6.8-8.2-2.1z"/><ellipse transform="rotate(154 83 114.8)" fill="#6b7f2a" cx="83" cy="114.8" rx="4" ry="6.8"/><path fill="#a5a5a5" d="M85.4 113.7c-.9-1.7-2.1-3-3.4-3.4-.1 0-.2-.1-.3-.1-.1 0-.2 0-.3-.1h-.3c-.2 0-.3 0-.5.1-.1 0-.3.1-.4.1s-.1.1-.2.1l-10 6 4.2 9.7 10.6-6.3c1.7-.7 1.9-3.5.6-6.1z"/><path fill="#7f7f7f" d="M40.4 83.7l-3.4 2c-2.9 1.7-6.5.7-8.2-2.1-.2-.3-.3-.6-.4-.9-.9 1.8-.9 3.9.2 5.8 1.7 2.9 5.4 3.8 8.2 2.1l3.4-2c2.6-1.5 3.6-4.6 2.5-7.3-.5 1-1.3 1.8-2.3 2.4zM86 115.3l-10.6 6.3c-.1-.6-.3-1.1-.6-1.7-1.3-2.6-3.6-4.2-5.2-3.4-1.6.8-1.8 3.5-.5 6.2 1.3 2.6 3.6 4.2 5.2 3.4.1-.1.2-.1.3-.2l10.4-6.2c1.3-.7 1.5-2.7 1-4.4z"/></g><path fill="#707070" d="M40.7 131.1h-1.9c-12.1-.4-21.9-4.9-26.2-12-4.9-8.2-3.1-21.2 16.6-33.2.9-.6 2.2-.3 2.7.7s.3 2.2-.7 2.7C16.8 98.1 11 108.7 16 117c6 9.9 27.3 15.3 54.1 3.2l.6-.3c1.3-.5 2.6 3 1.5 3.7-.1.1-.2.1-.3.1-12.9 5.9-23.6 7.4-31.2 7.4z"/></svg>