<svg xmlns="http://www.w3.org/2000/svg" viewBox="0 0 200 200"><path fill="#f68e20" d="M116 149H14c-7.8 0-14-6.3-14-14V14C0 6.3 6.3 0 14 0h102c7.8 0 14 6.3 14 14v121c0 7.7-6.3 14-14 14z"/><path fill="#de4443" d="M125.9 157H22.1C14.3 157 8 150.7 8 142.9V22.1C8 14.3 14.3 8 22.1 8h103.8c7.8 0 14.1 6.3 14.1 14.1v120.8c0 7.8-6.3 14.1-14.1 14.1zm24.4-69.7l-3.7-3.7c-5.9-5.9-5.9-15.6 0-21.5s15.6-5.9 21.5 0l3.7 3.7c5.9 5.9 5.9 15.6 0 21.5-6 5.9-15.6 5.9-21.5 0z"/><path fill="#93c73f" d="M134 164H30c-7.8 0-14-6.3-14-14V30c0-7.8 6.3-14 14-14h104c7.8 0 14 6.3 14 14v120c0 7.7-6.3 14-14 14z"/><path fill="#fff" d="M32 93h61v4H32zm0-20h61v4H32zm0-20h61v4H32z"/><path fill="#f9c319" d="M111 147.6l-33.8 8.6 8.6-33.8 62.1-62.1 25.2 25.2z"/><path fill="#f7901e" d="M164.682 77.12l8.415 8.415-62.085 62.083-8.415-8.415z"/><path fill="#f7a71b" d="M156.283 68.72l8.415 8.415-62.086 62.083-8.414-8.415z"/><path fill="#9e9f9f" d="M146.676 61.636l25.385 25.385-8.627 8.627-25.385-25.386z"/><path fill="#231f20" d="M88.6 153.4l-.5-.4-8-8-2.9 11.2z"/><path fill="#dcdbd9" d="M138.278 70.056L163.521 95.3l-2.828 2.829-25.243-25.245zm10.142-10.098l25.243 25.245-2.828 2.828-25.244-25.244z"/></svg>