<svg xmlns="http://www.w3.org/2000/svg" xmlns:x="http://www.w3.org/1999/xlink" viewBox="50 -50 200 200"><clipPath id="a"><circle id="b" fill="#309ed8" cx="150.5" cy="50" r="100"/></clipPath><g clip-path="url(#a)"><use x:href="#b"/><path id="c" d="M60.5-50v200m20 0V-50m20 0v250m20 0V-50m20 0v250M50-29.5h200m0 20H50m0 20h200m0 20H50m0 20h200" stroke="#5dbdee"/><use x:href="#c" x="100"/><use x:href="#c" y="80"/><path id="d" stroke="#fff" fill="none" d="M171.5-24v6a8.3 4.1 2 0 0 17-.1v-6m-.15.5a5.8 3.5 0 1 1-16.8 0m-.05.2a7 3.95 0 1 1 17 0"/><use x:href="#d" y="47.8"/><use x:href="#d" x="-20" y="12.4"/><use x:href="#d" x="-20" y="36.3"/><use x:href="#d" x="-20" y="60.2"/><use x:href="#d" x="-20" y="108"/><use x:href="#d" x="-40" y="23.9"/><use x:href="#d" x="-40" y="71.6"/><use x:href="#d" x="-40" y="95.5"/><use x:href="#d" x="-60" y="36.3"/><use x:href="#d" x="-80" y="47.8"/><use x:href="#d" x="-60" y="60.2"/><path stroke="#fff" fill="none" d="M188.4 24.4l12 7-60 35.8-60-35v23.5l80 46.8v23.2l-40-23.5V55.3m-.6.5l12-7.3M168 83.2l12.45 7.2V114l-20 11.8m0-23.3l20-12.1m-39.9 23.6V90.4m-.35.5l11.6-6.7m-31.7-5l11.6-6.8m-31.25-5V43.9l11-6.6m-31-5.2l11-6.4m10.5-6.1l10-6m9.4-5.6l10-6m10.5-6.2l10-6m9.4-5.5l10-5.9m17-1l12.2 7.3V8.1l-19.5 11.6m-.5 0V-3.6l-11.6-6.8m-20 11.65l11.6 6.8 40-23.4m-92 40.4l12.2 6.9 31-18.6m-23-.3l31.7 18.45 11-6.4m-3-12.4l11.8 6.8m-12 16.5l12.3 7.2v23.9m-32.2-19.2l12.3 7.2V79m-12-7l11.9 7 40-24V31.4m-59.9-11.9v23.6l11-6.35m-23 0l12 6.8"/></g></svg>