<svg xmlns="http://www.w3.org/2000/svg" viewBox="0 0 300 300"><style>.st0{fill:#f4a61f}.st1{fill:#ab6d44}.st2{fill:#bc7846}.st3{fill:#e74548}.st4{fill:#f7c21b}.st5{fill:#414242}.st6{fill:#f78f22}.st7{fill-rule:evenodd;clip-rule:evenodd;fill:#94c740}</style><g id="XMLID_2_"><g id="XMLID_4_"><path id="XMLID_35_" class="st1" d="M226.2 228.7l-7.2-3.2-18.9 46.4 7.2 3.2z"/><path id="XMLID_34_" class="st1" d="M119.3 271.8l8.2-3.2-36.1-91.5-8.2 3.2 5.9 14.9s8.4 21.3 12.5 31.6l17.7 45z"/><path id="XMLID_33_" class="st1" d="M173.3 161.3l7.4-3.1-37.8-90.8-7.4 3.1 6.2 14.8s8.8 21.1 13.1 31.4l18.5 44.6z"/><path id="XMLID_32_" class="st2" d="M182 188.7l7.1 3.2 20.5-46.2-6.1-2.7-4 9-8-14-5 3 4.7 9.4c3.3 5.6 4.3 8.6 1.3 15.6L182 188.7z"/><path id="XMLID_31_" class="st2" d="M139.3 124.1l-8.7-3.2L158.5 51l9 3-5.2 12.1L181 66v8h-10.5c-9 0-14.4 8.2-17.5 16.1l-13.7 34z"/><path id="XMLID_30_" class="st3" d="M233.4 278H67.5l63.4-161h33.5z"/><path id="XMLID_29_" class="st4" d="M195.6 278h-94.1l46.9-111.7z"/><path id="XMLID_28_" class="st5" d="M181.5 278h-65.8l32.5-78.8z"/><path id="XMLID_27_" class="st6" d="M189 260.7l4.5 10.3-14.4.2z"/><path id="XMLID_26_" class="st6" d="M174.5 260.8l10.3-9.9 4.5 10.4"/><path id="XMLID_25_" class="st6" d="M171.1 250.5l9.4-9.4 4.5 10.2"/><path id="XMLID_24_" class="st6" d="M176.2 231l4.4 10.4h-14.1z"/><path id="XMLID_23_" class="st6" d="M161.9 231l9.9-10 4.5 10.3"/><path id="XMLID_22_" class="st6" d="M157.3 220.7l10.2-9.9 4.4 10.4"/><path id="XMLID_21_" class="st6" d="M163 200.6l4.5 10.4h-14.3z"/><path id="XMLID_20_" class="st6" d="M148.9 200.6l9.8-10.3 4.4 10.3"/><path id="XMLID_19_" class="st6" d="M143.9 190.3l10.3-10.4 4.5 10.4"/><g id="XMLID_15_"><path id="XMLID_18_" class="st6" d="M128.7 212.4l-4.4 10.3 13.6.3z"/><path id="XMLID_17_" class="st6" d="M142.4 212.7l-9.3-10.6-4.4 10.4"/><path id="XMLID_16_" class="st6" d="M146.9 202.1l-9.5-10.1-4.4 10.4"/></g><g id="XMLID_11_"><path id="XMLID_14_" class="st6" d="M115.7 242.6l-4.4 10.4h14.3z"/><path id="XMLID_13_" class="st6" d="M130 243l-10-10.3-4.4 10.3"/><path id="XMLID_12_" class="st6" d="M134.2 232.9l-9.8-10.4-4.5 10.4"/></g><path id="XMLID_10_" class="st6" d="M121.8 263.2l-10.4-10.4-4.4 10.4"/><path id="XMLID_9_" class="st6" d="M142.8 179.9l5.6-13.9 5.8 13.9"/><path id="XMLID_8_" class="st6" d="M193.1 270.5l3.2 7.5h-10.7z"/><path id="XMLID_7_" class="st6" d="M117.6 273.2l-10.4-10.4-4.5 10.4"/><path id="XMLID_6_" class="st6" d="M107.8 277.7l-4.9-4.9-2.1 4.9"/></g><path id="XMLID_3_" class="st7" d="M49 277h200v12H49z"/></g></svg>