<svg xmlns="http://www.w3.org/2000/svg" fill="#fff" viewBox="0 0 415 415"><path d="M345.358 127.048a108.747 108.747 0 0 1-31.24 8.564c11.23-6.73 19.855-17.39 23.916-30.092a108.91 108.91 0 0 1-34.54 13.2c-9.922-10.572-24.06-17.177-39.702-17.177-30.04 0-54.393 24.353-54.393 54.39 0 4.264.48 8.415 1.403 12.397-45.205-2.27-85.283-23.923-112.11-56.83-4.683 8.032-7.364 17.375-7.364 27.344 0 18.87 9.602 35.52 24.197 45.273a54.178 54.178 0 0 1-24.638-6.803l-.006.684c0 26.354 18.75 48.335 43.632 53.335a54.508 54.508 0 0 1-24.565.93c6.923 21.61 27.01 37.335 50.81 37.772-18.612 14.59-42.066 23.287-67.55 23.287-4.39 0-8.72-.26-12.975-.762 24.07 15.433 52.66 24.438 83.377 24.438 100.047 0 154.757-82.88 154.757-154.758 0-2.358-.054-4.704-.158-7.037a110.52 110.52 0 0 0 27.14-28.155z"/></svg>
