<?xml version="1.0" encoding="utf-8"?>
<!-- Generator: Adobe Illustrator 19.0.0, SVG Export Plug-In . SVG Version: 6.00 Build 0)  -->
<svg version="1.1" id="Layer_1" xmlns="http://www.w3.org/2000/svg" xmlns:xlink="http://www.w3.org/1999/xlink" x="0px" y="0px"
	 viewBox="0 0 300 300" style="enable-background:new 0 0 300 300;" xml:space="preserve">
<style type="text/css">
	.st0{fill:#231F20;}
	.st1{fill:#F6A71C;}
	.st2{fill:#FBC410;}
	.st3{fill:#F04F4F;}
	.st4{fill:#DCDBD8;}
	.st5{fill:#8EA7A7;}
	.st6{fill:#96C93D;}
	.st7{fill:#FFFFFF;}
	.st8{fill:#F1F2F2;}
</style>
<g id="XMLID_2_">
	<path id="XMLID_26_" class="st0" d="M266,271c0,9.9-8,18-17.9,18H111.9c-9.9,0-17.9-8.1-17.9-18l0,0c0-9.9,8-18,17.9-18h136.2
		C258,253,266,261.1,266,271L266,271z"/>
	<path id="XMLID_25_" class="st1" d="M259,271c0,6.6-6,12-13.4,12H114.4c-7.4,0-13.4-5.4-13.4-12l0,0c0-6.6,6-12,13.4-12h131.1
		C253,259,259,264.4,259,271L259,271z"/>
	<circle id="XMLID_24_" class="st0" cx="113" cy="271" r="8"/>
	<circle id="XMLID_23_" class="st0" cx="247" cy="271" r="8"/>
	<path id="XMLID_22_" class="st2" d="M159,109.6L51,225c-2.6,2.7-2.7,8.4,0,11l3-1c2.7,2.6,9.2-3.8,11.7-6.5L168.6,119L159,109.6z"
		/>
	<path id="XMLID_21_" class="st3" d="M230.9,271c0-2.1-1.6-3.7-3.6-4v0H133c-2.2,0-4,1.8-4,4c0,2.2,1.8,4,4,4h94.3v0
		C229.4,274.7,230.9,273.1,230.9,271z"/>
	<path id="XMLID_20_" class="st1" d="M158,156.2c0,5.4-4.4,9.8-9.8,9.8h-28.3c-5.4,0-9.8-4.4-9.8-9.8v-0.3c0-5.4,4.4-9.8,9.8-9.8
		h28.3c5.4,0,9.8,4.4,9.8,9.8V156.2z"/>
	<polygon id="XMLID_19_" class="st1" points="206.9,230.6 174,231 130,146 163,146 	"/>
	<path id="XMLID_18_" class="st2" d="M151.8,219c-2.1,0-3.8,2.1-3.8,4.7v22.6c0,2.6,1.7,4.7,3.8,4.7H244v-32H151.8z"/>
	<path id="XMLID_17_" class="st0" d="M167,246.7c0,2.4-1.9,4.3-4.3,4.3h-40.3c-2.4,0-4.3-1.9-4.3-4.3v-53.3c0-2.4,1.9-4.3,4.3-4.3
		h40.3c2.4,0,4.3,1.9,4.3,4.3V246.7z"/>
	<path id="XMLID_16_" class="st4" d="M161,218.6c0,1.8-1.3,3.4-3.1,4.6l-30.5,12.2c-1.8,0-3.4-1.5-3.4-3.3V198c0-1.8,1.9-3,3.7-3
		h30.4c1.8,0,2.9,1.2,2.9,3V218.6z"/>
	<g id="XMLID_10_">
		<rect id="XMLID_15_" x="212" y="156" class="st5" width="3" height="63"/>
		<rect id="XMLID_14_" x="212" y="156" class="st6" width="48" height="27"/>
		<g id="XMLID_11_">
			<path id="XMLID_13_" class="st7" d="M228,162c2,0,4,0,5,0c0,2,0,2.3,0,4c0,0,2.8,0,4,0c1.5,0,3,0.5,3,2c0,1.1,0,2.8,0,4
				c0,1.5-1.5,3-3,3c-2.5,0-5.5,0-8,0c-0.1,0,0,0-1,0C228,171,228,166,228,162z"/>
			<path id="XMLID_12_" class="st7" d="M239,177c0-1,0-2,0-2c2,0,5,0,7,0c0,0,0,1,0,2C244,177,241,177,239,177z"/>
		</g>
	</g>
	<circle id="XMLID_9_" class="st4" cx="120" cy="156" r="4"/>
	<rect id="XMLID_8_" x="187" y="225" class="st8" width="50" height="20"/>
	<polygon id="XMLID_7_" class="st3" points="207.3,225 187.3,245 196.7,245 216.7,225 	"/>
	<polygon id="XMLID_6_" class="st3" points="227.6,225 207.6,245 217,245 237,225 	"/>
	<polygon id="XMLID_5_" class="st3" points="187,235 197,225 187.6,225 187,225.6 	"/>
	<polygon id="XMLID_4_" class="st3" points="237,235.6 227.6,245 237,245 	"/>
	<path id="XMLID_3_" class="st3" d="M54.9,223c-11,0-19.9,8.9-19.9,19.9v25.8c0,11,8.9,20.3,19.9,20.3h10.9h5h9.6
		c3.1,0,5.6-2.9,5.6-6s-2.5-6-5.6-6H71v-54H54.9z"/>
</g>
</svg>
