<?xml version="1.0" encoding="utf-8"?>
<!-- Generator: Adobe Illustrator 19.0.0, SVG Export Plug-In . SVG Version: 6.00 Build 0)  -->
<svg version="1.1" id="Layer_1" xmlns="http://www.w3.org/2000/svg" xmlns:xlink="http://www.w3.org/1999/xlink" x="0px" y="0px"
	 viewBox="0 0 300 300" style="enable-background:new 0 0 300 300;" xml:space="preserve">
<style type="text/css">
	.st0{fill:#FBC410;}
	.st1{fill:#F6A71C;}
	.st2{fill:#F7901E;}
	.st3{fill:#F04F4F;}
	.st4{fill:#DCDBD8;}
</style>
<g id="XMLID_2_">
	<path id="XMLID_12_" class="st0" d="M100.3,205.8l-28.6,28.6c-12.5,12.5-12.5,32.9,0,45.4s32.9,12.5,45.4,0l28.6-28.6L100.3,205.8z
		"/>
	<path id="XMLID_11_" class="st1" d="M117,222.5l-22.4,22.4c-2.5,2.5-4,7.4,0.3,11.6c4.8,4.8,9.1,2.8,11.6,0.3l22.4-22.4L117,222.5z
		"/>
	
		<rect id="XMLID_10_" x="120.5" y="214.1" transform="matrix(0.7071 0.7071 -0.7071 0.7071 195.0956 -25.9797)" class="st2" width="16.8" height="16.8"/>
	
		<rect id="XMLID_9_" x="159.4" y="136.2" transform="matrix(0.7071 0.7071 -0.7071 0.7071 178.9778 -64.8913)" class="st3" width="16.8" height="94.8"/>
	<polygon id="XMLID_8_" class="st4" points="218.7,143.7 207.5,144.4 207,143.9 207.7,132.7 197,122 195.4,144.1 207.3,156 
		229.4,154.4 	"/>
	
		<rect id="XMLID_7_" x="191" y="126" transform="matrix(0.7071 0.7071 -0.7071 0.7071 157.8959 -115.1945)" class="st2" width="54" height="14"/>
	
		<rect id="XMLID_6_" x="202.3" y="113.3" transform="matrix(0.7071 0.7071 -0.7071 0.7071 145.168 -109.9224)" class="st0" width="6" height="14"/>
	
		<rect id="XMLID_5_" x="210.8" y="121.8" transform="matrix(0.7071 0.7071 -0.7071 0.7071 153.6533 -113.4371)" class="st0" width="6" height="14"/>
	
		<rect id="XMLID_4_" x="219.2" y="130.2" transform="matrix(0.7071 0.7071 -0.7071 0.7071 162.1386 -116.9518)" class="st0" width="6" height="14"/>
	
		<rect id="XMLID_3_" x="227.7" y="138.7" transform="matrix(0.7071 0.7071 -0.7071 0.7071 170.6238 -120.4666)" class="st0" width="6" height="14"/>
</g>
</svg>
