<svg xmlns="http://www.w3.org/2000/svg" fill="#fff" viewBox="0 0 415 415"><path d="M316.8 307.104h-1.66c-17.837-2.978-29.992-15.776-40.372-27.618-5.84-6.7-14.832-21.846-25.54-20.1-15.205 2.49-7.647 28.877-14.003 40.188-5.125 9.133-26.957 7.485-42.013 5.854-47.52-5.124-71.805-30.895-93.093-58.598-22.76-29.607-40.48-60.588-56.857-94.604-5.305-11.01-12.355-23.192-12.355-36.837 7.703-6.377 20.272-4.187 32.957-4.187 10.752 0 27.546-2.405 35.418 1.676 4.682 2.405 9.406 15.247 13.187 23.437 8.676 18.797 16.656 32.326 27.188 47.716 4.56 6.672 11.57 19.255 19.77 17.58 7.97-1.616 8.72-21.56 9.065-34.316.4-14.486-.016-32.497-4.116-40.186-3.875-7.257-10.96-7.4-18.128-11.725 5.963-12.183 22.31-13.4 42.02-13.4 16.556 0 39.677-1.86 46.133 9.22 6.573 11.282 2.063 31.626 1.647 46.873-.457 17.14-3.378 34.833 8.248 42.706 8.936-.986 13.745-9.835 18.94-16.75 11.368-15.133 18.397-28.232 27.188-47.717 3.606-8.004 7.472-21.775 14-24.28 9.95-3.824 25.81-.83 40.373-.83 11.94 0 33.242-3.35 37.08 5.024 3.18 6.945-6.185 24.483-9.06 29.293-11.04 18.384-21.864 30.094-33.774 46.044-4.77 6.387-14.603 16.595-14.017 26.8.444 7.747 8.104 13.69 14.017 19.26 12.785 12.067 21.76 20.86 32.126 34.316 3.895 5.07 12.34 16.048 11.525 22.607-2.507 20.457-49.924 7.63-65.9 12.554z"/></svg>
