<svg xmlns="http://www.w3.org/2000/svg" width="200" height="200"><circle cx="99.86" cy="100.12" r="99.5" fill="#7ac144"/><path fill="#96cb5f" d="M199.19 106.09l-.02-1.15-3.64-2 3.83-2.24v-1.16l-4.85 2.83-20.24-11.2 20.06-11.69 3.25 1.79-.25-1.27-2-1.1 1.56-.9-.24-1.03-2.33 1.36-20.1-11.12 15.85-9.23-.5-.87-16.38 9.54-20.17-11.16 20.04-11.68 13.51 7.48-.97-1.68-11.53-6.38 5.16-3.01-.5-.87-5.68 3.31-18.98-10.5 11.54-6.72-.8-.69-11.77 6.85-20.33-11.24 13.89-8.1-1.05-.55-13.86 8.08L111.63 8.7l9.78-5.7-1.47-.3-9.32 5.44L97.1.66l-1.95.07 14.46 8-20.03 11.66L69.55 9.31l12-7-3 .6-10.02 5.84-3.41-1.9-1.25.48 3.66 2-20.07 11.7-4.54-2.51-.91.65 4.44 2.44-18.99 11.06-.49-.27-.7.76.19.1-.58.33-2.19 2.51 3.78-2.28L47.51 44.9 27.44 56.58 14.3 49.31l-.49.87 12.64 7L6.36 68.85l-.75-.41-.4.92.15.08-.22.12-.47 1.52L6.37 70l20.1 11.13L6.43 92.82.9 89.72l-.1 1.12 4.63 2.56-5 2.91L.4 97.5l6.05-3.53 20.21 11.18L6.6 116.82l-5.28-2.95.18 1.27 4.09 2.26-3.36 1.96.21 1.03 4.17-2.42 19.06 10.54-17.58 10.24.5.86 18.1-10.54 20.15 11.14-20.07 11.69-16.94-9.4.77 1.6 15.17 8.39-7.57 4.4.5.86 8.08-4.7 20.14 11.14-14.94 8.65.8.74 15.16-8.83L68.1 175.9l-17.94 10.43 1.01.57 17.95-10.44 20.12 11.13-14.93 8.7 1.37.36 14.58-8.5 19.79 10.95.78-.1-.01.02.94-.12 1.66-.2 19.07-11.11 6.95 3.84 1.18-.52-7.12-3.91 20.06-11.69 6.83 3.78.89-.69-6.71-3.68 19.97-11.63 1.62.9.67-.82-1.28-.67 3.36-1.96 1.52-2.04-5.9 3.44-20.14-11.14 20.15-11.74 13.38 7.4.48-.88-12.85-7.1 20.22-11.79.38-1.4-.56.32-20.05-11.06 18.98-11.05 4.67 2.58zm-25.99-38.3l20.11 11.13-20.06 11.69-20.11-11.13L173.2 67.8zm-62.26 11.05l-19-10.52 18.98-11.05 19 10.51-18.97 11.06zm.02 1.15l20.17 11.15-20.07 11.68-20.17-11.15L110.96 80zm-1.02-.57L89.88 91.11 70.84 80.59 90.92 68.9l19.02 10.51zM88.87 91.7l-20.1 11.7-19.03-10.53 20.1-11.7L88.87 91.7zm1.02.56l20.16 11.15-20.11 11.72-20.16-11.16 20.1-11.71zm.06 24.02l20.11 11.13-20 11.65-20.13-11.13 20.02-11.65zm21.13 11.7l20.2 11.17-20 11.64-20.2-11.16 20-11.65zm0-1.15l-20.13-11.14 20.12-11.71 20.13 11.12-20.13 11.73zm1-23.44l20.07-11.69 20.12 11.13-20.07 11.69-20.12-11.13zm20.05-12.84L111.96 79.4l18.98-11.06 20.17 11.16-18.98 11.05zm-1.2-23.35l-19-10.52L132 45l19 10.5-20.07 11.7zM110.9 56.12L90.6 44.9l20.06-11.7 20.31 11.24-20.07 11.68zm-1.01.59L90.9 67.76 70.64 56.54 89.6 45.48l20.29 11.23zm-40.28-.73l-20.09-11.1L68.5 33.82l20.08 11.1-18.97 11.06zm.01 1.15L89.9 68.34 69.83 80.02l-20.25-11.2 20.05-11.69zm-.8 23.48l-20.11 11.7-20.23-11.2 20.08-11.7 20.25 11.2zm-20.1 12.85L67.76 104l-20.03 11.67-19.04-10.54 20.04-11.66zm20.05 11.1l20.15 11.15-20.02 11.66-20.16-11.15 20.02-11.66zm.14 23.96l20.14 11.13-20.07 11.69-20.13-11.14 20.06-11.68zm21.15 11.7l20.2 11.16-20.08 11.68L70 151.9l20.06-11.69zm21.22 11.72l20.1 11.12-20.07 11.68-20.11-11.12 20.08-11.68zm1-.58l20-11.64 20.08 11.11-19.98 11.64-20.1-11.11zm20-12.8l-20.2-11.17 20.12-11.72 20.22 11.18-20.15 11.72zm.93-23.48l20.07-11.69 20.23 11.2-20.08 11.67-20.22-11.18zm20.05-12.84l-20.12-11.12 18.98-11.05 20.11 11.12-18.97 11.05zm18.92-35l-20.07 11.68-20.17-11.16L152 56.07l20.18 11.16zm-19.13-34.49l18.98 10.5L152 54.92l-18.99-10.5 20.05-11.67zm-21.35-11.8l20.33 11.24-20.05 11.66-20.31-11.23 20.02-11.68zM110.63 9.28l20.06 11.09-20.03 11.67-20.06-11.1L110.63 9.3zM89.59 21.54l20.07 11.1-20.06 11.7-20.08-11.11L89.6 21.54zM68.54 9.9l20.03 11.08L68.5 32.67 48.47 21.59l20.08-11.7zM28.48 33.23l18.99-11.06L67.5 33.25l-19 11.06-20.02-11.08zm20.05 12.23l20.08 11.1-20.05 11.7-20.1-11.11 20.06-11.69zM7.38 69.43l20.07-11.7 20.1 11.12-20.08 11.7-20.1-11.12zm.07 23.95L27.5 81.7l20.2 11.2-20.04 11.66L7.45 93.38zm19.21 34.55L7.61 117.4l20.07-11.68 19.05 10.53-20.07 11.7zm1.02.56l20.07-11.68 20.15 11.14-20.06 11.69-20.16-11.15zm20.24 35.12l-20.14-11.14 20.07-11.68 20.14 11.13-20.07 11.7zm21.18 11.71l-20.16-11.15L69 152.5l20.18 11.15-20.08 11.68zm21.15 11.7l-20.13-11.13L90.2 164.2l20.11 11.12-20.06 11.69zm21.13 11.68l-20.11-11.12 20.06-11.69 20.14 11.14-20.09 11.67zm21.1-12.25l-20.14-11.14 20.06-11.69 20.15 11.14-20.07 11.69zm41.05-23.91l-19.98 11.63-20.14-11.14 19.98-11.64 20.14 11.15zm-20.15-12.3l-20.07-11.1 20.14-11.73 20.07 11.1-20.14 11.74zm41.21-24l-20.06 11.68-20.07-11.1 20.08-11.67 20.05 11.09zM174.53 114l-20.24-11.2 18.97-11.04 20.25 11.2L174.53 114z"/><path fill="#f1a521" d="M134.53 70.95l-.5-.23 6.47-3.78V65.9l-17.83-8.77-88.14 50.57v1.02l17.83 9.8 5.23-3.06.12.06c20.59 10.48 54.47 9 75.69-3.32 21.21-12.3 21.72-30.78 1.13-41.26zm-59.57 34.48l-.12-.06 15.48-9.05c3.68 1.53 9.22 1.2 12.78-.86 3.58-2.08 3.83-5.14.7-7.04l14.2-8.31.33.15c11.63 5.92 11.34 16.35-.64 23.3-11.97 6.95-31.1 7.79-42.73 1.87z"/><path fill="#f9cd0e" d="M134.53 69.92l-.5-.23 6.47-3.78-17.83-9.8-88.14 51.6 17.83 9.8 5.23-3.06.12.06c20.59 10.48 54.47 8.99 75.69-3.32 21.21-12.31 21.72-30.79 1.13-41.27zm-16.84 32.61c-11.97 6.96-31.1 7.8-42.73 1.88l-.11-.06 15.47-9.06c3.68 1.54 9.22 1.21 12.78-.85 3.58-2.08 3.83-5.15.7-7.04l14.2-8.32c.11.05.23.1.33.16 11.63 5.91 11.34 16.34-.64 23.3z"/><path fill="#f1a521" d="M53.12 105.9a.52.52 0 0 1-.25-.07l-7.52-4.16a.5.5 0 0 1 .49-.88l7.52 4.16a.5.5 0 0 1-.24.94zm7.17-6.03a.51.51 0 0 1-.24-.07l-5.9-3.28a.5.5 0 1 1 .48-.87l5.9 3.28a.5.5 0 0 1-.24.94zm60.62-33.59a.52.52 0 0 1-.25-.06l-7.58-4.2a.5.5 0 1 1 .48-.87l7.59 4.2a.5.5 0 0 1-.24.93zm-9.02 3.79a.52.52 0 0 1-.24-.06l-6.28-3.48a.5.5 0 0 1 .49-.87l6.27 3.47a.5.5 0 0 1-.24.94zM87.5 86.04a.5.5 0 0 1-.25-.06l-7.68-4.34a.5.5 0 1 1 .5-.87l7.67 4.34a.5.5 0 0 1-.25.93zm16.76-9.94a.52.52 0 0 1-.24-.07l-7.65-4.23a.5.5 0 0 1 .49-.87l7.64 4.23a.5.5 0 0 1-.24.93zm-10.31 4a.52.52 0 0 1-.24-.06l-5.87-3.24a.5.5 0 0 1 .49-.88l5.86 3.25a.5.5 0 0 1-.24.93zM77.18 90.17a.52.52 0 0 1-.25-.07l-6.1-3.37a.5.5 0 0 1 .49-.88l6.1 3.38a.5.5 0 0 1-.24.94zm-7.13 5.8a.5.5 0 0 1-.24-.06l-7.55-4.2a.5.5 0 0 1 .48-.87l7.56 4.2a.5.5 0 0 1-.25.94zm59.11 13.57a.5.5 0 0 1-.25-.07l-7.48-4.12a.5.5 0 1 1 .48-.88l7.49 4.13a.5.5 0 0 1-.25.94zm-6.52-32.67a.5.5 0 0 1-.25-.93l7.33-4.3a.5.5 0 0 1 .5.87l-7.33 4.3a.51.51 0 0 1-.25.06zm-59.92 35.02a.5.5 0 0 1-.25-.94l7.33-4.29a.5.5 0 0 1 .68.18.5.5 0 0 1-.18.69l-7.33 4.29a.5.5 0 0 1-.25.07z"/><path fill="#f9cd0e" d="M146.96 24.3H123.1L31.84 77.88l9.56 3.6 79.12-46.23 6.4-3.99 7.52 13.65z"/><path fill="#f1a521" d="M136.22 34.66L57.65 80.72l-9.3-3.51 84.03-49.33z"/><path fill="#f79124" d="M136.22 34.66l-1.78 10.25-77.76 45.23-9.18-3.46 88.72-52.02z"/><ellipse cx="51.34" cy="79.97" fill="#9d9e9f" rx="8.69" ry="13.27" transform="rotate(-29.27 51.34 79.97)"/><path fill="#c6c6c5" d="M52.96 72.34c5.84 5.08 8.57 14.95 2.17 18.77L40.79 99.4 20.3 84.66l23.1-13.58c3.54-2.08 6.45-1.18 9.57 1.26z"/><path fill="#9d9e9f" d="M46.57 82.82c3.58 6.39 3.09 13.47-1.1 15.82-4.19 2.35-7.65-2.65-11.23-9.04-3.58-6.4-5.93-11.76-1.74-14.1 4.19-2.35 10.49.92 14.07 7.32z"/><path fill="#808180" d="M46 87.65c.22 1.74-4.96 11.61-4.96 11.61 1.58.3 3.11.12 4.43-.62a6.53 6.53 0 0 0 2.9-3.62l4.97-2.87a6.5 6.5 0 0 0 4.49-.61c3.46-1.94-9.72-5.22-9.72-5.22.3.94-1.28 1.77-2.11 1.33z"/><path fill="#f0534b" d="M40.97 79.68c6.87 5.97 6.83 15.69 2.86 18.06l-11.81 6.77-10.96-20.26 11.03-6.55c3.53-2.07 7.78.9 8.88 1.98z"/><path fill="#e04142" d="M32 104.5l.07.02 11.76-6.74c2.45-1.45 3.4-5.7 2.17-10.13L28.42 97.9l3.57 6.6z"/><ellipse cx="26.55" cy="94.34" fill="#d73737" rx="7.55" ry="11.52" transform="rotate(-29.27 26.55 94.35)"/><path d="M142.57 29.74c.1.9-.04 1.88-.46 2.6l4.85-8.04h-9.2c2.23.1 4.52 2.81 4.81 5.44z"/><path fill="#b3b4b4" d="M60.43 79.1c.28.87-1.34 1.78-2.23 1.23L48.12 86.3c1.06 3.25 1.11 6.43.2 8.83 0-.04.03-.07.04-.12l4.98-2.87a6.5 6.5 0 0 0 4.49-.61c3.46-1.94 4.4-7.1 2.6-12.44zm0 0s-.04-.11 0 0z"/><path fill="#808180" d="M60.43 79.1s-.04-.11 0 0zm0 0c.28.87-1.33 1.77-2.22 1.23 1.32 4.22.72 8.54-3.04 10.79l-1.8 1.03c1.6.3 3.13.13 4.46-.61 3.45-1.94 4.4-7.1 2.6-12.44z"/><path fill="#1880af" d="M132.59 143.73l-21.28 12.2v19.43l21.28-12.19z"/><path fill="#3a9ed8" d="M90.03 144.07l21.28 11.86v19.43l-21.28-11.75z"/><path fill="#d73737" d="M68.75 132.31l21.28 11.86v19.44l-21.28-11.76z"/><path fill="#3fb5e8" d="M110.93 131.81l21.7 11.96-21.28 12.2-21.36-11.92z"/><path fill="#f0534b" d="M89.65 120.04l21.7 11.96-21.28 12.2-21.36-11.93z"/><path fill="#bcbcbc" d="M90.53 163.88l-1.1-.61-.01-19.44 1.1.24z"/><path fill="#fff" d="M90.53 144.36l-1.11-.53 21.42-12.11 1 .59z"/></svg>