<svg xmlns="http://www.w3.org/2000/svg" viewBox="0 0 300 300"><path fill="#fbc410" d="M227.7 117H72.3C60 117 50 126.5 50 138v130.2c0 11.5 10 20.8 22.3 20.8h155.4c12.3 0 22.3-9.3 22.3-20.8V138c0-11.5-10-21-22.3-21zm6.3 147.2c0 5.6-4.6 9.8-10.6 9.8H76.6c-6 0-10.6-4.2-10.6-9.8V144.1c0-5.6 4.5-10.1 10.6-10.1h146.8c6 0 10.6 4.5 10.6 10.1v120.1z"/><path fill="#9d9d9d" d="M76 155h148v6H76z"/><path fill="#b9b8b9" d="M134 155h4v6h-4zm9 0h4v6h-4zm9 0h4v6h-4zm9 0h4v6h-4zm9 0h4v6h-4zm-81 0h4v6h-4zm-9 0h4v6h-4zm18 0h4v6h-4zm9 0h4v6h-4zm9 0h4v6h-4zm9 0h4v6h-4zm54 0h4v6h-4zm9 0h4v6h-4zm9 0h4v6h-4zm9 0h4v6h-4zm9 0h4v6h-4z"/><path fill="#9d9d9d" d="M76 142h148v6H76z"/><path fill="#b9b8b9" d="M134 142h4v6h-4zm9 0h4v6h-4zm9 0h4v6h-4zm9 0h4v6h-4zm9 0h4v6h-4zm-81 0h4v6h-4zm-9 0h4v6h-4zm18 0h4v6h-4zm9 0h4v6h-4zm9 0h4v6h-4zm9 0h4v6h-4zm54 0h4v6h-4zm9 0h4v6h-4zm9 0h4v6h-4zm9 0h4v6h-4zm9 0h4v6h-4z"/><path fill="#fcc70e" d="M111 142h28v19h-28z"/><path fill="#f04d4c" d="M115 161h20v6h-20z"/><path fill="#fcc70e" d="M121 167h8v6h-8z"/><path fill="#9d9d9d" d="M134 258h32v16h-32z"/><path fill="#b9b8b9" d="M134 263h32v6h-32z"/><path fill="#96c93d" d="M107 197h86v51h-86zm12-6h17v6h-17z"/><path fill="#96c93d" d="M131 187h5v5h-5zm-12 2h5v5h-5zm7 0h5v5h-5zm38-2h17v10h-17zm-42-7c0-1.7 3.1-4 3.1-6 1 2 2.9 4.4 2.9 6s-1.4 3-3 3-3-1.4-3-3z"/><path fill="#262124" d="M121 134h8v8h-8z"/><path fill="#9d9d9d" d="M222 167v-33h2c5.6.2 10 3.6 10 7.8V167h-12zm-144 0v-33h-2c-5.6.2-10 3.6-10 7.8V167h12z"/><circle fill="#262124" cx="77.5" cy="151.5" r="9.5"/><circle fill="#b9b8b9" cx="77.5" cy="151.5" r="4.5"/><circle fill="#262124" cx="222.5" cy="151.5" r="9.5"/><circle fill="#b9b8b9" cx="222.5" cy="151.5" r="4.5"/><path fill="#262124" d="M123 117.8v6.7c0 2.5 1.8 4.5 4.1 4.5H174c2.3 0 4.1-2 4.1-4.5v-6.7c0-.3 0-.6-.1-.8h-54.8c-.2.3-.2.5-.2.8z"/><path fill="#96c93d" d="M127 121h4v4h-4zm8 0h4v4h-4zm8 0h4v4h-4z"/><path fill="#9d9d9d" d="M151 121h4v4h-4z"/><path fill="#f04d4c" d="M170 121h4v4h-4z"/><path fill="#fff" d="M141 217h6v4h4.1c1.6 0 3.1.5 3.1 2 0 1.1-.1 2.8 0 4 0 1.5-1.6 3-3.2 3h-10v-13zm12 15v-2h8v2h-8z"/><path fill="#f04d4c" d="M84 248h134v10H84z"/></svg>