<svg xmlns="http://www.w3.org/2000/svg" viewBox="0 0 300 300"><style>.st0{fill-rule:evenodd;clip-rule:evenodd;fill:#f5a71d}.st1,.st2{stroke:#fff;fill:none;stroke-width:5;stroke-linecap:round;stroke-miterlimit:22.9256}.st2{stroke:#dfe0e0}.st3{fill:#d7d7d7}.st3,.st4,.st5,.st6,.st7{fill-rule:evenodd;clip-rule:evenodd}.st4{fill:#c7c5c5}.st5{fill:#fff}.st6{fill:#ececec}.st7{fill:#95c83f}.st8,.st9{stroke:#c7c5c5;fill:none;stroke-width:3;stroke-linecap:round;stroke-miterlimit:22.9256}.st9{stroke:#dfe0e0}.st10{fill-rule:evenodd;clip-rule:evenodd;fill:#d63534}</style><g id="XMLID_2_"><path id="XMLID_36_" class="st0" d="M40 123h220v162H40V123z"/><path id="XMLID_35_" class="st0" d="M142.2 261h17.2c3.1 0 4.7 2 4.7 5.5v16.3c0 3.4-1.6 6.2-4.7 6.2h-17.2c-3.1 0-6.2-2.8-6.2-6.2v-16.3c0-3.5 3.2-5.5 6.2-5.5z"/><path id="XMLID_18_" class="st3" d="M48 123.5l8.4-8.5 96.6 15.8 91-15.8 8 8.5V277H48V121.2z"/><path id="XMLID_17_" class="st4" d="M251.3 277H47.6l9.4-9 184.3-1.9z"/><path id="XMLID_16_" class="st5" d="M56 115h77.3c9.4 0 16.7 4.2 16.7 8.3V276c0-5.2-6.3-8-16.7-8H56V115z"/><path id="XMLID_15_" class="st6" d="M150 123.2c0-4 8.5-8.2 19.4-8.2H244v153h-74.6c-14.2 0-19.4 5.1-19.4 9V123.2z"/><path id="XMLID_14_" class="st7" d="M166 148h60v58h-60v-58z"/><path id="XMLID_13_" class="st5" d="M184 168.1s1.6-.1 2.5-.1h2.5v5h6v1h1v8.4h-1v1.1h7v2.4h-7v-2.4h-11v-15.4z"/><path id="XMLID_12_" class="st8" d="M166 238.5h60"/><path id="XMLID_11_" class="st9" d="M73 221.5h60"/><path id="XMLID_10_" class="st9" d="M73 238.5h60"/><path id="XMLID_9_" class="st9" d="M73 185.5h60"/><path id="XMLID_8_" class="st9" d="M73 203.5h60"/><path id="XMLID_7_" class="st9" d="M73 150.5h60"/><path id="XMLID_6_" class="st9" d="M73 168.5h60"/><path id="XMLID_5_" class="st10" d="M117 115h20v89.3l-10-7.4-10 7.4V115z"/><path id="XMLID_4_" class="st8" d="M166 221.5h60"/></g></svg>