<svg xmlns="http://www.w3.org/2000/svg" xmlns:x="http://www.w3.org/1999/xlink" viewBox="50 -50 200 200"><clipPath id="a"><circle id="b" fill="#ff4a46" cx="150.5" cy="50" r="100"/></clipPath><g clip-path="url(#a)"><use x:href="#b"/><pattern id="e" patternUnits="userSpaceOnUse" x="10" width="40" height="23.85"><g id="d"><path id="c" fill="#d63637" d="M2 6.1v5.8c0 2.7 3.8 4.8 8.5 4.8 4.1 0 8.5-1.6 8.5-3.8V7H2z"/><use x:href="#c" x="20" y="-12.2"/><ellipse fill="#f54744" cx="10.55" cy="7" rx="8.5" ry="4.8"/></g><use x:href="#d" x="20" y="11.6"/></pattern><path fill="url(#e)" d="M0-50h250v200H0z"/><g id="f"><path fill="#fc0" d="M180.562-3.556l20.129-11.709-20.129-11.38L160.5-14.947l20.062 11.391z"/><path fill="#f68e22" d="M180.596-3.591V22.75L201 11v-26.335zM172-20v4.6c0 2.7 3.8 4.8 8.5 4.8 4.1 0 8.5-1.6 8.5-3.8v-5.5h-17v-.1z"/><ellipse fill="#f6c11a" cx="180.5" cy="-20.2" rx="8.5" ry="4.8"/><path fill="#f2a41f" d="M181 23l-20-11.365v-26.323l20 11.347z"/></g><use x:href="#f" x="-20" y="11.6"/><use x:href="#f" x="-40" y="23.2"/><use x:href="#f" x="-60" y="34.8"/><use x:href="#f" x="-20" y="34.5"/><use x:href="#f" x="-80" y="46.4"/><use x:href="#f" y="45.8"/><use x:href="#f" x="-20" y="57.4"/><use x:href="#f" x="-60" y="57.4"/><use x:href="#f" x="-40" y="68.8"/><use x:href="#f" x="-40" y="91.8"/><use x:href="#f" x="-20" y="103.2"/></g></svg>