<svg id="Layer_1" xmlns="http://www.w3.org/2000/svg" viewBox="8 0 215 200"><style>.st0{fill:#fdcf09}.st1{fill:#e1b724}.st2{fill:#f7c21b}.st3{fill:#9e9f9f}.st4{fill:#c6c6c6}.st5{fill:#7f7f7f}.st6{fill:#b2b2b2}.st7{fill:#de4443}.st8{fill:#c63c3c}.st9{fill:#ed7e1b}.st10{fill:#8ab23d}.st11{fill:#80a530}.st12{fill:#f78f22}.st13{fill:#db9126}.st14{fill:#93c73f}.st15{fill:#f3a61f}.st16{fill:#ef9f20}.st17{fill:#f48b2c}.st18{fill:#d84444}.st19{fill:#94bf40}.st20{fill:#6b7f2a}.st21{fill:#a5a5a5}.st22{fill:#707070}</style><circle id="XMLID_62_" class="st0" cx="120.7" cy="100" r="99"/><g id="XMLID_5_"><path id="XMLID_23_" class="st1" d="M116.2 36c-1.4-.6-3.1-1-5-1-2.2 0-4.3.5-5.8 1.4l-2.7-1.4v5c0 2.8 3.8 5 8.5 5 4.1 0 7.6-1.7 8.3-4h.2v-6l-3.5 1z"/><ellipse id="XMLID_22_" class="st2" cx="111.2" cy="35" rx="8.5" ry="5"/><path id="XMLID_20_" class="st1" d="M96.2 49c-1.4-.6-3.1-1-5-1-2.2 0-4.3.5-5.8 1.4L82.7 48v5c0 2.8 3.8 5 8.5 5 4.1 0 7.6-1.7 8.3-4h.2v-6l-3.5 1z"/><ellipse id="XMLID_19_" class="st2" cx="91.2" cy="48" rx="8.5" ry="5"/><path id="XMLID_17_" class="st1" d="M76.2 61c-1.4-.6-3.1-1-5-1-2.2 0-4.3.5-5.8 1.4L62.7 60v5c0 2.8 3.8 5 8.5 5 4.1 0 7.6-1.7 8.3-4h.2v-6l-3.5 1z"/><ellipse id="XMLID_16_" class="st2" cx="71.2" cy="60" rx="8.5" ry="5"/><path id="XMLID_14_" class="st1" d="M56.2 73c-1.4-.6-3.1-1-5-1-2.2 0-4.3.5-5.8 1.4L42.7 72v5c0 2.8 3.8 5 8.5 5 4.1 0 7.6-1.7 8.3-4h.2v-6l-3.5 1z"/><ellipse id="XMLID_13_" class="st2" cx="51.2" cy="72" rx="8.5" ry="5"/><path id="XMLID_11_" class="st1" d="M36.2 86c-1.4-.6-3.1-1-5-1-2.2 0-4.3.5-5.8 1.4L22.7 85v5c0 2.8 3.8 5 8.5 5 4.1 0 7.7-1.7 8.5-4v-6l-3.5 1z"/><ellipse id="XMLID_10_" class="st2" cx="31.2" cy="85" rx="8.5" ry="5"/><path id="XMLID_8_" class="st1" d="M136.2 25c-1.4-.6-3.1-1-5-1-2.2 0-4.3.5-5.8 1.4l-2.7-1.4v5c0 2.8 3.8 5 8.5 5 4.1 0 7.7-1.7 8.5-4v-6l-3.5 1z"/><ellipse id="XMLID_7_" class="st2" cx="131.2" cy="24" rx="8.5" ry="5"/><path id="XMLID_12_" class="st1" d="M155.2 13c-1.4-.6-3.1-1-5-1-2.2 0-4.3.5-5.8 1.4l-2.7-1.4v5c0 2.8 3.8 5 8.5 5 4.1 0 7.7-1.7 8.5-4v-6l-3.5 1z"/><ellipse id="XMLID_9_" class="st2" cx="150.2" cy="12" rx="8.5" ry="5"/></g><g id="XMLID_132_"><path id="XMLID_144_" class="st1" d="M215.2 95c-1.4-.6-3.1-1-5-1-2.2 0-4.3.5-5.8 1.4l-2.7-1.4v5c0 2.8 3.8 5 8.5 5 4.1 0 7.7-1.7 8.5-4v-6l-3.5 1z"/><ellipse id="XMLID_143_" class="st2" cx="210.2" cy="94" rx="8.5" ry="5"/><path id="XMLID_142_" class="st1" d="M195.2 107c-1.4-.6-3.1-1-5-1-2.2 0-4.3.5-5.8 1.4l-2.7-1.4v5c0 2.8 3.8 5 8.5 5 4.1 0 7.7-1.7 8.5-4v-6l-3.5 1z"/><ellipse id="XMLID_141_" class="st2" cx="190.2" cy="106" rx="8.5" ry="5"/><path id="XMLID_140_" class="st1" d="M175.2 119c-1.4-.6-3.1-1-5-1-2.2 0-4.3.5-5.8 1.4l-2.7-1.4v5c0 2.8 3.8 5 8.5 5 4.1 0 7.7-1.7 8.5-4v-6l-3.5 1z"/><ellipse id="XMLID_139_" class="st2" cx="170.2" cy="118" rx="8.5" ry="5"/><path id="XMLID_138_" class="st1" d="M155.2 132c-1.4-.6-3.1-1-5-1-2.2 0-4.3.5-5.8 1.4l-2.7-1.4v5c0 2.8 3.8 5 8.5 5 4.1 0 7.7-1.7 8.5-4v-6l-3.5 1z"/><ellipse id="XMLID_137_" class="st2" cx="150.2" cy="131" rx="8.5" ry="5"/></g><g id="XMLID_162_"><path id="XMLID_170_" class="st1" d="M215.2 120c-1.4-.6-3.1-1-5-1-2.2 0-4.3.5-5.8 1.4l-2.7-1.4v5c0 2.8 3.8 5 8.5 5 2.1 0 3.9-.4 5.4-1.1.9-2.4 1.6-5.4 2.2-8.6l-2.6.7z"/><path id="XMLID_169_" class="st2" d="M217.3 121.7c-1.5 1.4-4.1 2.3-7.1 2.3-4.7 0-8.5-2.2-8.5-5s3.8-5 8.5-5c3.5 0 6.5 1.3 7.8 3.1.4.6-.7 4.6-.7 4.6z"/><path id="XMLID_168_" class="st1" d="M195.2 132c-1.4-.6-3.1-1-5-1-2.2 0-4.3.5-5.8 1.4l-2.7-1.4v5c0 2.8 3.8 5 8.5 5 4.1 0 7.7-1.7 8.5-4v-6l-3.5 1z"/><ellipse id="XMLID_167_" class="st2" cx="190.2" cy="131" rx="8.5" ry="5"/><path id="XMLID_166_" class="st1" d="M175.2 144c-1.4-.6-3.1-1-5-1-2.2 0-4.3.5-5.8 1.4l-2.7-1.4v5c0 2.8 3.8 5 8.5 5 4.1 0 7.7-1.7 8.5-4v-6l-3.5 1z"/><ellipse id="XMLID_165_" class="st2" cx="170.2" cy="143" rx="8.5" ry="5"/><path id="XMLID_164_" class="st1" d="M155.2 157c-1.4-.6-3.1-1-5-1-2.2 0-4.3.5-5.8 1.4l-2.7-1.4v5c0 2.8 3.8 5 8.5 5 4.1 0 7.7-1.7 8.5-4v-6l-3.5 1z"/><ellipse id="XMLID_163_" class="st2" cx="150.2" cy="156" rx="8.5" ry="5"/></g><g id="XMLID_171_"><path id="XMLID_179_" class="st1" d="M210.8 141c-2.2 0-4.9.5-6.4 1.4l-2.7-1.4v5c0 1.9 1.7 3.5 4.3 4.3 1.4-2.4 3.1-5.7 4.8-9.3z"/><path id="XMLID_178_" class="st2" d="M208.5 145.9c-3.9-.5-6.8-2.5-6.8-4.9 0-2.8 3.8-5 8.5-5 .9 0 1.8.1 2.7.2l-4.4 9.7z"/><path id="XMLID_177_" class="st1" d="M195.2 154c-1.4-.6-3.1-1-5-1-2.2 0-4.3.5-5.8 1.4l-2.7-1.4v5c0 2.8 3.8 5 8.5 5 4.1 0 7.7-1.7 8.5-4v-6l-3.5 1z"/><ellipse id="XMLID_176_" class="st2" cx="190.2" cy="153" rx="8.5" ry="5"/><path id="XMLID_175_" class="st1" d="M175.2 166c-1.4-.6-3.1-1-5-1-2.2 0-4.3.5-5.8 1.4l-2.7-1.4v5c0 2.8 3.8 5 8.5 5 4.1 0 7.7-1.7 8.5-4v-6l-3.5 1z"/><ellipse id="XMLID_174_" class="st2" cx="170.2" cy="165" rx="8.5" ry="5"/><path id="XMLID_173_" class="st1" d="M155.2 179c-1.4-.6-3.1-1-5-1-2.2 0-4.3.5-5.8 1.4l-2.7-1.4v5c0 2.8 3.8 5 8.5 5 4.1 0 7.7-1.7 8.5-4v-6l-3.5 1z"/><ellipse id="XMLID_172_" class="st2" cx="150.2" cy="178" rx="8.5" ry="5"/></g><g id="XMLID_133_"><path id="XMLID_147_" class="st1" d="M215.2 71c-1.4-.6-3.1-1-5-1-2.2 0-4.3.5-5.8 1.4l-2.7-1.4v5c0 2.8 3.8 5 8.5 5 2.9 0 5.5-.9 7-2.2-1.2-5.7-2-6.8-2-6.8z"/><path id="XMLID_146_" class="st2" d="M216.2 73.5c-1.5.9-3.7 1.5-6 1.5-4.7 0-8.5-2.2-8.5-5s3.8-5 8.5-5c1.2 0 2.3.1 3.3.4l2.7 8.1z"/><path id="XMLID_145_" class="st1" d="M195.2 83c-1.4-.6-3.1-1-5-1-2.2 0-4.3.5-5.8 1.4l-2.7-1.4v5c0 2.8 3.8 5 8.5 5 4.1 0 7.7-1.7 8.5-4v-6l-3.5 1z"/><ellipse id="XMLID_136_" class="st2" cx="190.2" cy="82" rx="8.5" ry="5"/><path id="XMLID_135_" class="st1" d="M175.2 96c-1.4-.6-3.1-1-5-1-2.2 0-4.3.5-5.8 1.4l-2.7-1.4v5c0 2.8 3.8 5 8.5 5 4.1 0 7.7-1.7 8.5-4v-6l-3.5 1z"/><ellipse id="XMLID_134_" class="st2" cx="170.2" cy="95" rx="8.5" ry="5"/></g><g id="XMLID_155_"><path id="XMLID_159_" class="st1" d="M195.2 37c-1.4-.6-3.1-1-5-1-2.2 0-4.3.5-5.8 1.4l-2.7-1.4v5c0 2.8 3.8 5 8.5 5 4.1 0 7.7-1.7 8.5-4v-3l-2-2.5-1.5.5z"/><path id="XMLID_158_" class="st2" d="M197.8 37.9c-1.3 1.8-4.1 3.1-7.6 3.1-4.7 0-8.5-2.2-8.5-5s3.8-5 8.5-5c.5 0 1.1 0 1.6.1l6 6.8z"/><path id="XMLID_157_" class="st1" d="M175.2 50c-1.4-.6-3.1-1-5-1-2.2 0-4.3.5-5.8 1.4l-2.7-1.4v5c0 2.8 3.8 5 8.5 5 4.1 0 7.7-1.7 8.5-4v-6l-3.5 1z"/><ellipse id="XMLID_156_" class="st2" cx="170.2" cy="49" rx="8.5" ry="5"/></g><g id="XMLID_18_"><path id="XMLID_94_" class="st1" d="M116.2 12c-1.4-.6-3.1-1-5-1-2.2 0-4.3.5-5.8 1.4l-2.7-1.4v5c0 2.8 3.8 5 8.5 5 4.1 0 7.6-1.7 8.3-4h.2v-6l-3.5 1z"/><ellipse id="XMLID_93_" class="st2" cx="111.2" cy="11" rx="8.5" ry="5"/><path id="XMLID_92_" class="st1" d="M96.2 25c-1.4-.6-3.1-1-5-1-2.2 0-4.3.5-5.8 1.4L82.7 24v5c0 2.8 3.8 5 8.5 5 4.1 0 7.6-1.7 8.3-4h.2v-6l-3.5 1z"/><ellipse id="XMLID_91_" class="st2" cx="91.2" cy="24" rx="8.5" ry="5"/><path id="XMLID_90_" class="st1" d="M76.2 37c-1.4-.6-3.1-1-5-1-2.2 0-4.3.5-5.8 1.4L62.7 36v5c0 2.8 3.8 5 8.5 5 4.1 0 7.7-1.7 8.5-4v-6l-3.5 1z"/><ellipse id="XMLID_89_" class="st2" cx="71.2" cy="36" rx="8.5" ry="5"/><path id="XMLID_88_" class="st1" d="M56.2 49c-1.4-.6-3.1-1-5-1-2.2 0-4.3.5-5.8 1.4L42.7 48v5c0 2.8 3.8 5 8.5 5 4.1 0 7.7-1.7 8.5-4v-6l-3.5 1z"/><ellipse id="XMLID_87_" class="st2" cx="51.2" cy="48" rx="8.5" ry="5"/><path id="XMLID_86_" class="st1" d="M36.2 62c-1.4-.6-3.1-1-5-1-.5 0-1.4-.4-1.6.1-.4 1.2-3.3 8.9-3.3 8.9 1.4.6 3 1 4.9 1 4.1 0 7.6-1.7 8.3-4h.2v-6l-3.5 1z"/><path id="XMLID_85_" class="st2" d="M39.7 61c0 2.8-3.8 5-8.5 5-1.2 0-2.3-.1-3.3-.4 0 0 3.8-9.6 4.1-9.6 4.3.3 7.7 2.4 7.7 5z"/><path id="XMLID_84_" class="st1" d="M125.4 1.4l-2.7-.4v4c0 2.8 3.8 5 8.5 5 4.1 0 7.7-1.7 8.5-4V2.8c-1.2-.3-13.1-2-14.3-1.4z"/><path id="XMLID_83_" class="st2" d="M138.4 2.6C136.9 4 134.2 5 131.2 5c-4.1 0-7.5-1.7-8.3-4-.2-.3 15.5 1.6 15.5 1.6z"/></g><path id="XMLID_82_" class="st1" d="M36.2 108c-1.4-.6-3.1-1-5-1-2.2 0-4.3.5-5.8 1.4l-2.7-1.4v5c0 2.8 3.8 5 8.5 5 4.1 0 7.7-1.7 8.5-4v-6l-3.5 1z"/><ellipse id="XMLID_21_" class="st2" cx="31.2" cy="107" rx="8.5" ry="5"/><path id="XMLID_111_" class="st1" d="M36.2 132c-1.4-.6-3.1-1-5-1-1.6 0-3.1.3-4.3.7l3.7 9.3h.6c4.1 0 7.7-1.7 8.5-4v-6l-3.5 1z"/><path id="XMLID_108_" class="st2" d="M39.7 131c0 2.8-3.8 5-8.5 5-1 0-2-.1-2.9-.3l-2.8-8.4c1.5-.8 3.5-1.3 5.7-1.3 4.7 0 8.5 2.2 8.5 5z"/><path id="XMLID_113_" class="st1" d="M56.2 120c-1.4-.6-3.1-1-5-1-2.2 0-4.3.5-5.8 1.4l-2.7-1.4v5c0 2.8 3.8 5 8.5 5 4.1 0 7.6-1.7 8.3-4h.2v-6l-3.5 1z"/><ellipse id="XMLID_112_" class="st2" cx="51.2" cy="119" rx="8.5" ry="5"/><path id="XMLID_115_" class="st1" d="M56.2 144c-1.4-.6-3.1-1-5-1-2.2 0-4.3.5-5.8 1.4l-2.7-1.4v5c0 2.8 3.8 5 8.5 5 4.1 0 7.7-1.7 8.5-4v-6l-3.5 1z"/><ellipse id="XMLID_114_" class="st2" cx="51.2" cy="143" rx="8.5" ry="5"/><path id="XMLID_117_" class="st1" d="M56.2 168c-1.4-.6-3.1-1-5-1-1.1 0-3.7-.4-3.1.3.3.3 8.3 8.5 8.8 8.4 1.5-.7 2.4-1.6 2.8-2.7v-6l-3.5 1z"/><path id="XMLID_116_" class="st2" d="M59.7 167c0 2.4-2.9 4.4-6.8 4.9-2.5-2-5.2-4.9-8-8.2 1.6-1 3.8-1.7 6.3-1.7 4.7 0 8.5 2.2 8.5 5z"/><path id="XMLID_119_" class="st1" d="M76.2 132c-1.4-.6-3.1-1-5-1-2.2 0-4.3.5-5.8 1.4l-2.7-1.4v5c0 2.8 3.8 5 8.5 5 4.1 0 7.7-1.7 8.5-4v-6l-3.5 1z"/><ellipse id="XMLID_118_" class="st2" cx="71.2" cy="131" rx="8.5" ry="5"/><path id="XMLID_121_" class="st1" d="M76.2 156c-1.4-.6-3.1-1-5-1-2.2 0-4.3.5-5.8 1.4l-2.7-1.4v5c0 2.8 3.8 5 8.5 5 4.1 0 7.7-1.7 8.5-4v-6l-3.5 1z"/><ellipse id="XMLID_120_" class="st2" cx="71.2" cy="155" rx="8.5" ry="5"/><path id="XMLID_123_" class="st1" d="M76.2 180c-1.4-.6-3.1-1-5-1-2.2 0-4.3.5-5.8 1.4l-2.7-1.4s0 1.2.4 1.5 8.7 5.8 12.6 7.7c2.1-.7 3.5-1.8 4-3.2v-6l-3.5 1z"/><path id="XMLID_122_" class="st2" d="M79.7 179c0 2.8-3.8 5-8.5 5-1.3 0-4.8-.8-3.7-.5s-4.4-3-4.4-3c-.3-.5-.4-1-.4-1.5 0-2.8 3.8-5 8.5-5s8.5 2.2 8.5 5z"/><path id="XMLID_125_" class="st1" d="M96.2 168c-1.4-.6-3.1-1-5-1-2.2 0-4.3.5-5.8 1.4l-2.7-1.4v5c0 2.8 3.8 5 8.5 5 4.1 0 7.7-1.7 8.5-4v-6l-3.5 1z"/><ellipse id="XMLID_124_" class="st2" cx="91.2" cy="167" rx="8.5" ry="5"/><path id="XMLID_127_" class="st1" d="M96.2 144c-1.4-.6-3.1-1-5-1-2.2 0-4.3.5-5.8 1.4l-2.7-1.4v5c0 2.8 3.8 5 8.5 5 4.1 0 7.6-1.7 8.3-4h.2v-6l-3.5 1z"/><ellipse id="XMLID_126_" class="st2" cx="91.2" cy="143" rx="8.5" ry="5"/><path id="XMLID_129_" class="st1" d="M96.2 190c-1.4-.6-3.1-1-5-1-2.2 0-4.3.5-5.8 1.4l-2.7-1.4-.2 2.4c5.7 2.2 11.2 4.1 15.8 5.1.7-.4 1.3-.9 1.4-1.5v-6l-3.5 1z"/><path id="XMLID_128_" class="st2" d="M99.7 189c0 2.8-3.8 5-8.5 5-2.9 0-8.5-2.2-8.5-5s3.8-5 8.5-5 8.5 2.2 8.5 5z"/><path id="XMLID_161_" class="st1" d="M175.2 25c-1.4-.6-3.1-1-5-1-2.2 0-4.3.5-5.8 1.4l-2.7-1.4v5c0 2.8 3.8 5 8.5 5 4.1 0 7.7-1.7 8.5-4v-6l-3.5 1z"/><ellipse id="XMLID_160_" class="st2" cx="170.2" cy="24" rx="8.5" ry="5"/><path id="XMLID_131_" class="st1" d="M116.2 178c-1.4-.6-3.1-1-5-1-2.2 0-4.3.5-5.8 1.4l-2.7-1.4v5c0 2.8 3.8 5 8.5 5 4.1 0 7.7-1.7 8.5-4v-6l-3.5 1z"/><ellipse id="XMLID_130_" class="st2" cx="111.2" cy="177" rx="8.5" ry="5"/><path id="XMLID_181_" class="st1" d="M136.2 191c-1.4-.6-3.1-1-5-1-2.2 0-4.3.5-5.8 1.4l-2.7-1.4v5c0 1.6 1.2 3 3.1 3.9 3.7-.1 8.1-.7 12.9-1.5.4-.4.9-.9 1-1.4v-6l-3.5 1z"/><ellipse id="XMLID_180_" class="st2" cx="131.2" cy="190" rx="8.5" ry="5"/><path id="XMLID_101_" class="st1" d="M56.2 96c-1.4-.6-3.1-1-5-1-2.2 0-4.3.5-5.8 1.4L42.7 95v5c0 2.8 3.8 5 8.5 5 4.1 0 7.6-1.7 8.3-4h.2v-6l-3.5 1z"/><ellipse id="XMLID_95_" class="st2" cx="51.2" cy="95" rx="8.5" ry="5"/><path id="XMLID_103_" class="st1" d="M56.2 25c-.9.5-8.8 8.5-8.8 8.5 1.1.3 2.4.5 3.8.5 4.1 0 7.7-1.7 8.5-4v-6l-3.5 1z"/><path id="XMLID_102_" class="st2" d="M59.7 24c0 2.8-2.8 5-7.8 5l7.3-6.6c.2.5.5 1 .5 1.6z"/><path id="XMLID_105_" class="st1" d="M76.2 13c-.5-.2-1.1-.4-1.7-.6-4.2 2.4-8.2 4.7-11 6.8 1.3 1.8 4.1 2.8 7.7 2.8 4.1 0 7.7-1.7 8.5-4v-6l-3.5 1z"/><path id="XMLID_104_" class="st2" d="M79.7 12c0 2.8-3.8 5-8.5 5-1.3 0-2.6-.2-3.7-.5 3.6-2.3 7.5-4.4 11.5-6.4.4.6.7 1.2.7 1.9z"/><path id="XMLID_107_" class="st1" d="M83.5 8.2c1.3 1.8 4.1 2.8 7.7 2.8 4.1 0 7.7-1.7 8.5-4V3.2c-6.5 1.7-12.7 3.4-16.2 5z"/><circle id="XMLID_27_" class="st3" cx="113.4" cy="36.8" r="21.8"/><g id="XMLID_24_"><path id="XMLID_220_" class="st4" d="M119.3 59.4l-2.1-3.4c8-4.8 13.7-15.3 7.2-26.7-6.5-11.5-18.3-12.1-26.6-7.6 1.7-1.9 4.4-3.7 7.2-4.9 6.3-2.7 13.8.3 17.2 3.2 3 2.6 4.3 4.8 5.8 7.4 5.3 9.6 5 23.8-8.7 32z"/></g><path id="XMLID_245_" class="st5" d="M133.4 28.1c-1.5 5.3-5 10.1-10.2 13-10.5 6-23.8 2.4-29.8-8.1-.3-.5-1-1.8-1.1-1.9-1.5 5.4-.9 11.4 2.1 16.6 6 10.5 19.3 14.1 29.8 8.1 9.8-5.7 13.6-17.6 9.2-27.7z"/><g id="XMLID_242_"><path id="XMLID_243_" class="st6" d="M119.3 59.4l-2.1-3.4c5.9-3.5 10.5-10.1 10-17.8l3.4-3.9c1.9 8.6-.6 18.7-11.3 25.1z"/></g><path id="XMLID_26_" class="st7" d="M104.4 58.2L52.8 88.9c-6.2 3.7-14.2 1.7-17.9-4.5-3.7-6.2-1.7-14.2 4.5-17.9L91 35.8c6.2-3.7 14.2-1.7 17.9 4.5 3.7 6.2 1.7 14.2-4.5 17.9z"/><path id="XMLID_246_" class="st8" d="M110.4 44l-55 32.7c-2.6 1.5-9.6 6.7-12.7 4.8-6.2 3.7-11.5-3.2-7.8 3 3.1 5.2 9.3 7.5 14.9 5.8-.3.2.7-.2.7-.2l.3-.2c.7-.3 1.4-.6 2-1l51.6-30.7c5-3 7.3-8.8 6-14.2z"/><path id="XMLID_106_" class="st2" d="M98.5 3.5C97.1 5 94.3 6 91.2 6c-.6 0-1.1 0-1.6-.1l8.9-2.4z"/><g id="XMLID_81_"><path id="XMLID_43_" class="st9" d="M73.1 122.2l-19.3-11.4V86.7L73.1 98z"/><path id="XMLID_3_" class="st10" d="M73.1 98v24.2l19.1 11.5 19.5 11.4.2-24.3z"/><path id="XMLID_44_" class="st11" d="M149.9 122.5l-38.1 22.6v-24.4l38.1-22.6z"/><path id="XMLID_75_" class="st8" d="M168.9 111.2l-19 11.3V98.1l19-11.3z"/><path id="XMLID_76_" class="st9" d="M149.3 77.1l-19 11.3V64.1l19-11.4z"/><path id="XMLID_77_" class="st8" d="M168.4 65.7L149.3 77V52.6l19.1-11.3z"/><path id="XMLID_45_" class="st12" d="M92.2 86.8l-19 11.3-19.4-11.4 19-11.3z"/><path id="XMLID_65_" class="st13" d="M111.6 98.2L92.2 86.8l19.4-11.6z"/><path id="XMLID_79_" class="st8" d="M130.6 86.8l-19 11.4V75.4z"/><path id="XMLID_73_" class="st12" d="M149.5 52.7l-19.2 11.4-19.4-11.4 19.2-11.4z"/><path id="XMLID_74_" class="st7" d="M168.4 41.3l-18.9 11.4-19.4-11.4L149.2 30z"/><path id="XMLID_4_" class="st7" d="M130.2 64.1l-18.8 11.3 38.5 23 19-11.6z"/><path id="XMLID_25_" class="st14" d="M149.9 98.4l-19.3-11.6-19 11.4-19.4-11.5-19 11.4 38.7 22.7z"/><path id="XMLID_69_" class="st15" d="M130.3 64.1l-19.4-11.4-38.1 22.7 19.4 11.4z"/><path id="XMLID_66_" class="st10" d="M131.7 179.1l-38.8-22.7v-24.2l38.8 22.7z"/><path id="XMLID_80_" class="st14" d="M111.9 120.8l-19 11.4 28.9 17-2.1 13.1 12-7.4 19-11.3z"/><path id="XMLID_78_" class="st11" d="M150.7 167.9l-31 18.8v-24.4l31-18.8z"/></g><g id="XMLID_15_"><path id="XMLID_183_" class="st13" d="M96.2 71c-1.4-.6-3.1-1-5-1-2.2 0-4.3.5-5.8 1.4L82.7 70v5c0 2.8 3.8 5 8.5 5 4.1 0 7.7-1.7 8.5-4v-6l-3.5 1z"/><ellipse id="XMLID_182_" class="st16" cx="91.2" cy="70" rx="8.5" ry="5"/></g><g id="XMLID_187_"><path id="XMLID_189_" class="st13" d="M116.2 59c-1.4-.6-3.1-1-5-1-2.2 0-4.3.5-5.8 1.4l-2.7-1.4v5c0 2.8 3.8 5 8.5 5 4.1 0 7.7-1.7 8.5-4v-6l-3.5 1z"/><ellipse id="XMLID_188_" class="st16" cx="111.2" cy="58" rx="8.5" ry="5"/></g><g id="XMLID_186_"><path id="XMLID_191_" class="st9" d="M136.2 47c-1.4-.6-3.1-1-5-1-2.2 0-4.3.5-5.8 1.4l-2.7-1.4v5c0 2.8 3.8 5 8.5 5 4.1 0 7.7-1.7 8.5-4v-6l-3.5 1z"/><ellipse id="XMLID_190_" class="st17" cx="131.2" cy="46" rx="8.5" ry="5"/></g><g id="XMLID_193_"><path id="XMLID_195_" class="st9" d="M78.2 82c-1.4-.6-3.1-1-5-1-2.2 0-4.3.5-5.8 1.4L64.7 81v5c0 2.8 3.8 5 8.5 5 4.1 0 7.7-1.7 8.5-4v-6l-3.5 1z"/><ellipse id="XMLID_194_" class="st17" cx="73.2" cy="81" rx="8.5" ry="5"/></g><g id="XMLID_192_"><path id="XMLID_197_" class="st8" d="M156.2 83c-1.4-.6-3.1-1-5-1-2.2 0-4.3.5-5.8 1.4l-2.7-1.4v5c0 2.8 3.8 5 8.5 5 4.1 0 7.7-1.7 8.5-4v-6l-3.5 1z"/><ellipse id="XMLID_196_" class="st18" cx="151.2" cy="82" rx="8.5" ry="5"/></g><g id="XMLID_202_"><path id="XMLID_204_" class="st8" d="M136.2 71c-1.4-.6-3.1-1-5-1-2.2 0-4.3.5-5.8 1.4l-2.7-1.4v5c0 2.8 3.8 5 8.5 5 4.1 0 7.7-1.7 8.5-4v-6l-3.5 1z"/><ellipse id="XMLID_203_" class="st18" cx="131.2" cy="70" rx="8.5" ry="5"/></g><g id="XMLID_199_"><path id="XMLID_201_" class="st8" d="M156.2 36c-1.4-.6-3.1-1-5-1-2.2 0-4.3.5-5.8 1.4l-2.7-1.4v5c0 2.8 3.8 5 8.5 5 4.1 0 7.7-1.7 8.5-4v-6l-3.5 1z"/><ellipse id="XMLID_200_" class="st18" cx="151.2" cy="35" rx="8.5" ry="5"/></g><g id="XMLID_198_"><path id="XMLID_206_" class="st11" d="M96.2 93c-1.4-.6-3.1-1-5-1-2.2 0-4.3.5-5.8 1.4L82.7 92v5c0 2.8 3.8 5 8.5 5 4.1 0 7.7-1.7 8.5-4v-6l-3.5 1z"/><ellipse id="XMLID_205_" class="st19" cx="91.2" cy="92" rx="8.5" ry="5"/></g><g id="XMLID_208_"><path id="XMLID_210_" class="st11" d="M116.2 105c-1.4-.6-3.1-1-5-1-2.2 0-4.3.5-5.8 1.4l-2.7-1.4v5c0 2.8 3.8 5 8.5 5 4.1 0 7.7-1.7 8.5-4v-6l-3.5 1z"/><ellipse id="XMLID_209_" class="st19" cx="111.2" cy="104" rx="8.5" ry="5"/></g><g id="XMLID_211_"><path id="XMLID_213_" class="st11" d="M116.2 127c-1.4-.6-3.1-1-5-1-2.2 0-4.3.5-5.8 1.4l-2.7-1.4v5c0 2.8 3.8 5 8.5 5 4.1 0 7.6-1.7 8.3-4h.2v-6l-3.5 1z"/><ellipse id="XMLID_212_" class="st19" cx="111.2" cy="126" rx="8.5" ry="5"/></g><g id="XMLID_214_"><path id="XMLID_216_" class="st11" d="M136.2 93c-1.4-.6-3.1-1-5-1-2.2 0-4.3.5-5.8 1.4l-2.7-1.4v5c0 2.8 3.8 5 8.5 5 4.1 0 7.7-1.7 8.5-4v-6l-3.5 1z"/><ellipse id="XMLID_215_" class="st19" cx="131.2" cy="92" rx="8.5" ry="5"/></g><g id="XMLID_217_"><path id="XMLID_219_" class="st11" d="M136.2 139c-1.4-.6-3.1-1-5-1-2.2 0-4.3.5-5.8 1.4l-2.7-1.4v5c0 2.8 3.8 5 8.5 5 4.1 0 7.6-1.7 8.3-4h.2v-6l-3.5 1z"/><ellipse id="XMLID_218_" class="st19" cx="131.2" cy="138" rx="8.5" ry="5"/></g><path id="XMLID_6_" class="st3" d="M28.5 88.5c-1.7-2.9-.7-6.5 2.1-8.2l3.4-2c2.9-1.7 6.5-.7 8.2 2.1 1.7 2.9.7 6.5-2.1 8.2l-3.4 2c-2.9 1.7-6.6.8-8.2-2.1z"/><g id="XMLID_207_"><ellipse id="XMLID_221_" transform="rotate(153.909 83.014 114.8)" class="st20" cx="83" cy="114.8" rx="4" ry="6.8"/></g><path id="XMLID_247_" class="st5" d="M40.4 83.7l-3.4 2c-2.9 1.7-6.5.7-8.2-2.1-.2-.3-.3-.6-.4-.9-.9 1.8-.9 3.9.2 5.8 1.7 2.9 5.4 3.8 8.2 2.1l3.4-2c2.6-1.5 3.6-4.6 2.5-7.3-.5 1-1.3 1.8-2.3 2.4z"/><path id="XMLID_226_" class="st21" d="M85.4 113.7c-.9-1.7-2.1-3-3.4-3.4-.1 0-.2-.1-.3-.1-.1 0-.2 0-.3-.1h-.3c-.2 0-.3 0-.5.1-.1 0-.3.1-.4.1s-.1.1-.2.1l-10 6 4.2 9.7 10.6-6.3c1.7-.7 1.9-3.5.6-6.1z"/><path id="XMLID_2_" class="st5" d="M86 115.3l-10.6 6.3c-.1-.6-.3-1.1-.6-1.7-1.3-2.6-3.6-4.2-5.2-3.4-1.6.8-1.8 3.5-.5 6.2 1.3 2.6 3.6 4.2 5.2 3.4.1-.1.2-.1.3-.2l10.4-6.2c1.3-.7 1.5-2.7 1-4.4z"/><g id="XMLID_236_"><path id="XMLID_238_" class="st22" d="M40.7 131.1h-1.9c-12.1-.4-21.9-4.9-26.2-12-4.9-8.2-3.1-21.2 16.6-33.2.9-.6 2.2-.3 2.7.7s.3 2.2-.7 2.7C16.8 98.1 11 108.7 16 117c6 9.9 27.3 15.3 54.1 3.2l.6-.3c1.3-.5 2.6 3 1.5 3.7-.1.1-.2.1-.3.1-12.9 5.9-23.6 7.4-31.2 7.4z"/></g><g id="XMLID_148_"><path id="XMLID_154_" class="st1" d="M204.4 47.4l-2.7-1.4v5c0 2.6 3.4 4.7 7.7 5 .2 0-4.2-7.7-5-8.6z"/><path id="XMLID_153_" class="st2" d="M206.7 51c-2.8-.8-5-3-5-5 0-.7.1-2.4.7-1.9 1 .9 4.3 6.9 4.3 6.9z"/><path id="XMLID_152_" class="st1" d="M195.2 59c-1.4-.6-3.1-1-5-1-2.2 0-4.3.5-5.8 1.4l-2.7-1.4v5c0 2.8 3.8 5 8.5 5 4.1 0 7.7-1.7 8.5-4v-6l-3.5 1z"/><ellipse id="XMLID_151_" class="st2" cx="190.2" cy="58" rx="8.5" ry="5"/><path id="XMLID_150_" class="st1" d="M175.2 72c-1.4-.6-3.1-1-5-1-2.2 0-4.3.5-5.8 1.4l-2.7-1.4v5c0 2.8 3.8 5 8.5 5 4.1 0 7.7-1.7 8.5-4v-6l-3.5 1z"/><ellipse id="XMLID_149_" class="st2" cx="170.2" cy="71" rx="8.5" ry="5"/></g></svg>