<svg xmlns="http://www.w3.org/2000/svg" viewBox="0 0 1288 242"><path d="M16.27 10.128c35.312.046 70.638-.484 105.933.325 27.207.624 48.524 19.104 53.113 44.346 5.194 28.574-9.632 52.972-32.504 59.519-.581.166-1.054.705-1.835 1.25 21.801 6.241 34.815 20.671 38.478 42.289 6.042 35.67-13.632 64.981-50.803 69.127-8.244.919-16.615.895-24.929.938-29.15.155-58.301.15-87.452.206l-.001-218zm46.945 176.381c.606.208 1.21.596 1.814.597 14.632.024 29.29.542 43.89-.15 15.108-.717 24.091-10.002 24.492-23.685.403-13.748-7.895-23.664-22.692-25.44-9.352-1.123-18.906-.609-28.37-.741-6.271-.087-12.545-.016-19.134-.016v49.435zm-.32-89.998c13.64 0 26.591.023 39.542-.02 2.492-.009 5.041.012 7.465-.476 9.145-1.836 16.032-6.525 18.427-16.057 3.819-15.197-5.867-28.326-21.591-29.105-7.311-.361-14.652-.1-21.98-.107-7.106-.009-14.213-.002-21.541-.002-.145 1.574-.31 2.534-.311 3.494-.017 13.805-.011 27.61-.011 42.273zM858.27 232.128c-5.52-1.027-11.098-1.814-16.551-3.121-42.695-10.233-64.45-46.982-60.719-87.586 3.125-33.999 20.263-58.855 52.909-70.362 45.576-16.066 98.43 5.625 106.229 66.268 1.03 8.012.979 16.163 1.469 24.969h-117.7c2.728 14.941 10.262 25.421 23.4 30.992 21.348 9.054 41.347 4.541 60.203-7.595 1.114-.717 2.142-1.569 3.225-2.339.107-.076.317-.01 1.072-.01 5.769 8.491 11.725 17.26 18.418 27.114-6.071 3.787-11.672 7.891-17.79 10.966-11.254 5.655-23.354 8.653-35.927 9.7-1.431.119-2.827.659-4.239 1.004H858.27zm42.711-98.528c.819-19.579-17.835-34.531-41.453-33.599-19.647.775-37.111 17.412-35.014 33.599h76.467zm126.289 98.528c-6.792-1.367-13.695-2.333-20.358-4.171-31.82-8.778-53.77-35.685-56.658-68.573-2.726-31.021 6.266-57.311 31.168-76.881 37.736-29.655 111.897-22.928 126.628 47.237 1.056 5.028 1.676 10.188 1.994 15.318.339 5.448.076 10.934.076 17.236H993.191c1.017 8.77 4.424 15.823 10.075 21.656 12.933 13.348 29.072 15.86 46.51 12.8 11.114-1.951 21.372-6.172 30.603-14.082l18.824 27.594c-4.9 3.279-9.34 6.747-14.217 9.415-12.122 6.632-25.242 10.131-38.98 11.417-1.597.149-3.157.68-4.735 1.033l-14.001.001zm-33.8-98.556h76.544c.984-18.977-17.23-34.052-40.117-33.605-20.309.395-37.89 16.457-36.427 33.605zm-740.2 98.556c-5.002-1.024-10.037-1.911-15.001-3.095-30.748-7.328-48.911-30.344-48.938-61.982-.025-30.327-.005-60.653-.005-90.98v-5.434h41.561v5.791c0 28.661.084 57.321-.038 85.981-.056 13 3.92 24.009 16.239 29.666 13.35 6.131 27.023 5.908 39.374-2.889 9.046-6.442 11.604-16.301 11.623-26.895.054-28.494.019-56.988.019-85.481v-6.266h41.111l.001 5.617c0 29.994.014 59.988-.004 89.981-.021 36.194-22.548 61.073-58.651 64.866-1.782.187-3.527.737-5.29 1.118-7.334.002-14.668.002-22.001.002zm392.438-4.5V10.275h151.178v21.084c0 4.666-.313 9.359.088 13.991.398 4.612-1.454 5.507-5.698 5.483-29.829-.17-59.66-.09-89.49-.09h-9.435v45.768h5.63c22.498 0 44.997.129 67.492-.107 4.548-.047 5.612 1.399 5.508 5.693-.279 11.452-.096 22.915-.096 34.941h-78.873v90.589l-46.304.001zm474.945-.085v-5.718c0-48.641-.001-97.281.002-145.923 0-6.385.007-6.441 6.597-6.38 22.81.21 45.713-.762 68.404.995 32.335 2.502 57.642 17.065 69.623 48.983 12.175 32.433 2.895 69.45-21.844 89.729-14.575 11.947-31.726 17.829-50.199 18.496-23.457.848-46.966.267-70.452.285-.477.001-.955-.201-2.131-.467zm39.636-33.36c7.967 0 15.426.002 22.884 0 26.839-.008 43.738-15.133 46.746-41.838 2.159-19.174-8.212-38.245-24.729-45.016-14.549-5.962-29.748-2.792-44.9-3.635l-.001 90.489zM423 106.14h-70.419V70.474h127.305c0 6.729-.338 13.491.099 20.205.402 6.189-1.482 10.97-5.388 15.829-21.173 26.348-42.012 52.961-62.96 79.488-1.124 1.423-2.193 2.889-3.944 5.201h73.038v36.351H352.194c0-9.929-.145-19.854.138-29.768.049-1.702 1.759-3.475 2.964-5.009 21.491-27.371 43.025-54.707 64.537-82.062.896-1.141 1.66-2.387 3.167-4.569zm69.108.04c0-11.255-.01-21.572.014-31.89.002-1.138.191-2.276.325-3.752h126.912c0 9.589.105 19.024-.112 28.452-.033 1.421-1.434 2.918-2.438 4.193-21.853 27.732-43.741 55.436-65.61 83.155-1.08 1.369-2.044 2.831-3.726 5.173h6.371c20.658 0 41.317.086 61.975-.075 3.838-.03 5.271.913 5.159 5.004-.281 10.289-.093 20.591-.093 31.199H492.231c0-10.276-.082-20.38.104-30.479.023-1.265 1.351-2.588 2.256-3.74 20.985-26.72 41.997-53.418 63-80.124 1.604-2.041 3.174-4.109 5.495-7.117l-70.978.001z" fill="#EE3624"/></svg>
