<svg xmlns="http://www.w3.org/2000/svg" viewBox="0 0 300 300"><style>.st0{fill:#fbc410}.st1{fill:#9d9d9d}.st2{fill:#b9b8b9}.st3{fill:#fcc70e}.st4{fill:#f04d4c}.st5{fill:#96c93d}.st6{fill:#262124}.st7{fill:#fff}</style><path id="XMLID_72_" class="st0" d="M227.7 117H72.3C60 117 50 126.5 50 138v130.2c0 11.5 10 20.8 22.3 20.8h155.4c12.3 0 22.3-9.3 22.3-20.8V138c0-11.5-10-21-22.3-21zm6.3 147.2c0 5.6-4.6 9.8-10.6 9.8H76.6c-6 0-10.6-4.2-10.6-9.8V144.1c0-5.6 4.5-10.1 10.6-10.1h146.8c6 0 10.6 4.5 10.6 10.1v120.1z"/><g id="XMLID_53_"><path id="XMLID_71_" class="st1" d="M76 155h148v6H76z"/><g id="XMLID_54_"><path id="XMLID_70_" class="st2" d="M134 155h4v6h-4z"/><path id="XMLID_69_" class="st2" d="M143 155h4v6h-4z"/><path id="XMLID_68_" class="st2" d="M152 155h4v6h-4z"/><path id="XMLID_67_" class="st2" d="M161 155h4v6h-4z"/><path id="XMLID_66_" class="st2" d="M170 155h4v6h-4z"/><path id="XMLID_65_" class="st2" d="M89 155h4v6h-4z"/><path id="XMLID_64_" class="st2" d="M80 155h4v6h-4z"/><path id="XMLID_63_" class="st2" d="M98 155h4v6h-4z"/><path id="XMLID_62_" class="st2" d="M107 155h4v6h-4z"/><path id="XMLID_61_" class="st2" d="M116 155h4v6h-4z"/><path id="XMLID_60_" class="st2" d="M125 155h4v6h-4z"/><path id="XMLID_59_" class="st2" d="M179 155h4v6h-4z"/><path id="XMLID_58_" class="st2" d="M188 155h4v6h-4z"/><path id="XMLID_57_" class="st2" d="M197 155h4v6h-4z"/><path id="XMLID_56_" class="st2" d="M206 155h4v6h-4z"/><path id="XMLID_55_" class="st2" d="M215 155h4v6h-4z"/></g></g><g id="XMLID_34_"><path id="XMLID_52_" class="st1" d="M76 142h148v6H76z"/><g id="XMLID_35_"><path id="XMLID_51_" class="st2" d="M134 142h4v6h-4z"/><path id="XMLID_50_" class="st2" d="M143 142h4v6h-4z"/><path id="XMLID_49_" class="st2" d="M152 142h4v6h-4z"/><path id="XMLID_48_" class="st2" d="M161 142h4v6h-4z"/><path id="XMLID_47_" class="st2" d="M170 142h4v6h-4z"/><path id="XMLID_46_" class="st2" d="M89 142h4v6h-4z"/><path id="XMLID_45_" class="st2" d="M80 142h4v6h-4z"/><path id="XMLID_44_" class="st2" d="M98 142h4v6h-4z"/><path id="XMLID_43_" class="st2" d="M107 142h4v6h-4z"/><path id="XMLID_42_" class="st2" d="M116 142h4v6h-4z"/><path id="XMLID_41_" class="st2" d="M125 142h4v6h-4z"/><path id="XMLID_40_" class="st2" d="M179 142h4v6h-4z"/><path id="XMLID_39_" class="st2" d="M188 142h4v6h-4z"/><path id="XMLID_38_" class="st2" d="M197 142h4v6h-4z"/><path id="XMLID_37_" class="st2" d="M206 142h4v6h-4z"/><path id="XMLID_36_" class="st2" d="M215 142h4v6h-4z"/></g></g><g id="XMLID_30_"><path id="XMLID_33_" class="st3" d="M111 142h28v19h-28z"/><path id="XMLID_32_" class="st4" d="M115 161h20v6h-20z"/><path id="XMLID_31_" class="st3" d="M121 167h8v6h-8z"/></g><path id="XMLID_29_" class="st1" d="M134 258h32v16h-32z"/><path id="XMLID_28_" class="st2" d="M134 263h32v6h-32z"/><g id="XMLID_21_"><path id="XMLID_27_" class="st5" d="M107 197h86v51h-86z"/><path id="XMLID_26_" class="st5" d="M119 191h17v6h-17z"/><path id="XMLID_25_" class="st5" d="M131 187h5v5h-5z"/><path id="XMLID_24_" class="st5" d="M119 189h5v5h-5z"/><path id="XMLID_23_" class="st5" d="M126 189h5v5h-5z"/><path id="XMLID_22_" class="st5" d="M164 187h17v10h-17z"/></g><path id="XMLID_20_" class="st5" d="M122 180c0-1.7 3.1-4 3.1-6 1 2 2.9 4.4 2.9 6s-1.4 3-3 3-3-1.4-3-3z"/><path id="XMLID_19_" class="st6" d="M121 134h8v8h-8z"/><path id="XMLID_18_" class="st1" d="M222 167v-33h2c5.6.2 10 3.6 10 7.8V167h-12z"/><path id="XMLID_17_" class="st1" d="M78 167v-33h-2c-5.6.2-10 3.6-10 7.8V167h12z"/><circle id="XMLID_16_" class="st6" cx="77.5" cy="151.5" r="9.5"/><circle id="XMLID_15_" class="st2" cx="77.5" cy="151.5" r="4.5"/><circle id="XMLID_14_" class="st6" cx="222.5" cy="151.5" r="9.5"/><circle id="XMLID_13_" class="st2" cx="222.5" cy="151.5" r="4.5"/><g id="XMLID_6_"><path id="XMLID_12_" class="st6" d="M123 117.8v6.7c0 2.5 1.8 4.5 4.1 4.5H174c2.3 0 4.1-2 4.1-4.5v-6.7c0-.3 0-.6-.1-.8h-54.8c-.2.3-.2.5-.2.8z"/><path id="XMLID_11_" class="st5" d="M127 121h4v4h-4z"/><path id="XMLID_10_" class="st5" d="M135 121h4v4h-4z"/><path id="XMLID_9_" class="st5" d="M143 121h4v4h-4z"/><path id="XMLID_8_" class="st1" d="M151 121h4v4h-4z"/><path id="XMLID_7_" class="st4" d="M170 121h4v4h-4z"/></g><g id="XMLID_3_"><path id="XMLID_5_" class="st7" d="M141 217h6v4h4.1c1.6 0 3.1.5 3.1 2 0 1.1-.1 2.8 0 4 0 1.5-1.6 3-3.2 3h-10v-13z"/><path id="XMLID_4_" class="st7" d="M153 232v-2h8v2h-8z"/></g><path id="XMLID_2_" class="st4" d="M84 248h134v10H84z"/></svg>