<svg xmlns="http://www.w3.org/2000/svg" viewBox="0 0 300 300"><style>.st0{fill:#231f20}.st1{fill:#f6a71c}.st2{fill:#fbc410}.st3{fill:#f04f4f}.st4{fill:#dcdbd8}.st5{fill:#8ea7a7}.st6{fill:#96c93d}.st7{fill:#fff}.st8{fill:#f1f2f2}</style><g id="XMLID_2_"><path id="XMLID_26_" class="st0" d="M266 271c0 9.9-8 18-17.9 18H111.9c-9.9 0-17.9-8.1-17.9-18s8-18 17.9-18h136.2c9.9 0 17.9 8.1 17.9 18z"/><path id="XMLID_25_" class="st1" d="M259 271c0 6.6-6 12-13.4 12H114.4c-7.4 0-13.4-5.4-13.4-12s6-12 13.4-12h131.1c7.5 0 13.5 5.4 13.5 12z"/><circle id="XMLID_24_" class="st0" cx="113" cy="271" r="8"/><circle id="XMLID_23_" class="st0" cx="247" cy="271" r="8"/><path id="XMLID_22_" class="st2" d="M159 109.6L51 225c-2.6 2.7-2.7 8.4 0 11l3-1c2.7 2.6 9.2-3.8 11.7-6.5L168.6 119l-9.6-9.4z"/><path id="XMLID_21_" class="st3" d="M230.9 271c0-2.1-1.6-3.7-3.6-4H133c-2.2 0-4 1.8-4 4s1.8 4 4 4h94.3c2.1-.3 3.6-1.9 3.6-4z"/><path id="XMLID_20_" class="st1" d="M158 156.2c0 5.4-4.4 9.8-9.8 9.8h-28.3c-5.4 0-9.8-4.4-9.8-9.8v-.3c0-5.4 4.4-9.8 9.8-9.8h28.3c5.4 0 9.8 4.4 9.8 9.8v.3z"/><path id="XMLID_19_" class="st1" d="M206.9 230.6l-32.9.4-44-85h33z"/><path id="XMLID_18_" class="st2" d="M151.8 219c-2.1 0-3.8 2.1-3.8 4.7v22.6c0 2.6 1.7 4.7 3.8 4.7H244v-32h-92.2z"/><path id="XMLID_17_" class="st0" d="M167 246.7c0 2.4-1.9 4.3-4.3 4.3h-40.3c-2.4 0-4.3-1.9-4.3-4.3v-53.3c0-2.4 1.9-4.3 4.3-4.3h40.3c2.4 0 4.3 1.9 4.3 4.3v53.3z"/><path id="XMLID_16_" class="st4" d="M161 218.6c0 1.8-1.3 3.4-3.1 4.6l-30.5 12.2c-1.8 0-3.4-1.5-3.4-3.3V198c0-1.8 1.9-3 3.7-3h30.4c1.8 0 2.9 1.2 2.9 3v20.6z"/><g id="XMLID_10_"><path id="XMLID_15_" class="st5" d="M212 156h3v63h-3z"/><path id="XMLID_14_" class="st6" d="M212 156h48v27h-48z"/><g id="XMLID_11_"><path id="XMLID_13_" class="st7" d="M228 162h5v4h4c1.5 0 3 .5 3 2v4c0 1.5-1.5 3-3 3h-9v-13z"/><path id="XMLID_12_" class="st7" d="M239 177v-2h7v2h-7z"/></g></g><circle id="XMLID_9_" class="st4" cx="120" cy="156" r="4"/><path id="XMLID_8_" class="st8" d="M187 225h50v20h-50z"/><path id="XMLID_7_" class="st3" d="M207.3 225l-20 20h9.4l20-20z"/><path id="XMLID_6_" class="st3" d="M227.6 225l-20 20h9.4l20-20z"/><path id="XMLID_5_" class="st3" d="M187 235l10-10h-9.4l-.6.6z"/><path id="XMLID_4_" class="st3" d="M237 235.6l-9.4 9.4h9.4z"/><path id="XMLID_3_" class="st3" d="M54.9 223c-11 0-19.9 8.9-19.9 19.9v25.8c0 11 8.9 20.3 19.9 20.3h25.5c3.1 0 5.6-2.9 5.6-6s-2.5-6-5.6-6H71v-54H54.9z"/></g></svg>