<svg xmlns="http://www.w3.org/2000/svg" viewBox="0 0 700 350"><style>.st0{fill:#e74548}.st1{fill:#f9c317}.st2{fill:#fff}.st3{fill:#b9b8b9}.st4{fill:#c87e4b}.st5{fill:#221f1f}.st6{fill-rule:evenodd;clip-rule:evenodd;fill:#96c93d}.st7{fill:#f78f23}.st8{fill:#f4a71e}.st9{font-family:&apos;OpenSans-Semibold&apos;}.st10{font-size:15px}.st11{fill:#fac411}.st12{fill:#f78f22}.st13,.st14,.st15,.st16{fill-rule:evenodd;clip-rule:evenodd}.st13{stroke:#f5a71d;stroke-width:2;stroke-linecap:round;stroke-linejoin:round;stroke-miterlimit:22.9256;fill:none}.st14{fill:#e74548}.st15{fill:#f9c317}.st16{fill:#3b9dd7}</style><g id="XMLID_1_"><g id="XMLID_42_"><path id="XMLID_63_" class="st0" d="M297 199h35v45h-35z"/><path id="XMLID_62_" class="st0" d="M269.9 220h91.3c8.1 0 8.8 5.4 8.8 14.1v31.5c0 5.4-9 25.1-9 49.3V327h-2.6c-2.3 5-5.9 5-9.8 5h-66.3c-3.8 0-7.4 0-9.8-5H268v-12.1c-1-24.2-9-43.9-9-49.3v-31.5c0-8.7 2.9-14.1 10.9-14.1z"/><path id="XMLID_61_" class="st0" d="M357.2 222.8c-6.9 3.2-10.8 9.5-8.7 14l37.7 80.6c2.1 4.5 9.4 5.5 16.3 2.3s10.8-9.5 8.7-14L373.5 225c-2.1-4.5-9.4-5.5-16.3-2.2z"/><path id="XMLID_60_" class="st0" d="M273.5 222.8c6.9 3.2 10.8 9.5 8.7 14l-37.7 80.6c-2.1 4.5-9.4 5.5-16.3 2.3s-10.8-9.5-8.7-14l37.7-80.6c2.1-4.6 9.4-5.6 16.3-2.3z"/><path id="XMLID_59_" class="st1" d="M366.7 302c-7.6 0-13.8 4.9-13.8 12s6.2 12 13.8 12h33.5c7.6 0 13.8-4.9 13.8-12s-6.2-12-13.8-12h-33.5z"/><path id="XMLID_58_" class="st2" d="M252 318c0 2.2 2.5 4 4.5 4H375c2.1 0 2.9-1.8 2.9-4v-60c0-2.2-.9-4-2.9-4H256.5c-2.1 0-4.5 1.8-4.5 4v60z"/><path id="XMLID_57_" class="st1" d="M229.7 300c-7.6 0-13.8 5.3-13.8 13s6.2 13 13.8 13h33.5c7.6 0 13.8-5.3 13.8-13s-6.2-13-13.8-13h-33.5z"/><path id="XMLID_56_" class="st3" d="M252 322c0 2.2 2.5 4 4.5 4H375c2.1 0 2.9-1.8 2.9-4v-60c0-2.2-.9-4-2.9-4H256.5c-2.1 0-4.5 1.8-4.5 4v60z"/><g id="XMLID_44_"><ellipse id="XMLID_55_" class="st4" cx="315.4" cy="168.3" rx="43.1" ry="41"/><ellipse id="XMLID_54_" class="st1" cx="315.4" cy="175.7" rx="37.9" ry="40"/><path id="XMLID_53_" class="st4" d="M315.2 131.5c-8.4 0-16.2 2.6-22.7 7 2.7 9.5 11.8 16.6 22.7 16.6s20-7 22.7-16.6c-6.6-4.4-14.3-7-22.7-7z"/><path id="XMLID_52_" class="st4" d="M356.5 164.8c0-4.8-1.1-9.3-3-13.2-4.1 1.6-7 6.9-7 13.2s3 11.6 7 13.2c1.8-3.8 3-8.4 3-13.2z"/><path id="XMLID_51_" class="st4" d="M273.8 164.3c0-5 1.1-9.7 3-13.7 4.1 1.6 7 7.1 7 13.7s-3 12-7 13.7c-1.9-4-3-8.7-3-13.7z"/><g id="XMLID_45_"><path id="XMLID_50_" d="M301.5 180.7c1.5 0 2.7-1.7 2.7-2.7h2.7c0 3-2.4 5.4-5.4 5.4S296 181 296 178h2.7c.1 1 1.3 2.7 2.8 2.7z"/><path id="XMLID_49_" d="M331.5 180.7c-1.5 0-2.7-1.7-2.7-2.7H326c0 3 2.4 5.4 5.4 5.4s5.4-2.4 5.4-5.4h-2.7c.1 1-1.1 2.7-2.6 2.7z"/><path id="XMLID_48_" class="st5" d="M323 167h16v4h-16z"/><path id="XMLID_47_" class="st5" d="M308 199h15v4h-15z"/><path id="XMLID_46_" class="st5" d="M292 167h16v4h-16z"/></g></g><ellipse id="XMLID_43_" class="st2" cx="315.8" cy="294" rx="8" ry="6"/></g><g id="XMLID_38_"><path id="XMLID_41_" class="st6" d="M590 77h46v42h-46z"/><path id="XMLID_40_" class="st6" d="M602 77h22v-5c0-2.2-.9-4-3.1-4h-13.8c-2.3 0-5.1 1.5-5.1 3.8V77z"/><path id="XMLID_39_" class="st6" d="M624 75.9c0 2.3-1.8 4.1-4.1 4.1h-13.8c-2.3 0-4.1-1.8-4.1-4.1v-4.8c0-2.3 1.8-4.1 4.1-4.1h13.8c2.3 0 4.1 1.8 4.1 4.1v4.8z"/></g><path id="XMLID_37_" class="st4" d="M38 326h600v12H38z"/><path id="XMLID_36_" class="st7" d="M540 139.2V83.8c0-2.7-1.6-4.8-3.6-4.8H405.6c-2 0-3.6 2.2-3.6 3.8v30L383.4 129H402v10.2c0 2.7 1.6 3.8 3.6 3.8h130.8c2 0 3.6-1.1 3.6-3.8z"/><path id="XMLID_35_" class="st8" d="M39 138.2V82.8c0-2.7 2.9-4.8 4.9-4.8h177.8c2 0 2.4 2.2 2.4 3.8v30L244 128h-20v10.2c0 2.7-.4 3.8-2.4 3.8H43.9c-2 0-4.9-1.1-4.9-3.8z"/><text id="XMLID_34_" transform="translate(419.89 105)"><tspan x="0" y="0" class="st5 st9 st10">Как избежать </tspan><tspan x="0" y="18" class="st5 st9 st10">copy/paste?</tspan></text><path id="XMLID_33_" class="st8" d="M636 169.8v77.4c0 2.7-1.6 4.8-3.6 4.8H424.6c-2 0-3.6-2.2-3.6-3.8v-48L402.4 184H421v-14.2c0-2.7 1.6-3.8 3.6-3.8h207.8c2 0 3.6 1.1 3.6 3.8z"/><text id="XMLID_32_" transform="translate(439.89 195)"><tspan x="0" y="0" class="st5 st9 st10">Как получить </tspan><tspan x="0" y="18" class="st5 st9 st10">самодокументируемый </tspan><tspan x="0" y="36" class="st5 st9 st10">код?</tspan></text><text id="XMLID_31_" transform="translate(57.89 105)"><tspan x="0" y="0" class="st5 st9 st10">Как повторно </tspan><tspan x="0" y="18" class="st5 st9 st10">использовать код?</tspan></text><path id="XMLID_30_" class="st11" d="M38 169.8v77.4c0 2.7 2.9 4.8 4.9 4.8h159.8c2 0 2.4-2.2 2.4-3.8v-48L227 184h-22v-14.2c0-2.7-.4-3.8-2.4-3.8H42.9c-2 0-4.9 1.1-4.9 3.8z"/><text id="XMLID_29_" transform="translate(57.89 195.48)"><tspan x="0" y="0" class="st5 st9 st10">Как упростить </tspan><tspan x="0" y="18" class="st5 st9 st10">код и облегчить </tspan><tspan x="0" y="36" class="st5 st9 st10">рефакторинг?</tspan></text><g id="XMLID_26_"><path id="XMLID_28_" class="st12" d="M157.9 293h-27v26.5c0 3.6 2.9 6.5 6.5 6.5h13.9c3.6 0 6.5-2.9 6.5-6.5V293z"/><path id="XMLID_27_" class="st12" d="M153.9 298v4h8v13h-8v4h9.3c1.5 0 2.7-1.2 2.7-2.7v-15.5c0-1.5-1.2-2.7-2.7-2.7h-9.3z"/></g><g id="XMLID_17_"><path id="XMLID_25_" class="st13" d="M645.8 66.6l-6.8 6.8"/><path id="XMLID_24_" class="st13" d="M588.3 124.1l-6.8 6.8"/><path id="XMLID_23_" class="st13" d="M613 53v10"/><path id="XMLID_22_" class="st13" d="M613 135v9"/><path id="XMLID_21_" class="st13" d="M567 99h10"/><path id="XMLID_20_" class="st13" d="M648 99h10"/><path id="XMLID_19_" class="st13" d="M581.5 66.6l6.8 6.8"/><path id="XMLID_18_" class="st13" d="M639 124.1l6.8 6.8"/></g><g id="XMLID_13_"><g id="XMLID_15_"><path id="XMLID_16_" class="st14" d="M445 305h46v21h-46z"/></g><path id="XMLID_14_" class="st14" d="M479 303.9c0 2.3-1.8 4.1-4.1 4.1h-13.8c-2.3 0-4.1-1.8-4.1-4.1v-4.8c0-2.3 1.8-4.1 4.1-4.1h13.8c2.3 0 4.1 1.8 4.1 4.1v4.8z"/></g><g id="XMLID_10_"><path id="XMLID_12_" class="st2" d="M605 90h5v4h4.2c1.5 0 3.1.5 3.1 2 0 1.1 0 2.8.1 4 0 1.5-1.5 3-3 3h-9.5c.1-4 .1-9 .1-13z"/><path id="XMLID_11_" class="st2" d="M616 105v-2h7v2h-7z"/></g><g id="XMLID_6_"><g id="XMLID_8_"><path id="XMLID_9_" class="st15" d="M494.175 278.342L526.7 310.87l-14.848 14.848-32.526-32.527z"/></g><path id="XMLID_7_" class="st15" d="M513.2 301.6l-9.8-9.8c-1.6-1.6-1.6-4.2 0-5.8l3.4-3.4c1.6-1.6 4.2-1.6 5.8 0l9.8 9.8c1.6 1.6 1.6 4.2 0 5.8l-3.4 3.4c-1.7 1.6-4.2 1.6-5.8 0z"/></g><g id="XMLID_2_"><g id="XMLID_4_"><path id="XMLID_5_" class="st16" d="M557 305h46v21h-46z"/></g><path id="XMLID_3_" class="st16" d="M591 303.9c0 2.3-1.8 4.1-4.1 4.1h-13.8c-2.3 0-4.1-1.8-4.1-4.1v-4.8c0-2.3 1.8-4.1 4.1-4.1h13.8c2.3 0 4.1 1.8 4.1 4.1v4.8z"/></g></g></svg>