<svg id="Layer_1" xmlns="http://www.w3.org/2000/svg" viewBox="0 0 200 200"><style>.st0{fill:#fff}.st1{fill:#f68e20}.st2{fill:#de4443}.st3{fill:#93c73f}.st4{fill:#f9c319}.st5{fill:#f7901e}.st6{fill:#f7a71b}.st7{fill:#9e9f9f}.st8{fill:#231f20}.st9{fill:#dcdbd9}</style><g id="XMLID_2_"><path id="XMLID_21_" class="st0" d="M22 109h47v4H22z"/><path id="XMLID_20_" class="st0" d="M22 89h47v4H22z"/><path id="XMLID_19_" class="st0" d="M22 69h47v4H22z"/><path id="XMLID_18_" class="st1" d="M116 149H14c-7.8 0-14-6.3-14-14V14C0 6.3 6.3 0 14 0h102c7.8 0 14 6.3 14 14v121c0 7.7-6.3 14-14 14z"/><path id="XMLID_17_" class="st2" d="M125.9 157H22.1C14.3 157 8 150.7 8 142.9V22.1C8 14.3 14.3 8 22.1 8h103.8c7.8 0 14.1 6.3 14.1 14.1v120.8c0 7.8-6.3 14.1-14.1 14.1z"/><path id="XMLID_16_" class="st3" d="M134 164H30c-7.8 0-14-6.3-14-14V30c0-7.8 6.3-14 14-14h104c7.8 0 14 6.3 14 14v120c0 7.7-6.3 14-14 14z"/><g id="XMLID_12_"><path id="XMLID_15_" class="st0" d="M32 93h61v4H32z"/><path id="XMLID_14_" class="st0" d="M32 73h61v4H32z"/><path id="XMLID_13_" class="st0" d="M32 53h61v4H32z"/></g><g id="XMLID_3_"><path id="XMLID_11_" class="st2" d="M150.3 87.3l-3.7-3.7c-5.9-5.9-5.9-15.6 0-21.5s15.6-5.9 21.5 0l3.7 3.7c5.9 5.9 5.9 15.6 0 21.5-6 5.9-15.6 5.9-21.5 0z"/><path id="XMLID_10_" class="st4" d="M111 147.6l-33.8 8.6 8.6-33.8 62.1-62.1 25.2 25.2z"/><path id="XMLID_9_" transform="rotate(45.001 137.886 112.381)" class="st5" d="M131.9 68.5h11.9v87.8h-11.9z"/><path id="XMLID_8_" transform="rotate(45.001 129.486 103.982)" class="st6" d="M123.5 60.1h11.9v87.8h-11.9z"/><path id="XMLID_7_" transform="rotate(45.001 155.002 78.627)" class="st7" d="M137.1 72.5H173v12.2h-35.9z"/><path id="XMLID_6_" class="st8" d="M88.6 153.4l-.5-.4-8-8-2.9 11.2z"/><path id="XMLID_5_" transform="rotate(45.001 149.477 84.139)" class="st9" d="M131.6 82.1h35.7v4h-35.7z"/><path id="XMLID_4_" transform="rotate(45.001 159.645 73.97)" class="st9" d="M141.8 72h35.7v4h-35.7z"/></g></g></svg>