<svg xmlns="http://www.w3.org/2000/svg" viewBox="0 0 300 300"><style>.st0{fill:#96c93d}.st1{fill:#fbc410}.st2{fill:#f0514a}.st3{fill:#f7901e}.st4{fill:#f6a71c}.st5{fill:#231f20}.st6{fill:#3b9dd7}.st7{fill:#dcdbd8}</style><g id="XMLID_2_"><path id="XMLID_59_" class="st0" d="M50 277h200v12H50z"/><path id="XMLID_56_" class="st1" d="M149.7 114c-40.9 0-74 33.1-74 74s33.1 74 74 74 74-33.1 74-74-33.2-74-74-74zm0 139.9c-36.4 0-65.9-29.5-65.9-65.9s29.5-65.9 65.9-65.9 65.9 29.5 65.9 65.9-29.5 65.9-65.9 65.9z"/><path id="XMLID_53_" class="st2" d="M149.7 106c-45.3 0-82 36.7-82 82s36.7 82 82 82 82-36.7 82-82-36.7-82-82-82zm0 155c-40.3 0-73-32.7-73-73s32.7-73 73-73 73 32.7 73 73-32.7 73-73 73z"/><path id="XMLID_52_" class="st3" d="M177.1 200.9s-2.3-6.4-9.9-11.2c-7.6-4.8-8.3-2.1-6.9.2 1.4 2.3 9.4 13.1 11.9 14.7 2.6 1.6 4.9-3.7 4.9-3.7z"/><path id="XMLID_51_" class="st3" d="M163.3 228.2c.9.1 7.4 9.1 15.9 12.6s12.8 1.9 12.9 1c.1-.9-10-6.4-14.8-12.3-4.8-5.9-7.3-7.1-10.1-5.5-2.8 1.6-3.9 4.2-3.9 4.2z"/><g id="XMLID_18_"><path id="XMLID_50_" class="st4" d="M147.7 107h4v7h-4z"/><path id="XMLID_49_" class="st4" d="M147.7 262h4v7h-4z"/><path id="XMLID_48_" class="st4" d="M223.7 186h7v4h-7z"/><path id="XMLID_47_" class="st4" d="M68.7 186h7v4h-7z"/><path id="XMLID_46_" class="st4" d="M203.385 137.067l-2.83-2.828 4.95-4.95 2.83 2.824z"/><path id="XMLID_45_" class="st4" d="M93.782 246.67l-2.828-2.83 4.95-4.948 2.828 2.828z"/><path id="XMLID_44_" class="st4" d="M205.506 246.67l-4.95-4.95 2.83-2.828 4.95 4.95z"/><path id="XMLID_43_" class="st4" d="M95.903 137.065l-4.95-4.95 2.828-2.828 4.95 4.95z"/><path id="XMLID_42_" class="st4" d="M180.473 120.678l-3.68-1.565 2.738-6.442 3.685 1.57z"/><path id="XMLID_41_" class="st4" d="M119.83 263.37l-3.68-1.564 2.738-6.44 3.68 1.564z"/><path id="XMLID_40_" class="st4" d="M223.4 221.58l-6.44-2.74 1.564-3.68 6.442 2.738z"/><path id="XMLID_39_" class="st4" d="M75.857 154.46l6.442 2.738-1.57 3.68-6.44-2.74z"/><path id="XMLID_38_" class="st4" d="M225.587 159.568l-6.49 2.618-1.497-3.71 6.49-2.617z"/><path id="XMLID_37_" class="st4" d="M73.81 216.442l6.492-2.618 1.496 3.71-6.492 2.618z"/><path id="XMLID_36_" class="st4" d="M178.1 263.82l-2.62-6.493 3.71-1.496 2.62 6.496z"/><path id="XMLID_35_" class="st4" d="M120.103 120.113l-2.618-6.492 3.71-1.492 2.617 6.492z"/><path id="XMLID_34_" class="st4" d="M166.284 115.897l-3.92-.792 1.385-6.86 3.92.79z"/><path id="XMLID_33_" class="st4" d="M135.618 267.763l-3.92-.792 1.385-6.86 3.92.795z"/><path id="XMLID_32_" class="st4" d="M228.69 206.05l-6.86-1.387.79-3.92 6.863 1.385z"/><path id="XMLID_31_" class="st4" d="M70.656 170.045l6.86 1.386-.79 3.925-6.862-1.386z"/><path id="XMLID_30_" class="st4" d="M216.055 141.483l2.213 3.332-5.832 3.872-2.212-3.333z"/><path id="XMLID_29_" class="st4" d="M83.316 234.45l-2.212-3.333 5.832-3.872 2.212 3.333z"/><path id="XMLID_28_" class="st4" d="M192.842 256.6l-3.872-5.833 3.332-2.212 3.872 5.83z"/><path id="XMLID_27_" class="st4" d="M107.04 127.477l-3.87-5.832 3.33-2.213 3.873 5.832z"/><path id="XMLID_26_" class="st4" d="M193.206 128.13l-3.298-2.264 3.96-5.77 3.298 2.262z"/><path id="XMLID_25_" class="st4" d="M105.504 255.94l-3.298-2.262 3.96-5.77 3.298 2.262z"/><path id="XMLID_24_" class="st4" d="M215.276 235.512l-5.77-3.96 2.262-3.298 5.772 3.96z"/><path id="XMLID_23_" class="st4" d="M87.52 147.725l-5.77-3.96 2.263-3.3 5.77 3.962z"/><path id="XMLID_22_" class="st4" d="M229.626 175.188l-6.882 1.28-.732-3.93 6.882-1.282z"/><path id="XMLID_21_" class="st4" d="M69.704 200.862l6.88-1.28.733 3.93-6.88 1.282z"/><path id="XMLID_20_" class="st4" d="M162.524 268.034l-1.28-6.88 3.93-.733 1.282 6.885z"/><path id="XMLID_19_" class="st4" d="M134.144 115.602l-1.28-6.88 3.93-.733 1.282 6.88z"/></g><path id="XMLID_17_" class="st3" d="M108.6 243.9c-.2-.7 7.3-12.5 7.9-13.4.5-.9 6.3-.3 7.7-.7 1.5-.4 5.9-12 5.9-12s7.8-5.5 9.7 3.4c1.9 8.9-3.6 14.9-8.7 16.4-5.1 1.5-11.5.7-11.5.7l-3.8 5.9s.6 3.2-.6 4.3c-1.3 1.1-6.6-4.6-6.6-4.6z"/><path id="XMLID_16_" class="st4" d="M124 225.8c1.9.2 5 6.5 23 6.2 17.9-.4 34-.3 34-17.4 0-6.6-23-6.6-33.7-6.6-8.5 0-19.6 1.5-21.6 5.6-1.9 4.1-1.6 11.2-1.6 11.2"/><path id="XMLID_15_" class="st4" d="M95 229.6c.1-.8 11.5-8.8 12.3-9.5.8-.7 7.9.9 9.4 1.1 1.5.1 9.1-7.4 9.1-7.4s9.3-2.2 7.7 6.8c-1.6 9-6.2 11.9-11.5 11.4s-13.7-3-13.7-3l-5.7 4s.5 2.3-1 2.9-6.6-6.3-6.6-6.3z"/><path id="XMLID_14_" class="st4" d="M171 227.6c.9-.2 9.7 6.1 18.9 6.9 9.2.8 12.7-1.6 12.6-2.5-.2-.9-11.4-3.2-17.6-7.4s-9-4.6-11.2-2.3c-2.4 2.5-2.7 5.3-2.7 5.3z"/><path id="XMLID_13_" class="st4" d="M164.9 211.2s.2-12.3 10.7-13.3 18.6 4.6 18.4 6.5c-.3 3.8-9.4 9.6-14.6 13.9-4.7 3.8-13.9-4.2-14.5-7.1z"/><path id="XMLID_12_" class="st4" d="M174.2 200.9s-4.8-4.9-13.7-6.1-8.4 1.6-6.2 3.1 14 8 17 8.4 2.9-5.4 2.9-5.4z"/><path id="XMLID_11_" class="st4" d="M144 212c-.8-.1-20-3-19-25 .8-18 18.8-19.6 13.7-31.4-2.2-5.2-10.1-6.7-17.7-2.5-10.5 5.8-17 15.9-18 29.9-1.2 17.5 10.5 24.5 14 27 9.7 7 27 2 27 2z"/><circle id="XMLID_10_" class="st5" cx="180.8" cy="203.2" r="2.8"/><path id="XMLID_9_" class="st6" d="M186 182.9c.5 1.6-1.7 4.7-1.2 6.6-1.5-1.6-4.1-3.3-4.6-4.9s.4-3.3 2-3.7 3.3.4 3.8 2z"/><path id="XMLID_8_" class="st6" d="M195.6 181.1c-.8 1.5-4.5 2.1-5.5 3.9.1-2.2-.6-5.2.2-6.7s2.6-2 4.1-1.2c1.5.8 2 2.6 1.2 4z"/><path id="XMLID_7_" class="st6" d="M196.8 192.2c-1.4.8-5-.6-6.7.5 1.2-1.9 2.2-4.8 3.7-5.6 1.4-.8 3.3-.4 4.1 1.1.8 1.3.3 3.1-1.1 4z"/><circle id="XMLID_6_" class="st6" cx="202" cy="266" r="11"/><circle id="XMLID_5_" class="st7" cx="202" cy="266" r="4"/><circle id="XMLID_4_" class="st6" cx="97" cy="266" r="11"/><circle id="XMLID_3_" class="st7" cx="97" cy="266" r="4"/></g></svg>