<svg xmlns="http://www.w3.org/2000/svg" viewBox="0 0 300 300"><style>.st0{fill:#fbc410}.st1{fill:#f6a71c}.st2{fill:#f7901e}.st3{fill:#f04f4f}.st4{fill:#dcdbd8}</style><g id="XMLID_2_"><path id="XMLID_12_" class="st0" d="M100.3 205.8l-28.6 28.6c-12.5 12.5-12.5 32.9 0 45.4s32.9 12.5 45.4 0l28.6-28.6-45.4-45.4z"/><path id="XMLID_11_" class="st1" d="M117 222.5l-22.4 22.4c-2.5 2.5-4 7.4.3 11.6 4.8 4.8 9.1 2.8 11.6.3l22.4-22.4-11.9-11.9z"/><path id="XMLID_10_" class="st2" d="M128.91 210.616l11.88 11.88-11.88 11.88-11.878-11.88z"/><path id="XMLID_9_" class="st3" d="M195.383 144.127l11.88 11.88-67.034 67.033-11.88-11.88z"/><path id="XMLID_8_" class="st4" d="M218.7 143.7l-11.2.7-.5-.5.7-11.2L197 122l-1.6 22.1 11.9 11.9 22.1-1.6z"/><path id="XMLID_7_" class="st2" d="M203.857 108.956l38.184 38.184-9.9 9.9-38.18-38.184z"/><path id="XMLID_6_" class="st0" d="M208.1 113.238l4.243 4.243-9.9 9.9-4.242-4.24z"/><path id="XMLID_5_" class="st0" d="M216.585 121.744l4.243 4.243-9.9 9.9-4.242-4.243z"/><path id="XMLID_4_" class="st0" d="M225.07 130.11l4.243 4.242-9.9 9.9-4.242-4.244z"/><path id="XMLID_3_" class="st0" d="M233.556 138.615l4.242 4.242-9.9 9.9-4.242-4.243z"/></g></svg>