<svg xmlns="http://www.w3.org/2000/svg" viewBox="0 0 300 300"><style>.st0{fill:#ab6d44}.st1{fill:#edc768}.st2{fill:#be7847}.st3{fill:#926042}</style><g id="XMLID_2_"><path id="XMLID_7_" class="st0" d="M85.5 101h.7c-2.2 0-4.1 1.9-4.1 4.3v9.7c0 2.4-1.6 5-3.8 5H66v41h24v-55.7c0-2.4-2.4-4.3-4.5-4.3z"/><path id="XMLID_6_" class="st1" d="M66 136h160v81H66z"/><path id="XMLID_5_" class="st2" d="M269 289h-54c-2.1 0-2-5.9-11-6.2-9.4 0-9.4 6.3-11 6.2h-56.2c-1.3 0-3.4-6.1-10.9-6.1-8.3 0-9.6 6.1-10.7 6.1H98.4c-1.5 0-3.5-6.1-10.6-6.1-7.9 0-9.4 6.1-10.6 6.1H31c-7 0-7-16 0-16h16.4c10 0 18.6-11.3 18.6-21.6V144h57.1c3.5 0 5.9 1.6 5.9 3.3V166c0 1.7.7 3 2.2 3l14.8.1c1.5 0 3 1.4 3 3V186c0 16 20.3 17 20.3 0l.1-61.2c0-2.7 2-4.8 4.5-4.8h23c2.5 0 4.5 2.6 4.5 5.3l.1 32.8c0 2.5 2.3 4 4.2 2.6 2.3-1.7 4.5-4.1 4.5-6.8v-7c0-1.7 1.7-2.9 3.2-2.9H226v107.4c0 11.6 10.2 21.1 20.8 21.1l22.2.1c6 0 7 16.4 0 16.4z"/><path id="XMLID_4_" class="st3" d="M67 177.6c0-11.6-6.8-17.3-14.6-17.3l-2.4-.1V144h16"/><path id="XMLID_3_" class="st0" d="M132.8 285.2s-3.8-2.3-6.9-2.3c-8.3 0-9.6 6.2-10.7 6.2H98.4c-1.5 0-4.2-6.1-11.4-6.1-7.9 0-9.7 6.1-11 6.1H31c-7 0-7-16 0-16h16.4c10 0 18.6-11.3 18.6-21.6v-96.2.2V144h57.1c3.5 0 5.9 1.6 5.9 3.3V166c0 1.7.7 3 2.2 3h1.9l-.3 116.2z"/></g></svg>