<svg xmlns="http://www.w3.org/2000/svg" viewBox="-197 320.9 200 200"><path fill="#f3a61f" d="M-197 458.9h52v26h-52zm26-52v26h26v26h26v-52z"/><path fill="#93c73f" d="M-93 406.9h26c-.1-17.5-8-26.7-26-26v26zm26 52v-26h-26v26h-52v26h52c17.5-.1 26.7-8 26-26zm59 26h-54c-2.8 0-5 2.2-5 5v16c0 2.8 2.2 5 5 5h19.3l17.8 10-.2-10H-8c2.8 0 5-2.2 5-5v-16c0-2.8-2.2-5-5-5z"/><path fill="#f78f22" d="M-171 380.9v-26h-26v52h52v-26zm52 26v52h26v-26h26v-26z"/><path fill="#f7c21b" d="M-171 432.9v-26h-26v52h52v-26z"/><path fill="#e74548" d="M-149.2 328.9h-1.8v-5c0-1.7-1.3-3-3-3h-7c-1.7 0-3 1.3-3 3v5h-13v-5c0-1.7-1.3-3-3-3h-7c-1.7 0-3 1.3-3 3v5h-7v26h26v26h26v-52h-4.2zm52 52H-99v-5c0-1.7-1.3-3-3-3h-7c-1.7 0-3 1.3-3 3v5h-13v-5c0-1.7-1.3-3-3-3h-7c-1.7 0-3 1.3-3 3v5h-7v26h52v-26h-4.2z"/></svg>