<svg xmlns="http://www.w3.org/2000/svg" viewBox="0 0 300 300"><style>.st0{fill:#585857}.st0,.st1,.st2,.st3,.st4{fill-rule:evenodd;clip-rule:evenodd}.st1{fill:#3c3c3b}.st2{fill:#e74548}.st3{fill:#f5a71d}.st4{fill:#3b9dd7}</style><g id="XMLID_3_"><g id="XMLID_47_"><path id="XMLID_48_" class="st0" d="M163 182.2c6.5.4 11.5 5.9 11.1 12.4-.4 6.5-5.9 11.5-12.4 11.1-6.5-.4-11.5-5.9-11.1-12.4.3-6.5 5.9-11.5 12.4-11.1zm-2.5.6l-1.2 22 1.2-22zm4.8.3l-1.2 22 1.2-22z"/></g><path id="XMLID_46_" class="st1" d="M162.8 182.1c1.8.1 2.7.4 4.2 1l-5.2 22.6c-1.4-.1-2.8-.3-4.2-1l5.2-22.6z"/><path id="XMLID_40_" class="st2" d="M245 174v-6c0-2.2-2.2-4-4.4-4H226c-2.2 0-5 1.8-5 4v6h-22v-6c0-2.2-1.2-4-3.4-4H181c-2.2 0-4.1 1.8-4.1 4v6h-22v-6c0-2.2-2.1-4-4.3-4H136c-2.2 0-4.1 1.8-4.1 4v6h-23v-6c0-2.2-1.1-4-3.2-4H91.2c-2.2 0-4.2 1.8-4.2 4v6H75v43h181v-43h-11zM98.5 205.8c-6.2 0-11.2-5-11.2-11.2s5-11.2 11.2-11.2 11.2 5 11.2 11.2-5 11.2-11.2 11.2zm44.9 0c-6.2 0-11.2-5-11.2-11.2s5-11.2 11.2-11.2 11.2 5 11.2 11.2-5 11.2-11.2 11.2zm44.9 0c-6.2 0-11.2-5-11.2-11.2s5-11.2 11.2-11.2 11.2 5 11.2 11.2-4.9 11.2-11.2 11.2zm45 0c-6.2 0-11.2-5-11.2-11.2s5-11.2 11.2-11.2 11.2 5 11.2 11.2-5 11.2-11.2 11.2z"/><path id="XMLID_35_" class="st3" d="M233.8 83.1c-9.1-7.4-22.5-6-29.9 3.1L88.3 228.8c-7.4 9.1-6 22.5 3.1 29.9 9.1 7.4 22.5 6 29.9-3.1L236.9 113c7.4-9.2 5.9-22.6-3.1-29.9zm-116 161.6c-4.1 5.1-11.5 5.8-16.6 1.7-5.1-4.1-5.8-11.5-1.7-16.6 4.1-5.1 11.5-5.8 16.6-1.7 5.1 4.2 5.9 11.6 1.7 16.6zm71.9-88.6c-4.1 5.1-11.5 5.8-16.6 1.7-5.1-4.1-5.8-11.5-1.7-16.6 4.1-5.1 11.5-5.8 16.6-1.7 5.1 4.1 5.8 11.6 1.7 16.6zm36-44.3c-4.1 5.1-11.5 5.8-16.6 1.7-5.1-4.1-5.8-11.5-1.7-16.6 4.1-5.1 11.5-5.8 16.6-1.7 5 4.1 5.8 11.5 1.7 16.6z"/><g id="XMLID_26_"><path id="XMLID_31_" class="st0" d="M143.7 206.2c-6.5.2-11.9-5-12.1-11.5-.2-6.5 5-11.9 11.5-12.1 6.5-.2 11.9 5 12.1 11.5.1 6.5-5 11.9-11.5 12.1zm2.3-.9l-.5-22 .5 22zm-4.7.2l-.5-22 .5 22z"/></g><path id="XMLID_7_" class="st0" d="M69.6 113H53.3l-12 11.7V141l12 11h16.3l10.7-11v-16.3L69.6 113zm-8.8 31c-6.4 0-11.5-5.1-11.5-11.5S54.4 121 60.8 121s11.5 5.1 11.5 11.5S67.1 144 60.8 144z"/><path id="XMLID_6_" class="st1" d="M140.2 183h6v23h-6z"/><g id="XMLID_4_"><path id="XMLID_5_" class="st4" d="M210 217h46v21h-46z"/></g></g></svg>