<svg id="Layer_1" xmlns="http://www.w3.org/2000/svg" viewBox="0 0 200 200"><style>.st0{fill:#f78f22}.st1{fill:#f3a61f}.st2{fill:#93c73f}.st3{fill:#f7c21b}.st4{fill:#e74548}.st5{fill:none}</style><g id="XMLID_2_"><g id="XMLID_27_"><path id="XMLID_29_" class="st0" d="M130 86c-.1-17.5-8-26.7-26-26h-6v-5c0-1.7-1.3-3-3-3h-7c-1.7 0-3 1.3-3 3v5H72v-5c0-1.7-1.3-3-3-3h-7c-1.7 0-3 1.3-3 3v5h-7V8h-6V3c0-1.7-1.3-3-3-3h-7c-1.7 0-3 1.3-3 3v5H20V3c0-1.7-1.3-3-3-3h-7C8.3 0 7 1.3 7 3v5H0v156h104v-26h26V86h-26 26z"/><path id="XMLID_28_" class="st0" d="M104 138v26c17.5-.1 26.7-8 26-26h-26z"/></g><g id="XMLID_6_"><path id="XMLID_108_" class="st0" d="M0 60h52v26H0z"/><path id="XMLID_107_" class="st1" d="M0 138h52v26H0z"/><path id="XMLID_106_" class="st2" d="M52 138h52v26H52z"/><path id="XMLID_105_" class="st3" d="M0 86h26v26H0z"/><path id="XMLID_104_" class="st2" d="M104 112h26v26h-26z"/><path id="XMLID_103_" class="st2" d="M104 86h26c-.1-17.5-8-26.7-26-26v26z"/><path id="XMLID_102_" class="st2" d="M104 138v26c17.5-.1 26.7-8 26-26h-26z"/><path id="XMLID_101_" class="st0" d="M0 34h26v26H0z"/><path id="XMLID_95_" class="st4" d="M26 34h26v26H26z"/><path id="XMLID_66_" class="st0" d="M78 112h26v26H78z"/><path id="XMLID_65_" class="st1" d="M52 112h26v26H52z"/><path id="XMLID_64_" class="st0" d="M78 86h52v26H78z"/><path id="XMLID_63_" class="st1" d="M26 86h52v26H26z"/><path id="XMLID_62_" class="st3" d="M0 112h52v26H0z"/><path id="XMLID_12_" class="st4" d="M7 8H0v26h52V8h-6"/><path id="XMLID_11_" class="st4" d="M17 15.6h-7c-1.7 0-3-1.3-3-3V3c0-1.7 1.3-3 3-3h7c1.7 0 3 1.3 3 3v9.6c0 1.7-1.3 3-3 3z"/><path id="XMLID_10_" class="st4" d="M43 15.6h-7c-1.7 0-3-1.3-3-3V3c0-1.7 1.3-3 3-3h7c1.7 0 3 1.3 3 3v9.6c0 1.7-1.3 3-3 3z"/><path id="XMLID_9_" class="st4" d="M59 60h-7v26h52V60h-6"/><path id="XMLID_8_" class="st4" d="M69 67.6h-7c-1.7 0-3-1.3-3-3V55c0-1.7 1.3-3 3-3h7c1.7 0 3 1.3 3 3v9.6c0 1.7-1.3 3-3 3z"/><path id="XMLID_7_" class="st4" d="M95 67.6h-7c-1.7 0-3-1.3-3-3V55c0-1.7 1.3-3 3-3h7c1.7 0 3 1.3 3 3v9.6c0 1.7-1.3 3-3 3z"/></g><path id="XMLID_53_" class="st2" d="M141 164h54c2.8 0 5 2.2 5 5v16c0 2.8-2.2 5-5 5h-54c-2.8 0-5-2.2-5-5v-16c0-2.8 2.2-5 5-5z"/><path id="XMLID_4_" class="st2" d="M156.7 188l21.4 12-.2-12z"/><path id="XMLID_3_" class="st5" d="M196 0v198"/></g></svg>