<svg xmlns="http://www.w3.org/2000/svg" viewBox="0 0 700 350" style="font:15px OpenSans-SemiBold,Arial,sans-serif" fill="#221f1f"><path fill="#e74548" d="M297 199h35v45h-35zm-27.1 21h91.3c8.1 0 8.8 5.4 8.8 14.1v31.5c0 5.4-9 25.1-9 49.3V327h-2.6c-2.3 5-5.9 5-9.8 5h-66.3c-3.8 0-7.4 0-9.8-5H268v-12.1c-1-24.2-9-43.9-9-49.3v-31.5c0-8.7 2.9-14.1 10.9-14.1zm3.6 2.8c6.9 3.2 10.8 9.5 8.7 14l-37.7 80.6c-2.1 4.5-9.4 5.5-16.3 2.3s-10.8-9.5-8.7-14l37.7-80.6c2.1-4.6 9.4-5.6 16.3-2.3z"/><path fill="#e74548" d="M357.2 222.8c-6.9 3.2-10.8 9.5-8.7 14l37.7 80.6c2.1 4.5 9.4 5.5 16.3 2.3s10.8-9.5 8.7-14L373.5 225c-2.1-4.5-9.4-5.5-16.3-2.2zM479 303.9c0 2.3-1.8 4.1-4.1 4.1h-13.8c-2.3 0-4.1-1.8-4.1-4.1v-4.8c0-2.3 1.8-4.1 4.1-4.1h13.8c2.3 0 4.1 1.8 4.1 4.1v4.8zm-34 1.1h46v21h-46z"/><ellipse fill="#c87e4b" cx="315.4" cy="168.3" rx="43.1" ry="41"/><ellipse fill="#f9c317" cx="315.4" cy="175.7" rx="37.9" ry="40"/><path fill="#96c93d" d="M590 77h46v42h-46zm12 0h22v-5c0-2.2-.9-4-3.1-4h-13.8c-2.3 0-5.1 1.5-5.1 3.8V77z"/><path fill="#96c93d" d="M624 75.9c0 2.3-1.8 4.1-4.1 4.1h-13.8c-2.3 0-4.1-1.8-4.1-4.1v-4.8c0-2.3 1.8-4.1 4.1-4.1h13.8c2.3 0 4.1 1.8 4.1 4.1v4.8z"/><path fill="#f9c317" d="M494.175 278.342L526.7 310.87l-14.848 14.848-32.526-32.527zM513.2 301.6l-9.8-9.8c-1.6-1.6-1.6-4.2 0-5.8l3.4-3.4c1.6-1.6 4.2-1.6 5.8 0l9.8 9.8c1.6 1.6 1.6 4.2 0 5.8l-3.4 3.4c-1.7 1.6-4.2 1.6-5.8 0zm-146.5.4c-7.6 0-13.8 4.9-13.8 12s6.2 12 13.8 12h33.5c7.6 0 13.8-4.9 13.8-12s-6.2-12-13.8-12h-33.5zm-137-2c-7.6 0-13.8 5.3-13.8 13s6.2 13 13.8 13h33.5c7.6 0 13.8-5.3 13.8-13s-6.2-13-13.8-13h-33.5z"/><path fill="#fff" d="M252 318c0 2.2 2.5 4 4.5 4H375c2.1 0 2.9-1.8 2.9-4v-60c0-2.2-.9-4-2.9-4H256.5c-2.1 0-4.5 1.8-4.5 4v60zM605 90h5v4h4.2c1.5 0 3.1.5 3.1 2 0 1.1 0 2.8.1 4 0 1.5-1.5 3-3 3h-9.5c.1-4 .1-9 .1-13zm11 15v-2h7v2h-7z"/><path fill="#b9b8b9" d="M252 322c0 2.2 2.5 4 4.5 4H375c2.1 0 2.9-1.8 2.9-4v-60c0-2.2-.9-4-2.9-4H256.5c-2.1 0-4.5 1.8-4.5 4v60z"/><path fill="#c87e4b" d="M315.2 131.5c-8.4 0-16.2 2.6-22.7 7 2.7 9.5 11.8 16.6 22.7 16.6s20-7 22.7-16.6c-6.6-4.4-14.3-7-22.7-7zm41.3 33.3c0-4.8-1.1-9.3-3-13.2-4.1 1.6-7 6.9-7 13.2s3 11.6 7 13.2c1.8-3.8 3-8.4 3-13.2zm-82.7-.5c0-5 1.1-9.7 3-13.7 4.1 1.6 7 7.1 7 13.7s-3 12-7 13.7c-1.9-4-3-8.7-3-13.7zM38 326h600v12H38z"/><path d="M301.5 180.7c1.5 0 2.7-1.7 2.7-2.7h2.7c0 3-2.4 5.4-5.4 5.4S296 181 296 178h2.7c.1 1 1.3 2.7 2.8 2.7zm30 0c-1.5 0-2.7-1.7-2.7-2.7H326c0 3 2.4 5.4 5.4 5.4s5.4-2.4 5.4-5.4h-2.7c.1 1-1.1 2.7-2.6 2.7zM323 167h16v4h-16zm-15 32h15v4h-15zm-16-32h16v4h-16z"/><path fill="#f78f23" d="M540 139.2V83.8c0-2.7-1.6-4.8-3.6-4.8H405.6c-2 0-3.6 2.2-3.6 3.8v30L383.4 129H402v10.2c0 2.7 1.6 3.8 3.6 3.8h130.8c2 0 3.6-1.1 3.6-3.8z"/><path fill="#f4a71e" d="M39 138.2V82.8c0-2.7 2.9-4.8 4.9-4.8h177.8c2 0 2.4 2.2 2.4 3.8v30L244 128h-20v10.2c0 2.7-.4 3.8-2.4 3.8H43.9c-2 0-4.9-1.1-4.9-3.8zm597 31.6v77.4c0 2.7-1.6 4.8-3.6 4.8H424.6c-2 0-3.6-2.2-3.6-3.8v-48L402.4 184H421v-14.2c0-2.7 1.6-3.8 3.6-3.8h207.8c2 0 3.6 1.1 3.6 3.8z"/><path fill="#fac411" d="M38 169.8v77.4c0 2.7 2.9 4.8 4.9 4.8h159.8c2 0 2.4-2.2 2.4-3.8v-48L227 184h-22v-14.2c0-2.7-.4-3.8-2.4-3.8H42.9c-2 0-4.9 1.1-4.9 3.8z"/><path fill="#f78f22" d="M157.9 293h-27v26.5c0 3.6 2.9 6.5 6.5 6.5h13.9c3.6 0 6.5-2.9 6.5-6.5V293zm-4 5v4h8v13h-8v4h9.3c1.5 0 2.7-1.2 2.7-2.7v-15.5c0-1.5-1.2-2.7-2.7-2.7h-9.3z"/><path stroke="#f5a71d" stroke-width="2" stroke-linecap="round" d="M645.8 66.6l-6.8 6.8m-50.7 50.7l-6.8 6.8M613 53v10m0 72v9m-46-45h10m71 0h10m-76.5-32.4l6.8 6.8m50.7 50.7l6.8 6.8"/><path fill="#3b9dd7" d="M557 305h46v21h-46zm34-1.1c0 2.3-1.8 4.1-4.1 4.1h-13.8c-2.3 0-4.1-1.8-4.1-4.1v-4.8c0-2.3 1.8-4.1 4.1-4.1h13.8c2.3 0 4.1 1.8 4.1 4.1v4.8z"/><ellipse fill="#fff" cx="315.8" cy="294" rx="8" ry="6"/><text transform="translate(420 105)">Как избежать <tspan x="0" y="18">copy/paste?</tspan></text><text transform="translate(440 195)">Как получить <tspan x="0" y="18">самодокументируемый</tspan> <tspan x="0" y="36">код?</tspan></text><text transform="translate(58 105)">Как повторно <tspan x="0" y="18">использовать код?</tspan></text><text transform="translate(58 195)">Как упростить <tspan x="0" y="18">код и облегчить</tspan> <tspan x="0" y="36">рефакторинг?</tspan></text></svg>