<svg xmlns="http://www.w3.org/2000/svg" viewBox="0 0 300 300"><style>.st0{fill:none;stroke:#f5a71d;stroke-width:4;stroke-linecap:round;stroke-linejoin:round;stroke-miterlimit:22.9256;fill-rule:evenodd;clip-rule:evenodd}.st1{fill:#fac411}.st1,.st2,.st3,.st4,.st5{fill-rule:evenodd;clip-rule:evenodd}.st2{stroke:#ef8b21;stroke-width:4;stroke-miterlimit:22.9256;fill:none}.st3{fill:#3b9dd7}.st4{fill:#96c93d}.st5{fill:#e74548}.st6{fill:#fff}.st7{fill:#ef8b21}.st7,.st8,.st9{fill-rule:evenodd;clip-rule:evenodd}.st8{fill:#585857}.st9{fill:#3c3c3b}</style><g id="XMLID_2_"><path id="XMLID_42_" class="st0" d="M178.6 140.6l-7.3 7.3"/><path id="XMLID_41_" class="st0" d="M116.7 202.5l-7.3 7.3"/><g id="XMLID_36_"><path id="XMLID_38_" class="st1" d="M271.6 179.1l7.6-5-7.6-5 5.1-7.6-9-1.8 1.8-8.9-8.9 1.8-1.8-9-7.6 5.1-5-7.6-5 7.6-7.6-5.1-1.8 9-8.9-1.8 1.8 8.9-9 1.8 5.1 7.6-7.6 5 7.6 5-5.1 7.6 9 1.8-1.8 8.9 8.9-1.8 1.8 9 7.6-5.1 5 7.6 5-7.6 7.6 5.1 1.8-9 8.9 1.8-1.8-8.9 9-1.8-5.1-7.6zm-18.1-1.1h-3.2v3.2c0 2.7-1.8 4.8-4 4.8s-4-2.1-4-4.8V178h-3.2c-2.7 0-4.8-1.8-4.8-4s2.1-4 4.8-4h3.2v-3.2c0-2.7 1.8-4.8 4-4.8s4 2.1 4 4.8v3.2h3.2c2.7 0 4.8 1.8 4.8 4s-2.2 4-4.8 4z"/><path id="XMLID_37_" class="st2" d="M246.2 194.3c11.2 0 20.3-9.1 20.3-20.3 0-11.2-9.1-20.3-20.3-20.3-11.2 0-20.3 9.1-20.3 20.3 0 11.2 9.2 20.3 20.3 20.3z"/></g><path id="XMLID_35_" class="st0" d="M144.3 126v11"/><path id="XMLID_34_" class="st0" d="M144.3 214v10"/><path id="XMLID_33_" class="st0" d="M95.3 175h10"/><path id="XMLID_32_" class="st0" d="M182.3 175h11"/><path id="XMLID_31_" class="st0" d="M109.4 140.6l7.3 7.3"/><path id="XMLID_30_" class="st0" d="M171.3 202.5l7.3 7.3"/><g id="XMLID_27_"><path id="XMLID_29_" class="st3" d="M20 167h46v21H20z"/><path id="XMLID_28_" class="st3" d="M54 167H32v-5.2c0-2.2 1.5-3.8 3.7-3.8H50c2.3 0 4 1.7 4 4.1v4.9z"/></g><g id="XMLID_23_"><path id="XMLID_26_" class="st4" d="M155 154h-22v-5.2c0-2.2 1.5-3.8 3.7-3.8H151c2.3 0 4 1.7 4 4.1v4.9z"/><path id="XMLID_24_" class="st4" d="M167.3 154h-46v43h46v-43z"/></g><g id="XMLID_16_"><path id="XMLID_19_" class="st5" d="M99 246v43h91v-43H99zm23.5 32.4c-6.2 0-11.3-5.1-11.3-11.3s5.1-11.3 11.3-11.3 11.3 5.1 11.3 11.3-5.1 11.3-11.3 11.3zm45.3 0c-6.2 0-11.3-5.1-11.3-11.3s5.1-11.3 11.3-11.3c6.2 0 11.3 5.1 11.3 11.3s-5.1 11.3-11.3 11.3z"/><path id="XMLID_18_" class="st5" d="M134 246h-22v-5.2c0-2.2 1.5-3.8 3.7-3.8H130c2.3 0 4 1.7 4 4.1v4.9z"/><path id="XMLID_17_" class="st5" d="M178 246h-22v-5.2c0-2.2 1.5-3.8 3.7-3.8H174c2.3 0 4 1.7 4 4.1v4.9z"/></g><g id="XMLID_13_"><path id="XMLID_15_" class="st6" d="M135 168h6v4h4.3c1.6 0 2.9 1.5 2.9 3v4c0 1.5-1.4 2-3 2h-10.3c.1-4 .1-9 .1-13z"/><path id="XMLID_14_" class="st6" d="M148 183v-2h7v2h-7z"/></g><g id="XMLID_10_"><path id="XMLID_12_" class="st1" d="M211 98h6.8c2.4 0 4.3-1.6 4.3-4s-1.9-4-4.3-4H211v-8H80v8h-6.1c-2.4 0-4.3 1.6-4.3 4s1.9 4 4.3 4H80v8h131v-8z"/><path id="XMLID_11_" class="st7" d="M80.3 98h131v8h-131z"/></g><g id="XMLID_3_"><g id="XMLID_5_"><path id="XMLID_6_" class="st8" d="M62.7 241.2c-6.5.2-11.9-5-12.1-11.5-.2-6.5 5-11.9 11.5-12.1 6.5-.2 11.9 5 12.1 11.5.2 6.5-5 11.9-11.5 12.1zm2.4-.9l-.5-22 .5 22zm-4.8.2l-.5-22 .5 22z"/></g><path id="XMLID_4_" class="st9" d="M59.3 218h6v23h-6z"/></g></g></svg>