<svg xmlns="http://www.w3.org/2000/svg" viewBox="0 0 300 300"><style>.st0{fill:#f4bd21}.st0,.st1,.st2,.st3,.st4,.st5,.st6{fill-rule:evenodd;clip-rule:evenodd}.st1{stroke:#e84744;stroke-width:4;stroke-miterlimit:10;fill:#fff}.st2{fill:#f5a71d}.st3{fill:#d73737}.st4{fill:#e84944}.st5{fill:#221f1f}.st6{fill:#b0ca3a}.st7{fill:#95c83f}.st8{fill-rule:evenodd;clip-rule:evenodd;fill:#fff;stroke:#e84943;stroke-width:4;stroke-miterlimit:10}.st9{fill:#d73737}.st10{fill-rule:evenodd;clip-rule:evenodd;fill:#f78f20}</style><g id="XMLID_48_"><path id="XMLID_30_" class="st0" d="M210.6 205.4L79.1 146.7l23.3-52.1 131.5 58.7-23.3 52.1z"/><path id="XMLID_9_" class="st1" d="M111.387 116.145l18.262 8.156-11.42 25.57-18.267-8.153z"/><path id="XMLID_8_" class="st1" d="M159.95 113.986l19.997.22-.31 27.997-19.997-.22z"/><path id="XMLID_38_" class="st2" d="M61 269V164h60v105H61z"/><path id="XMLID_37_" class="st3" d="M67 217v-40h54v40H67z"/><path id="XMLID_36_" class="st4" d="M73 211v-28h48v28H73z"/><path id="XMLID_35_" class="st1" d="M75 231h28v20H75z"/><circle id="XMLID_33_" class="st5" cx="97" cy="187" r="2"/><path id="XMLID_7_" class="st6" d="M222.9 270.3l-96.2.8 122.7-93.2-26.5 92.4z"/><path id="XMLID_6_" class="st5" d="M249.4 177.9l-122.6 93.2-2.3-3 122.6-93.2 2.3 3z"/><path id="XMLID_31_" class="st7" d="M50 277h200v12H50z"/><path id="XMLID_29_" class="st8" d="M167.956 238.257l6.646 18.864-26.41 9.31-6.646-18.864z"/><path id="XMLID_40_" class="st6" d="M221.3 204.9l-11.3 11 28.3 28 11-11-28-28z"/><path id="XMLID_39_" class="st5" d="M249.3 232.9L238 244.2l2.8 2.8 11.3-11.3-2.8-2.8z"/><path id="XMLID_41_" class="st3" d="M61 269h166v8H61v-8z"/><path id="XMLID_4_" class="st5" d="M165 262h28v7h-28z"/><path id="XMLID_32_" class="st1" d="M203.928 157.425l9.118 17.802-24.922 12.765-9.118-17.802z"/><g id="XMLID_3_"><path id="XMLID_45_" class="st9" d="M66 126h4v38h-4z"/><path id="XMLID_44_" class="st10" d="M76 122H60v-14c0-3.3 2.7-6 6-6h4c3.3 0 6 2.7 6 6v14z"/><path id="XMLID_43_" class="st4" d="M72 122h-8v-12c0-2.2 1.8-4 4-4s4 1.8 4 4v12z"/><path id="XMLID_42_" class="st0" d="M59 122h18v4H59z"/><circle id="XMLID_34_" class="st5" cx="71" cy="115" r="1"/></g></g></svg>