<svg id="Layer_1" xmlns="http://www.w3.org/2000/svg" viewBox="0 0 200 200"><style>.st0{fill:#f9c319}.st1{fill:#f7a71b}.st2{fill:#f7901e}.st3{fill:#93c73f}.st4{fill:#dcdbd9}.st5{fill:none;stroke:#604040;stroke-miterlimit:10}.st6{fill:#9e9f9f}.st7{fill:#de4443}.st8{fill:#fff}</style><g id="XMLID_2_"><path id="XMLID_31_" class="st0" d="M0 39h156v125H0z"/><path id="XMLID_29_" class="st1" d="M0 148h156v8H0z"/><path id="XMLID_28_" class="st2" d="M0 156h156v8H0z"/><path id="XMLID_27_" class="st3" d="M0 8h156v36H0z"/><path id="XMLID_26_" class="st4" d="M46 24.8c0 4.2-2.7 7.5-6 7.5s-6-3.4-6-7.5v-17c0-4.2 2.7-7.5 6-7.5s6 3.4 6 7.5v17z"/><path id="XMLID_23_" class="st4" d="M122 24.8c0 4.2-2.7 7.5-6 7.5s-6-3.4-6-7.5v-17c0-4.2 2.7-7.5 6-7.5s6 3.4 6 7.5v17z"/><g id="XMLID_12_"><path id="XMLID_18_" class="st1" d="M68 68h20v20H68z"/><path id="XMLID_17_" class="st1" d="M106 68h20v20h-20z"/><path id="XMLID_16_" class="st1" d="M68 104h20v20H68z"/><path id="XMLID_15_" class="st1" d="M30 104h20v20H30z"/><path id="XMLID_14_" class="st1" d="M106 104h20v20h-20z"/><circle id="XMLID_13_" class="st3" cx="40" cy="78" r="18"/></g><path id="XMLID_11_" class="st6" d="M86.6 154.6l-12.2 12c-6.8 6.8-17.3 7.2-23.5 1-1.1-1.1-1.9-2.3-2.6-3.6h-4.4c0 .1.1.2.1.2.1.2.2.4.2.6 1 2.1 2.3 4 3.9 5.6 3.7 3.7 8.6 5.5 13.6 5.5 5.5 0 11.2-2.2 15.5-6.5l12.2-12-2.8-2.8z"/><g id="XMLID_6_"><path id="XMLID_10_" transform="rotate(45.001 86.1 158.401)" class="st6" d="M78.1 150.4h16v16h-16z"/><circle id="XMLID_9_" class="st6" cx="160.9" cy="83.6" r="22"/><path id="XMLID_8_" transform="rotate(-45.001 119.789 124.712)" class="st7" d="M80.1 112.7h79.3v24H80.1z"/><path id="XMLID_7_" class="st4" d="M175.2 100.4l1.7-1.7.8-.8-.2-.2-30.9-30.9-2.4 2.6 30.8 30.8z"/></g><g id="XMLID_3_"><path id="XMLID_5_" class="st8" d="M30 70h5v4.4h4.6c1.6 0 3.3.5 3.4 2.1 0 1.2.1 3 .1 4.2 0 1.6-1.6 3.2-3.1 3.2-2.7 0-5.7.1-8.4.1H30V70z"/><path id="XMLID_4_" class="st8" d="M42 86v-2h7v2h-7z"/></g></g></svg>