<svg xmlns="http://www.w3.org/2000/svg" viewBox="0 0 300 300"><style>.st0{fill:none;stroke:#329fd9;stroke-width:4;stroke-miterlimit:10}.st1{fill:#329fd9}.st2,.st3{stroke:#fbc410;fill:none;stroke-width:4;stroke-miterlimit:10}.st3{stroke:#faca0e}.st4{fill:#565656}.st5{fill:#fbc410}.st6{fill:#96c93d}.st7{fill:#231f20}.st8{fill:#f04f4f}.st9{fill:none;stroke:#329fd9;stroke-width:8;stroke-linecap:round;stroke-miterlimit:10}.st10{fill:#b7b7b8}.st11{fill:none;stroke:#329fd9;stroke-width:8;stroke-linecap:round;stroke-linejoin:round;stroke-miterlimit:10}.st12{fill:#f29320}.st13{fill:#fff;stroke:#1d1d1b}.st13,.st14,.st15,.st16{stroke-miterlimit:10}.st14{stroke:#b7b7b8;stroke-width:8}.st14,.st15,.st16{fill:none}.st15{stroke:#565656;stroke-width:3}.st16{stroke:#96c93d;stroke-width:4}</style><g id="XMLID_2_"><path id="XMLID_179_" class="st0" d="M255.1 173.7c-6-6.7-14.6-10.8-24.2-10.8-18 0-32.5 14.6-32.5 32.5"/><path id="XMLID_178_" class="st1" d="M223.7 144.4c-.3.1-.5.1-.8.2-3 1.1-4.6 4.2-3.6 6.9 1 2.7 4.2 3.9 7.2 2.8.3-.1.5-.2.7-.4l-3.5-9.5z"/><path id="XMLID_177_" class="st2" d="M229.1 154.7l-4.7-12.4"/><path id="XMLID_176_" class="st1" d="M223.11 157.412l-5.053 1.906-1.87-4.958 5.05-1.907z"/><g id="XMLID_171_"><path id="XMLID_175_" class="st3" d="M91.8 195.7l4.9 28.8"/><path id="XMLID_174_" class="st4" d="M93.3 190.3l-4.8.8 2 5.6 2.9-.5z"/><path id="XMLID_173_" class="st3" d="M95.9 253.5l-3-24.1c-.4-2.5 1.3-4.9 3.8-5.3 2.5-.4 4.9 1.3 5.3 3.8l5.3 23.7"/><path id="XMLID_172_" class="st3" d="M104.1 235.9l-10.5 1.8"/></g><g id="XMLID_166_"><path id="XMLID_170_" class="st3" d="M134.3 192.5l-.5 29.2"/><path id="XMLID_169_" class="st4" d="M137.1 188.3l-5.5-.1 1 5.1 3.3.1z"/><path id="XMLID_168_" class="st3" d="M127.5 250l1.6-24.2c0-2.5 2.2-4.6 4.7-4.5 2.5 0 4.6 2.2 4.5 4.7l.7 24.2"/><path id="XMLID_167_" class="st3" d="M138.9 234.2l-10.7-.2"/></g><g id="XMLID_161_"><path id="XMLID_165_" class="st3" d="M173.2 189.6l-.5 29.2"/><path id="XMLID_164_" class="st4" d="M176 185.7l-5.4-.1 1 5.3h3.3z"/><path id="XMLID_163_" class="st3" d="M166.4 247.2L168 223c0-2.5 2.2-4.6 4.7-4.5 2.5 0 4.6 2.2 4.5 4.7l.7 24.2"/><path id="XMLID_162_" class="st3" d="M177.8 231.4l-10.6-.2"/></g><path id="XMLID_160_" class="st5" d="M224.2 231.8l-143 23.3v23.4h143z"/><path id="XMLID_159_" class="st6" d="M230 172v23.5h-.8v.8h-22.6v-1.2c0-12.7 10.3-23.1 23-23.1h.4z"/><path id="XMLID_158_" class="st6" d="M254.2 196.4c-.2 12.5-10.4 22.7-23 22.7-.1 0-.3-.1-.3-.1v-21.7h.8v-.8h22.5z"/><path id="XMLID_155_" class="st7" d="M259 191.6c-.2-1.2-2-2.1-2.3-3.2-.3-1.2.9-2.8.4-3.9s-2.5-1.5-3.1-2.5c-.6-1 .1-3-.6-3.9-.7-1-2.8-.8-3.6-1.6-.8-.8-.7-2.9-1.6-3.6-.4-.3-1-.4-1.6-.4h-.8c-.6 0-1.1 0-1.5-.3-1-.6-1.4-2.6-2.5-3.1-.2-.1-.4-.1-.6-.1-.9 0-2 .6-2.9.6-.2 0-.3 0-.4-.1-1.1-.3-2-2.2-3.2-2.3h-.2c-1.1 0-2.4 1.4-3.5 1.4-1.2 0-2.4-1.4-3.5-1.4h-.2c-1.2.2-2.1 2-3.2 2.3-.1 0-.3.1-.4.1-.9 0-2-.6-2.9-.6-.2 0-.4 0-.6.1-1.1.5-1.5 2.5-2.5 3.1-.4.2-.9.3-1.5.3h-.8c-.6 0-1.2 0-1.6.4-1 .7-.8 2.8-1.6 3.6-.8.8-2.9.7-3.6 1.6-.7.9 0 2.9-.6 3.9s-2.6 1.4-3.1 2.5.7 2.8.4 3.9c-.3 1.1-2.2 2-2.3 3.2-.2 1.2 1.4 2.5 1.4 3.7 0 1.2-1.6 2.5-1.4 3.7.2 1.2 2 2.1 2.3 3.2.3 1.2-.9 2.8-.4 3.9s2.5 1.5 3.1 2.5c.6 1-.1 3 .6 3.9.7 1 2.8.8 3.6 1.6.8.8.7 2.9 1.6 3.6.4.3 1 .4 1.6.4h.8c.6 0 1.1 0 1.5.3 1 .6 1.4 2.6 2.5 3.1.2.1.4.1.6.1.9 0 2-.6 2.9-.6.2 0 .3 0 .4.1 1.1.3 2 2.2 3.2 2.3h.2c1.1 0 2.4-1.4 3.5-1.4 1.2 0 2.4 1.4 3.5 1.4h.2c1.2-.2 2.1-2 3.2-2.3.1 0 .3-.1.4-.1.9 0 2 .6 2.9.6.2 0 .4 0 .6-.1 1.1-.5 1.5-2.5 2.5-3.1.4-.2.9-.3 1.5-.3h.8c.6 0 1.2 0 1.6-.4 1-.7.8-2.8 1.6-3.6.8-.8 2.9-.7 3.6-1.6.7-.9 0-2.9.6-3.9s2.6-1.4 3.1-2.5-.7-2.8-.4-3.9c.3-1.1 2.2-2 2.3-3.2.2-1.2-1.4-2.5-1.4-3.7s1.5-2.5 1.4-3.7zm-28.1 24.5c-11.5 0-20.8-9.3-20.8-20.8s9.3-20.8 20.8-20.8 20.8 9.3 20.8 20.8c0 11.4-9.3 20.8-20.8 20.8z"/><circle id="XMLID_154_" class="st8" cx="231" cy="196.2" r="6.6"/><g id="XMLID_146_"><path id="XMLID_153_" class="st0" d="M100.4 165.4c1.9-9.1.1-18.9-5.8-26.9-11-15-32.1-18.3-47.2-7.3"/><path id="XMLID_152_" class="st6" d="M86.8 144.2l-18.6 13.6-.5-.7-.7.5-13.2-18s.5-.4.8-.6c10.3-7.5 24.5-5.4 32.1 4.9.1.2.2.3.1.3z"/><path id="XMLID_151_" class="st6" d="M81.5 177.3c-10.2 7.2-24.7 5-32.1-5.2-.1-.1-.4-.3-.4-.3l17.9-13.1.5.7.7-.5 13.4 18.4z"/><path id="XMLID_148_" class="st7" d="M87.8 178.6c.9-.8.5-2.8 1.2-3.8.8-.9 2.8-1 3.4-2 .6-1-.3-2.9.2-3.9.5-1.1 2.5-1.7 2.8-2.8.3-1.2-1-2.7-.8-3.9s1.9-2.2 2-3.4c0-.5-.3-1-.7-1.5-.2-.2-.3-.4-.5-.7-.3-.4-.6-.9-.7-1.3-.1-1.2 1.3-2.7 1-3.8 0-.2-.1-.4-.3-.5-.5-.7-1.6-1.3-2.2-2-.1-.1-.2-.2-.2-.4-.4-1.1.6-2.9 0-4l-.1-.1c-.7-.9-2.6-1.1-3.2-2-.7-.9-.3-2.8-.9-3.7l-.1-.1c-.8-.9-2.8-.5-3.8-1.2l-.3-.3c-.5-.7-.7-2-1.3-2.7-.1-.2-.3-.3-.4-.4-1-.6-2.9.3-3.9-.2-.4-.2-.8-.6-1.1-1-.2-.2-.3-.5-.5-.7-.4-.5-.7-.9-1.2-1.1-1.2-.3-2.7 1-3.9.8-1.2-.2-2.2-1.9-3.4-2-1.2 0-2.3 1.7-3.5 1.8-1.2.1-2.7-1.3-3.8-1-1.2.3-1.8 2.2-2.9 2.7-1.1.4-2.9-.6-4 0-1 .6-1.2 2.6-2.1 3.3-1 .7-3 .2-3.8 1-.9.8-.5 2.8-1.2 3.8-.8.9-2.8 1-3.4 2-.6 1 .3 2.9-.2 3.9-.5 1.1-2.5 1.7-2.8 2.8-.3 1.2 1 2.7.8 3.9-.2 1.2-1.9 2.2-2 3.4 0 .5.3 1 .7 1.5.2.2.3.4.5.7.3.4.6.9.7 1.3.1 1.2-1.3 2.7-1 3.8 0 .2.1.4.3.5.5.7 1.6 1.3 2.2 2 .1.1.2.2.2.4.4 1.1-.6 2.9 0 4l.1.1c.7.9 2.6 1.1 3.2 2 .7.9.3 2.8.9 3.7l.1.1c.8.9 2.8.5 3.8 1.2l.3.3c.5.7.7 2 1.3 2.7.1.2.3.3.4.4 1 .6 2.9-.3 3.9.2.4.2.8.6 1.1 1 .2.2.3.5.5.7.4.5.7.9 1.2 1.1 1.2.3 2.7-1 3.9-.8 1.2.2 2.2 1.9 3.4 2 1.2 0 2.3-1.7 3.5-1.8 1.2-.1 2.7 1.3 3.8 1 1.2-.3 1.8-2.2 2.9-2.7 1.1-.4 2.9.6 4 0 1-.6 1.2-2.6 2.1-3.3.9-.7 2.9-.1 3.8-1zm-36.3-8.2c-6.8-9.3-4.8-22.3 4.5-29.1 9.3-6.8 22.3-4.8 29.1 4.5s4.8 22.3-4.5 29.1c-9.3 6.7-22.3 4.7-29.1-4.5z"/><circle id="XMLID_147_" class="st8" cx="67.6" cy="158.7" r="6.6"/></g><path id="XMLID_145_" class="st9" d="M230 195.2l-19.1-47.1"/><g id="XMLID_143_"><path id="XMLID_144_" class="st10" d="M115.3 137.2h6.6v23.3h-6.6z"/></g><path id="XMLID_142_" class="st11" d="M213.7 155.9l-40.2 26.9-13.3-28.3-25.8 30.8-16.6-27.5-26.6 30.8-21.6-29.1 50.8-1.4 34.2-4.3 59.1 2.1"/><g id="XMLID_136_"><path id="XMLID_114_" class="st8" d="M185 278.5v-20.1c0-5.6 4.5-10.1 10.1-10.1s10.1 4.5 10.1 10.1v20.1H185z"/><path id="XMLID_111_" class="st12" d="M195.1 249.8c4.8 0 8.6 3.9 8.6 8.6V277h-17.3v-18.6c.1-4.8 3.9-8.6 8.7-8.6m0-3c-6.4 0-11.6 5.2-11.6 11.6V280h23.3v-21.6c-.1-6.4-5.3-11.6-11.7-11.6z"/></g><g id="XMLID_130_"><path id="XMLID_119_" class="st8" d="M156.7 282.7v-20.1c0-5.6 4.5-10.1 10.1-10.1S177 257 177 262.6v20.1h-20.3z"/><path id="XMLID_107_" class="st12" d="M166.8 253.9c4.8 0 8.6 3.9 8.6 8.6v18.6h-17.3v-18.6c.1-4.7 4-8.6 8.7-8.6m0-3c-6.4 0-11.6 5.2-11.6 11.6v21.6h23.3v-21.6c0-6.4-5.2-11.6-11.7-11.6z"/></g><g id="XMLID_124_"><path id="XMLID_125_" class="st8" d="M128.4 282.7v-15.1c0-5.6 4.5-10.1 10.1-10.1s10.1 4.5 10.1 10.1v15.1h-20.2z"/><path id="XMLID_120_" class="st12" d="M138.6 258.9c4.8 0 8.6 3.9 8.6 8.6v13.6h-17.3v-13.6c0-4.7 3.9-8.6 8.7-8.6m0-3c-6.4 0-11.6 5.2-11.6 11.6v16.6h23.3v-16.6c-.1-6.4-5.3-11.6-11.7-11.6z"/></g><g id="XMLID_118_"><path id="XMLID_129_" class="st8" d="M100.2 283.5v-11.8c0-5.6 4.5-10.1 10.1-10.1s10.1 4.5 10.1 10.1v11.8h-20.2z"/><path id="XMLID_126_" class="st12" d="M110.3 263.1c4.8 0 8.6 3.9 8.6 8.6V282h-17.3v-10.3c.1-4.8 4-8.6 8.7-8.6m0-3c-6.4 0-11.6 5.2-11.6 11.6V285H122v-13.3c0-6.4-5.3-11.6-11.7-11.6z"/></g><path id="XMLID_116_" class="st7" d="M134.8 142l-29.3-3.8c-1.7-.2-2.9-1.8-2.7-3.5l.1-.5c.2-1.7 1.8-2.9 3.5-2.7l29.3 3.8c1.7.2 2.9 1.8 2.7 3.5l-.1.5c-.2 1.7-1.8 2.9-3.5 2.7z"/><path id="XMLID_115_" class="st14" d="M209.7 146.2l-5.5-12.9s5-7 14.1-7.9c7.3-.7 2-7.2-1.7-9.1-4.2-2.2-12.5-6.2-23.3-1.7"/><path id="XMLID_110_" class="st6" d="M195.1 118l-14.1 5c-1.7.6-3.6-.3-4.2-2-.6-1.7.3-3.6 2-4.2l14.1-5 2.2 6.2z"/><path id="XMLID_105_" class="st7" d="M204.563 146.55l8.477-4.062 1.21 2.525-8.477 4.062z"/><path id="XMLID_47_" class="st15" d="M192 110.4l4.6 11.9s1.6 5.1-5.2 4.8c-6.9-.3-9.6-1.3-9.6 2"/><path id="XMLID_19_" class="st16" d="M193.4 162.5L178 173.1"/><path id="XMLID_18_" class="st4" d="M195 172.9l-1.2 1.2-5.2-9.9 1.2-1.1z"/><path id="XMLID_17_" class="st4" d="M186.6 178.1l-1.2 1.1-5.2-9.8 1.3-1.1z"/><path id="XMLID_15_" class="st6" d="M52 277h200v12H52z"/></g></svg>