<svg xmlns="http://www.w3.org/2000/svg" viewBox="0 0 300 300"><style>.st0{fill:#329fd9}.st1{fill:#1880af}.st2{fill:#8ea7a7}.st3{fill:#96c93d}.st4{fill:#fff}.st5{fill:#f6a71c}.st6{fill:#f04f4f}.st7{fill:#c97f4c}.st8{fill:#fac8b6}.st9{fill:#815b24}.st10{fill:#c03e3e}.st11{fill:#a6c3c5}.st12{fill:#5a4a42}.st13{fill:#fbc410}.st14{fill:#f7901e}</style><g id="XMLID_3_"><path id="XMLID_100_" class="st0" d="M195.7 247.2c-4.9 0-8.9-4.2-9.2-8.2-.3 4-4.2 8.4-9.2 8.4-4.9 0-8.9-4.4-9.2-8.4-.3 4-4.2 8.4-9.2 8.4-4.9 0-8.9-4.4-9.2-8.4-.3 4-4.2 8.4-9.2 8.4s-8.9-4.4-9.2-8.4c-.3 4-4.2 8.4-9.2 8.4-4.9 0-8.9-4.4-9.2-8.4-.3 4-4 8.2-8.9 8.2-1.6 0-3.1-.6-4.1-1.3V277h100v-31.1c-1.2.7-2.7 1.3-4.2 1.3z"/><g id="XMLID_92_"><path id="XMLID_98_" class="st1" d="M158.9 256v.5c0-.2.1-.3 0-.5z"/><path id="XMLID_97_" class="st1" d="M103.8 256v.5c.1-.2.1-.3 0-.5z"/><path id="XMLID_95_" class="st1" d="M195.4 256.5c0 4.9-4 8.9-9.1 8.9s-9.1-4-9.1-8.9c0 4.9-4.1 8.9-9.1 8.9s-9.2-4-9.2-8.9c0 4.9-4.1 8.9-9.2 8.9s-9.2-4-9.2-8.9c0 4.9-4.1 8.9-9.2 8.9s-9.2-4-9.2-8.9c0 4.9-4.1 8.9-9.2 8.9s-9.2-4-9.2-8.9c0 3-1.5 5.6-3.9 7.3V277h100v-12.7c-1.9-1.5-4.4-4.4-4.4-7.8z"/><path id="XMLID_94_" class="st1" d="M195.6 256v.5c.1-.2.1-.3 0-.5z"/></g><g id="XMLID_86_"><path id="XMLID_91_" class="st2" d="M74 44h3v58h-3z"/><path id="XMLID_90_" class="st3" d="M74 44h48v27H74z"/><g id="XMLID_87_"><path id="XMLID_89_" class="st4" d="M90 50h5v4h4c1.5 0 3 .5 3 2v4c0 1.5-1.5 3-3 3h-9V50z"/><path id="XMLID_88_" class="st4" d="M101 65v-2h7v2h-7z"/></g></g><path id="XMLID_85_" class="st3" d="M50 277h200v12H50z"/><path id="XMLID_84_" class="st5" d="M96 198v34c6.1-17.1 30-29.8 56.5-29.8h.5V198H96z"/><path id="XMLID_83_" class="st6" d="M96 194h57v4H96z"/><path id="XMLID_82_" class="st5" d="M204 198v34c-6.1-17.1-30-29.8-56.5-29.8h-.5V198h57z"/><path id="XMLID_81_" class="st6" d="M147 194h57v4h-57z"/><g id="XMLID_62_"><path id="XMLID_80_" class="st7" d="M168.5 167c-3 0-5.5-2.9-5.5-6.2v-7c0-3.3 2.5-5.8 5.5-5.8s5.5 2.5 5.5 5.8v7c0 3.3-2.4 6.2-5.5 6.2z"/><path id="XMLID_79_" class="st8" d="M173 159c0 2.2-1.8 4-4 4h-1c-2.2 0-4-1.8-4-4v-2c0-2.2 1.8-4 4-4h1c2.2 0 4 1.8 4 4v2z"/><ellipse id="XMLID_78_" class="st8" cx="170.8" cy="154.3" rx="2.2" ry="2.5"/><ellipse id="XMLID_77_" class="st8" cx="166.2" cy="154.3" rx="2.2" ry="2.5"/><path id="XMLID_76_" class="st9" d="M166.3 156.8c.6 0 1.1-.8 1.1-1.8h-2.2c-.1 1 .4 1.8 1.1 1.8z"/><path id="XMLID_75_" class="st9" d="M170.8 156.8c.6 0 1.1-.8 1.1-1.8h-2.2c-.1 1 .4 1.8 1.1 1.8z"/><path id="XMLID_74_" class="st6" d="M181 194h-25v-27.5c0-2.1 1.7-3.5 3.8-3.5h17.5c2 0 3.7 1.4 3.7 3.5V194z"/><path id="XMLID_73_" class="st10" d="M165 163h7v31h-7z"/><path id="XMLID_72_" class="st7" d="M165.1 161.8c0 1.7 1.5 4 3.4 4s3.4-2.3 3.4-4-1.5-3-3.4-3-3.4 1.3-3.4 3z"/><path id="XMLID_71_" class="st8" d="M166.2 160.3c0 .3 1 1.5 2.2 1.5s2.2-1.2 2.2-1.5-1-.5-2.2-.5-2.2.2-2.2.5z"/><path id="XMLID_70_" class="st0" d="M178.3 162h-1.5c-.5 0-.8 1-.8 1.8v7c0 1.6 1.3 3 3 3s3-1.4 3-3v-5.3c0-2.1-1.7-3.5-3.7-3.5z"/><path id="XMLID_69_" class="st0" d="M158.7 162h1.5c.5 0 .8 1 .8 1.8v7c0 1.6-1.3 3-3 3s-3-1.4-3-3v-5.3c0-2.1 1.7-3.5 3.7-3.5z"/><path id="XMLID_68_" class="st11" d="M167 173h3v20h-3z"/><path id="XMLID_67_" class="st8" d="M171 176.5c0-.8-.7-1.5-1.5-1.5h-2c-.8 0-1.5.7-1.5 1.5v1c0 .8.7 1.5 1.5 1.5h2c.8 0 1.5-.7 1.5-1.5v-1z"/><path id="XMLID_66_" class="st8" d="M171 181.5c0-.8-.7-1.5-1.5-1.5h-2c-.8 0-1.5.7-1.5 1.5v1c0 .8.7 1.5 1.5 1.5h2c.8 0 1.5-.7 1.5-1.5v-1z"/><path id="XMLID_65_" class="st6" d="M170 175h7v4h-7z"/><path id="XMLID_64_" class="st6" d="M162 180h5v4h-5z"/><path id="XMLID_63_" class="st11" d="M163 184h11v1h-11z"/></g><g id="XMLID_44_"><path id="XMLID_61_" class="st6" d="M118 194h16v-27.5c0-2-1.6-3.5-3.5-3.5h-8.8c-2 0-3.7 1.7-3.7 3.7V194z"/><path id="XMLID_60_" class="st10" d="M126 163h8v31h-8z"/><path id="XMLID_59_" class="st0" d="M120.7 162h1.5c.5 0 .8 1 .8 1.8v7c0 1.6-1.3 3-3 3s-3-1.4-3-3v-5.3c0-2.1 1.7-3.5 3.7-3.5z"/><path id="XMLID_58_" class="st12" d="M129.4 168c3 0 5.6-2.9 5.6-6.2v-7c0-3.3-2.6-5.8-5.6-5.8-3 0-5.4 2.5-5.4 5.8v7c0 3.3 2.4 6.2 5.4 6.2z"/><path id="XMLID_57_" class="st8" d="M135 158c0-2.2-1.8-4-4-4s-4 1.8-4 4v2c0 2.2 1.8 4 4 4s4-1.8 4-4v-2z"/><ellipse id="XMLID_56_" class="st8" cx="131.7" cy="155.3" rx="2.2" ry="2.5"/><path id="XMLID_55_" class="st12" d="M131.7 157.8c-.6 0-1.1-.8-1.1-1.8h2.2c0 1-.5 1.8-1.1 1.8z"/><path id="XMLID_54_" class="st11" d="M129 173h3v20h-3z"/><path id="XMLID_53_" class="st8" d="M129.5 175h2c.8 0 1.5.7 1.5 1.5v1c0 .8-.7 1.5-1.5 1.5h-2c-.8 0-1.5-.7-1.5-1.5v-1c0-.8.7-1.5 1.5-1.5z"/><path id="XMLID_52_" class="st12" d="M134.8 162.8c0 1.7-1.5 4-3.4 4s-3.4-2.3-3.4-4c0-1.7 1.5-3 3.4-3s3.4 1.3 3.4 3z"/><path id="XMLID_51_" class="st8" d="M134.7 161.3c0 .3-.8 1.5-1.8 1.5s-1.8-1.2-1.8-1.5c0-.3.8-.5 1.8-.5s1.8.2 1.8.5z"/><path id="XMLID_48_" class="st6" d="M122 175h7v4h-7z"/><path id="XMLID_45_" class="st11" d="M125 184h11v1h-11z"/></g><g id="XMLID_28_"><path id="XMLID_43_" class="st13" d="M50 138h50v17H50z"/><path id="XMLID_42_" class="st5" d="M50 237h50v40H50z"/><g id="XMLID_32_"><path id="XMLID_41_" class="st13" d="M50 241h18v8H50z"/><path id="XMLID_40_" class="st13" d="M72 241h17v8H72z"/><path id="XMLID_39_" class="st13" d="M61 253h17v8H61z"/><path id="XMLID_38_" class="st13" d="M82 253h18v8H82z"/><path id="XMLID_37_" class="st13" d="M93 241h7v8h-7z"/><path id="XMLID_36_" class="st13" d="M50 265h18v8H50z"/><path id="XMLID_35_" class="st13" d="M72 265h17v8H72z"/><path id="XMLID_34_" class="st13" d="M93 265h7v8h-7z"/><path id="XMLID_33_" class="st13" d="M50 253h7v8h-7z"/></g><path id="XMLID_31_" class="st13" d="M54 159h42v78H54z"/><path id="XMLID_30_" class="st14" d="M50 155l4 6h42l4-6z"/><path id="XMLID_29_" class="st6" d="M83 199v-13.2c0-4.9-3.6-8.8-8-8.8s-8 3.9-8 8.8V199h16z"/></g><path id="XMLID_27_" class="st6" d="M45.7 137L75 84l29.4 53z"/><path id="XMLID_26_" class="st14" d="M46 137l4 6h50l4-6z"/><g id="XMLID_6_"><path id="XMLID_25_" class="st13" d="M200 138h50v17h-50z"/><path id="XMLID_24_" class="st5" d="M200 237h50v40h-50z"/><g id="XMLID_10_"><path id="XMLID_23_" class="st13" d="M200 241h18v8h-18z"/><path id="XMLID_22_" class="st13" d="M222 241h17v8h-17z"/><path id="XMLID_21_" class="st13" d="M211 253h17v8h-17z"/><path id="XMLID_20_" class="st13" d="M232 253h18v8h-18z"/><path id="XMLID_16_" class="st13" d="M243 241h7v8h-7z"/><path id="XMLID_14_" class="st13" d="M200 265h18v8h-18z"/><path id="XMLID_13_" class="st13" d="M222 265h17v8h-17z"/><path id="XMLID_12_" class="st13" d="M243 265h7v8h-7z"/><path id="XMLID_11_" class="st13" d="M200 253h7v8h-7z"/></g><path id="XMLID_9_" class="st13" d="M204 159h42v78h-42z"/><path id="XMLID_8_" class="st14" d="M200 155l4 6h42l4-6z"/><path id="XMLID_7_" class="st6" d="M233 199v-13.2c0-4.9-3.6-8.8-8-8.8s-8 3.9-8 8.8V199h16z"/></g><path id="XMLID_5_" class="st6" d="M195.7 137L225 84l29.4 53z"/><path id="XMLID_4_" class="st14" d="M196 137l4 6h50l4-6z"/></g></svg>