<svg width="178" height="65" xmlns="http://www.w3.org/2000/svg"><path d="M97.133 38.147H66.857V34.23a4.697 4.697 0 0 1 4.692-4.694h20.89c2.59 0 4.69 2.105 4.69 4.693v3.91zM92.44 20.924l-20.89-.002c-7.338 0-13.307 5.968-13.307 13.307V51.7c0 7.333 5.97 13.303 13.303 13.303l34.184.025v-8.616l-34.182-.025a4.696 4.696 0 0 1-4.692-4.69v-4.94h38.89V34.23c0-7.34-5.97-13.307-13.307-13.307M38.84 51.7a4.697 4.697 0 0 1-4.697 4.69l-25.537.02V29.55h25.54a4.7 4.7 0 0 1 4.694 4.694V51.7zm-4.69-30.76H8.616V0H0v65.03l34.153-.026c7.338.002 13.307-5.968 13.307-13.303V34.25c0-7.337-5.97-13.306-13.308-13.306m130.152-.012H116.68v44.1h8.615V29.54h17.497v35.49h8.616V29.54h12.897a4.698 4.698 0 0 1 4.692 4.694V65.03h8.613V34.233c0-7.34-5.97-13.308-13.305-13.308"/></svg>