<svg xmlns="http://www.w3.org/2000/svg" viewBox="0 0 300 300"><style>.st0{fill:#f78f20}.st1{fill:#f0534b}.st2{fill:#c87e4b}.st3{fill:#f9c317}.st4{fill:#f5a71d}.st5{fill:#f0504f}.st6{fill:#b9b7b9}.st7{fill:#221f1f}.st8{fill:#3d9cd6}.st9{fill:#95c83f}.st10{fill:#dcdad7}.st11{fill:#fbc410}</style><g id="XMLID_2_"><path id="XMLID_51_" class="st0" d="M141 173.6h19.5v30.6H141z"/><path id="XMLID_50_" class="st1" d="M185.6 187h-66.5c-5.4 0-6.1 3.4-6.1 9.1V217c0 3.5 5 18 5.2 34h-.2v30h2.9c1.6 3.9 4 4 6.6 4h45.6c2.5 0 5.1-.3 6.9-4h3.1v-30h-.3c.3-16 5.3-30.2 5.3-34v-20.8c-.1-5.8 2.9-9.2-2.5-9.2z"/><ellipse id="XMLID_49_" class="st2" cx="150.8" cy="151.3" rx="27.9" ry="26.5"/><path id="XMLID_48_" class="st1" d="M121.2 188.6c4.6 2.1 7.2 6.3 5.8 9.3l-25 53.3c-1.4 3-6.2 3.6-10.8 1.5-4.6-2.1-7.2-6.3-5.8-9.3l24.9-53.3c1.5-2.9 6.3-3.6 10.9-1.5z"/><path id="XMLID_47_" class="st1" d="M181 188.6c-4.6 2.1-7.2 6.3-5.8 9.3l24.9 53.3c1.4 3 6.2 3.6 10.8 1.5 4.6-2.1 7.2-6.3 5.8-9.3l-24.9-53.3c-1.4-2.9-6.3-3.6-10.8-1.5z"/><ellipse id="XMLID_46_" class="st3" cx="150.8" cy="156.9" rx="25.1" ry="26.5"/><path id="XMLID_45_" class="st4" d="M150.3 183.3c4.9 0 9.5-1.4 13.4-3.7-1.6-5.1-7-8.8-13.4-8.8s-11.8 3.7-13.4 8.8c3.8 2.3 8.4 3.7 13.4 3.7z"/><path id="XMLID_44_" class="st2" d="M150.3 127.6c4.4 0 8.6 1.5 12 4.1-1.4 5.6-6.3 9.8-12 9.8-5.8 0-10.6-4.2-12-9.8 3.4-2.6 7.5-4.1 12-4.1z"/><path id="XMLID_43_" class="st2" d="M123.6 151.8c0-2.9.7-5.6 2-7.9 2.7.9 4.7 4.1 4.7 7.9 0 3.8-2 6.9-4.7 7.9-1.2-2.3-2-5-2-7.9z"/><path id="XMLID_42_" class="st2" d="M178.3 151.8c0-2.9-.7-5.6-2-7.9-2.7.9-4.7 4.1-4.7 7.9 0 3.8 2 6.9 4.7 7.9 1.2-2.3 2-5 2-7.9z"/><path id="XMLID_41_" class="st5" d="M135 274h42v15h-42z"/><path id="XMLID_40_" class="st3" d="M86.6 240.5l51.9-29.3c6.8-3.1 6.9 2.2 3.2 8.2 0 0-2.4 7.1-3.6 11.3l-41.4 25c-2.4 1.6-7.7-.4-10.6-4.4-3-4-1.8-9.2.5-10.8z"/><path id="XMLID_39_" class="st6" d="M135.4 162.4c0 3.1 2.5 5.6 5.6 5.6s5.6-2.5 5.6-5.6h-11.2z"/><path id="XMLID_38_" class="st6" d="M154.9 162.4c0 3.1 2.5 5.6 5.6 5.6 3.1 0 5.6-2.5 5.6-5.6h-11.2z"/><path id="XMLID_37_" class="st7" d="M155 177.6c0 .8-.6 1.4-1.4 1.4h-5.2c-.8 0-1.4-.6-1.4-1.4v-.2c0-.8.6-1.4 1.4-1.4h5.2c.8 0 1.4.6 1.4 1.4v.2z"/><path id="XMLID_36_" class="st7" d="M148 162.5c0 .8-1 1.5-2.3 1.5h-9.3c-1.3 0-2.3-.7-2.3-1.5s1-1.5 2.3-1.5h9.3c1.2 0 2.3.7 2.3 1.5z"/><path id="XMLID_35_" class="st7" d="M167.5 162.5c0 .8-1 1.5-2.3 1.5h-9.3c-1.3 0-2.3-.7-2.3-1.5s1-1.5 2.3-1.5h9.3c1.2 0 2.3.7 2.3 1.5z"/><path id="XMLID_34_" class="st2" d="M50 277h200v12H50z"/><path id="XMLID_33_" class="st8" d="M186.7 129.6c-1.2 1.2-5 .6-6.4 2 .7-2.1 1-5.2 2.2-6.3s3.1-1.1 4.2.1c1.3 1.1 1.2 3 0 4.2z"/><path id="XMLID_32_" class="st8" d="M194 140c-1.7 0-4-3.1-6-3.1 2-1 4.4-2.9 6-2.9 1.7 0 3 1.4 3 3s-1.4 3-3 3z"/><ellipse id="XMLID_31_" class="st7" cx="160.5" cy="165.9" rx="2.8" ry="2.1"/><ellipse id="XMLID_30_" class="st7" cx="141" cy="165.9" rx="2.8" ry="2.1"/><path id="XMLID_29_" class="st4" d="M140 153h21v2h-21z"/><path id="XMLID_28_" class="st9" d="M59 269h8v8h-8z"/><path id="XMLID_27_" class="st9" d="M67 269h8v8h-8z"/><path id="XMLID_26_" class="st9" d="M75 269h8v8h-8z"/><path id="XMLID_25_" class="st9" d="M67 261h8v8h-8z"/><path id="XMLID_24_" class="st9" d="M91 269h8v8h-8z"/><path id="XMLID_23_" class="st9" d="M99 273h4v4h-4z"/><path id="XMLID_22_" class="st9" d="M126 262h46v15h-46z"/><path id="XMLID_21_" class="st9" d="M126 254h27v8h-27z"/><path id="XMLID_20_" class="st3" d="M217 268.9c0 5-4.4 9.1-9.5 9.1s-9.5-4.1-9.5-9.1v-22.2c0-5 4.4-9.1 9.5-9.1s9.5 4.1 9.5 9.1v22.2z"/><path id="XMLID_19_" class="st4" d="M219 275.5c0-3.1-2.8-5.5-6.3-5.5H196c-3.5 0-6.3 2.4-6.3 5.5s2.8 5.5 6.3 5.5h16.7c3.5 0 6.3-2.4 6.3-5.5z"/><path id="XMLID_18_" class="st10" d="M112 104.9H54c-2.5 0-4 2.1-4 4.1v24.8c0 2 1.5 3.2 3 3.2h40l10 13v-13h9c2.5 0 4-1.3 4-3.2V109c0-2-1.5-4.1-4-4.1z"/><g id="XMLID_5_"><path id="XMLID_15_" class="st5" d="M69.3 128l.6-3.2H66l-.6 3.2h-2.8l.6-3.2h-3.1l.5-2.4h3.1l.6-3.5h-3.1l.5-2.4h3.1l.6-3.2h2.8l-.6 3.2h3.9l.6-3.2h2.8l-.6 3.2h3.1l-.5 2.4h-3.1l-.6 3.5h3.1l-.5 2.4h-3.1l-.6 3.2h-2.8zm1.1-5.6l.6-3.5h-3.9l-.6 3.5h3.9z"/><path id="XMLID_13_" class="st5" d="M82.8 117.2l-1 2L80 118l1.7-1.6-.1-.2-2.3-.3.7-2.2 2.1 1.1.1-.1-.4-2.3H84l-.4 2.3.1.1 2.1-1.1.6 2.2-2.3.4v.2l1.7 1.6-1.8 1.2-1.1-2h-.1z"/><path id="XMLID_11_" class="st5" d="M90.4 124.8c1 0 1.8.8 1.8 1.8s-.8 1.8-1.8 1.8-1.8-.8-1.8-1.8.8-1.8 1.8-1.8z"/><path id="XMLID_9_" class="st5" d="M96.4 124.8c1 0 1.8.8 1.8 1.8s-.8 1.8-1.8 1.8-1.8-.8-1.8-1.8.8-1.8 1.8-1.8z"/><path id="XMLID_6_" class="st5" d="M102.6 124.8c1 0 1.8.8 1.8 1.8s-.8 1.8-1.8 1.8-1.8-.8-1.8-1.8.8-1.8 1.8-1.8zm-1.6-1.5v-10h3.1v10H101z"/></g><path id="XMLID_4_" class="st11" d="M161.5 224.7c-1.8-1.8-4.6-1.9-6.6-.5l-.1-.1c-2.3 2.3-5.9 2.3-8.2 0-2.3-2.3-2.3-5.9 0-8.2 2.3-2.3 5.9-2.3 8.2 0l.1-.1c2 1.5 4.8 1.3 6.6-.5 1.8-1.8 1.9-4.6.5-6.6l.1-.1c-.1-.1-.9-.8-1.1-1-6.3-5.2-15.6-4.9-21.5 1-6.2 6.2-6.2 16.3 0 22.6 5.9 5.9 15.2 6.2 21.5 1 .2-.1 1-.9 1.1-1l-.1-.1c1.5-1.8 1.3-4.6-.5-6.4z"/><path id="XMLID_3_" class="st9" d="M148 216h19v8h-19z"/></g></svg>