<svg xmlns="http://www.w3.org/2000/svg" viewBox="0 0 300 300"><style>.st0{fill:#f5a71d}.st0,.st1,.st2,.st3,.st4,.st5,.st6{fill-rule:evenodd;clip-rule:evenodd}.st1{fill:#f4bd21}.st2{fill:#d73737}.st3{fill:#b0ca3a}.st4{fill:#221f1f}.st5{fill:#e84944}.st6{fill:#fff}.st7{fill:#95c83f}.st8{stroke:#e84943;fill:#fff;stroke-width:4;stroke-miterlimit:10}.st10,.st8,.st9{fill-rule:evenodd;clip-rule:evenodd}.st9{stroke-width:4;stroke-miterlimit:10;stroke:#e84744;fill:#fff}.st10{fill:#f78f20}.st11{fill:#d73737}</style><g id="XMLID_47_"><path id="XMLID_114_" class="st0" d="M64 209h144v60H64v-60z"/><path id="XMLID_113_" class="st1" d="M64 144h144v57H64v-57z"/><path id="XMLID_112_" class="st2" d="M116 215h40v54h-40v-54z"/><path id="XMLID_111_" class="st2" d="M59 269h154v8H59v-8z"/><path id="XMLID_110_" class="st3" d="M136 78.5l77.1 57.5H59l77-57.5z"/><path id="XMLID_109_" class="st4" d="M59 136h154v8H59v-8z"/><path id="XMLID_108_" class="st5" d="M122 221h28v48h-28v-48z"/><path id="XMLID_107_" class="st3" d="M171 135.6l15.8.2-.2-39.8H171v39.6z"/><path id="XMLID_106_" class="st6" d="M131 111h5v4h5v1h1v7.3h-1v1h7v2h-7V124h-10v-13z"/><path id="XMLID_105_" class="st4" d="M171 96h16v-4h-16v4z"/><path id="XMLID_104_" class="st7" d="M50 277h200v12H50z"/><path id="XMLID_103_" class="st8" d="M82 157h20v28H82z"/><path id="XMLID_102_" class="st9" d="M82 223h20v28H82z"/><path id="XMLID_101_" class="st9" d="M170 157h20v28h-20z"/><path id="XMLID_50_" class="st9" d="M170 223h20v28h-20z"/><path id="XMLID_49_" class="st9" d="M126 157h20v28h-20z"/><path id="XMLID_46_" class="st10" d="M64 201h144v8H64v-8z"/><circle id="XMLID_19_" class="st4" cx="146" cy="245" r="2"/><path id="XMLID_18_" class="st11" d="M231 239h4v38h-4z"/><path id="XMLID_17_" class="st10" d="M241 235h-16v-14c0-3.3 2.7-6 6-6h4c3.3 0 6 2.7 6 6v14z"/><path id="XMLID_15_" class="st5" d="M237 235h-8v-12c0-2.2 1.8-4 4-4s4 1.8 4 4v12z"/><path id="XMLID_2_" class="st1" d="M224 235h18v4h-18z"/><circle id="XMLID_1_" class="st4" cx="236" cy="228" r="1"/></g></svg>