<svg xmlns="http://www.w3.org/2000/svg" viewBox="0 0 300 86"><path d="M162.5 55.573c0 9.26-11.521 8.71-11.521 8.71h-11.523V47.55h11.523c11.865-.069 11.522 8.024 11.522 8.024m-23.045-33.538h8.78c9.121.48 8.778 7.27 8.778 7.27 0 8.436-10.082 8.573-10.082 8.573h-7.476V22.035zm20.92 19.135s7.886-3.36 7.818-12.277c0 0 1.199-14.608-18.159-16.391h-21.484v61.246h24.623s20.575.069 20.575-17.284c0 0 .48-11.796-13.374-15.294M104.784.5h90.432v85.22h-90.432V.5zM58.217 55.573c0 9.26-11.522 8.71-11.522 8.71H35.172V47.55h11.523c11.865-.069 11.522 8.024 11.522 8.024M35.172 22.035h8.78c9.121.48 8.778 7.27 8.778 7.27 0 8.436-10.082 8.573-10.082 8.573h-7.476V22.035zm20.92 19.135s7.886-3.36 7.818-12.277c0 0 1.199-14.608-18.159-16.391H24.267v61.246H48.89s20.575.069 20.575-17.284c0 0 .48-11.796-13.374-15.294M.5.5h90.432v85.22H.5V.5zm280.55 16.392V28.21s-11.042-6.79-23.25-6.928c0 0-22.77-.444-23.799 21.829 0 0-.823 20.489 23.525 21.655 0 0 10.22 1.234 24.073-7.613V68.88s-18.586 11.042-40.122 2.537c0 0-18.107-6.617-18.793-28.307 0 0-.755-22.308 23.388-29.716 0 0 6.447-2.469 18.038-1.372 0 0 6.927.687 16.94 4.87M209.068 85.72H299.5V.5h-90.432v85.22z"/></svg>
