<svg xmlns="http://www.w3.org/2000/svg" xmlns:x="http://www.w3.org/1999/xlink" viewBox="50 -50 200 200"><clipPath id="a"><circle id="b" fill="#ff4a46" cx="150.5" cy="50" r="100"/></clipPath><g clip-path="url(#a)"><use x:href="#b"/><pattern id="e" patternUnits="userSpaceOnUse" x="10" width="40" height="23.85"><g id="d"><path id="c" fill="#d63637" d="M2 6.1v5.8c0 2.7 3.8 4.8 8.5 4.8 4.1 0 8.5-1.6 8.5-3.8V7H2z"/><use x:href="#c" x="20" y="-12.2"/><ellipse fill="#f54744" cx="10.55" cy="7" rx="8.5" ry="4.8"/></g><use x:href="#d" x="20" y="11.6"/></pattern><path fill="url(#e)" d="M0-50h250v200H0z"/><g id="f"><path fill="#fc0" d="M180.6-2.6l20.1-11.7-20.1-11.4L160.5-14l20.1 11.4z"/><path fill="#f68e22" d="M180.6-2.6v26.4L201 12v-26.3zM172-21v4.6c0 2.7 3.8 4.8 8.5 4.8 4.1 0 8.5-1.6 8.5-3.8v-5.5h-17v-.1z"/><ellipse fill="#f6c11a" cx="180.5" cy="-21.2" rx="8.5" ry="4.8"/><path fill="#f2a41f" d="M180.6 23.8l-20.1-11.4v-26.3l20.1 11.3z"/></g><use x:href="#f" x="-20" y="11.6"/><use x:href="#f" x="-40" y="23.2"/><use x:href="#f" x="-60" y="34.8"/><use x:href="#f" x="-20" y="34.5"/><use x:href="#f" x="-80" y="46.4"/><use x:href="#f" y="45.8"/><use x:href="#f" x="-20" y="57.3"/><use x:href="#f" x="-60" y="57.6"/><use x:href="#f" x="-40" y="68.8"/><use x:href="#f" x="-40" y="91.8"/><use x:href="#f" x="-20" y="103.2"/></g></svg>