<svg xmlns="http://www.w3.org/2000/svg" viewBox="0 0 200 200"><path fill="#f9c319" d="M0 39h156v125H0z"/><path fill="#f7a71b" d="M0 148h156v8H0zm68-80h20v20H68zm38 0h20v20h-20zm-38 36h20v20H68zm-38 0h20v20H30zm76 0h20v20h-20z"/><path fill="#f7901e" d="M0 156h156v8H0z"/><path fill="#93c73f" d="M0 8h156v36H0z"/><path fill="#9e9f9f" d="M86.6 154.6l-12.2 12c-6.8 6.8-17.3 7.2-23.5 1-1.1-1.1-1.9-2.3-2.6-3.6h-4.4c0 .1.1.2.1.2.1.2.2.4.2.6 1 2.1 2.3 4 3.9 5.6 3.7 3.7 8.6 5.5 13.6 5.5 5.5 0 11.2-2.2 15.5-6.5l12.2-12-2.8-2.8z"/><path fill="#9e9f9f" d="M86.1 147.087L97.415 158.4l-11.313 11.314L74.787 158.4z"/><circle fill="#93c73f" cx="40" cy="78" r="18"/><circle fill="#9e9f9f" cx="160.9" cy="83.6" r="22"/><path fill="#de4443" d="M83.231 144.283l56.073-56.074 16.97 16.97-56.072 56.074z"/><path fill="#dcdbd9" d="M46 24.8c0 4.2-2.7 7.5-6 7.5s-6-3.4-6-7.5v-17c0-4.2 2.7-7.5 6-7.5s6 3.4 6 7.5v17zm76 0c0 4.2-2.7 7.5-6 7.5s-6-3.4-6-7.5v-17c0-4.2 2.7-7.5 6-7.5s6 3.4 6 7.5v17zm53.2 75.6l1.7-1.7.8-.8-.2-.2-30.9-30.9-2.4 2.6 30.8 30.8z"/><path fill="#fff" d="M30 70h5v4.4h4.6c1.6 0 3.3.5 3.4 2.1 0 1.2.1 3 .1 4.2 0 1.6-1.6 3.2-3.1 3.2-2.7 0-5.7.1-8.4.1H30V70zm13 16v-2h7v2h-7z"/></svg>