<svg xmlns="http://www.w3.org/2000/svg" viewBox="0 0 300 300"><style>.st0{fill:#8aa3a4}.st1{fill:#bbcccb}.st2{fill:#94c740}.st3{fill:#fff}.st4{fill:#f3a61f}.st4,.st5,.st6,.st7,.st8{fill-rule:evenodd;clip-rule:evenodd}.st5{fill:#f78f22}.st6{fill:#f7c21b}.st7{fill:#e74548}.st8{fill:#94c740}</style><g id="XMLID_2_"><g id="XMLID_61_"><path id="XMLID_67_" class="st0" d="M150 47h3v63h-3z"/><path id="XMLID_66_" class="st1" d="M150 47h1v63h-1z"/><path id="XMLID_65_" class="st2" d="M105 47h48v27h-48z"/><g id="XMLID_62_"><path id="XMLID_64_" class="st3" d="M121 53h5v3.9h4.1c1.5 0 2.5 1.1 2.5 2.6 0 1.1-.1 2.2 0 3.4 0 1.5-1.1 2.8-2.6 2.8-2.5 0-5.4.2-7.9.2h-1C121 62 121 57 121 53z"/><path id="XMLID_63_" class="st3" d="M132 68v-2h7v2h-7z"/></g></g><path id="XMLID_60_" class="st4" d="M71 117h20v20H71z"/><path id="XMLID_59_" class="st5" d="M151 117h20v20h-20z"/><path id="XMLID_58_" class="st5" d="M191 117h40v20h-40z"/><path id="XMLID_57_" class="st6" d="M91 137h40v20H91z"/><path id="XMLID_56_" class="st5" d="M171 137h20v20h-20z"/><path id="XMLID_55_" class="st4" d="M131 137h40v20h-40z"/><path id="XMLID_54_" class="st7" d="M211 137h20v20h-20z"/><path id="XMLID_53_" class="st4" d="M111 157h40v20h-40z"/><path id="XMLID_52_" class="st5" d="M91 157h20v20H91z"/><path id="XMLID_51_" class="st5" d="M171 177h40v20h-40z"/><path id="XMLID_50_" class="st4" d="M171 197h40v20h-40z"/><path id="XMLID_49_" class="st6" d="M91 217h20v20H91z"/><path id="XMLID_48_" class="st4" d="M91 177h40v20H91z"/><path id="XMLID_47_" class="st6" d="M91 197h20v20H91z"/><path id="XMLID_46_" class="st4" d="M171 217h20v20h-20z"/><path id="XMLID_45_" class="st7" d="M191 237h20v20h-20z"/><path id="XMLID_44_" class="st4" d="M91 237h20v20H91z"/><path id="XMLID_43_" class="st5" d="M91 257h40v20H91z"/><path id="XMLID_42_" class="st7" d="M171 257h20v20h-20z"/><path id="XMLID_41_" class="st4" d="M111 257h40v20h-40z"/><path id="XMLID_40_" class="st5" d="M151 257h20v20h-20z"/><g id="XMLID_36_"><path id="XMLID_39_" class="st5" d="M71 98h40v19H71z"/><path id="XMLID_38_" class="st5" d="M77 98h10v-2.5c0-.9-1.3-1.5-2.3-1.5h-6.6c-.9 0-1.1.6-1.1 1.5V98z"/><path id="XMLID_37_" class="st5" d="M96 98h10v-2.5c0-.9-.5-1.5-1.5-1.5h-6.6c-1 0-1.9.6-1.9 1.5V98z"/></g><g id="XMLID_33_"><path id="XMLID_35_" class="st7" d="M211 257h20v20h-20z"/><path id="XMLID_34_" class="st7" d="M217 257h10v-2.9c0-1-1.5-1.1-2.4-1.1h-6.3c-.9 0-1.3.1-1.3 1.1v2.9z"/></g><g id="XMLID_30_"><path id="XMLID_32_" class="st5" d="M71 257h20v20H71z"/><path id="XMLID_31_" class="st5" d="M77 257h10v-2.9c0-1-1.5-1.1-2.4-1.1h-6.3c-.9 0-1.3.1-1.3 1.1v2.9z"/></g><path id="XMLID_29_" class="st7" d="M151 157h40v20h-40z"/><path id="XMLID_28_" class="st6" d="M111 117h40v20h-40z"/><g id="XMLID_24_"><path id="XMLID_27_" class="st6" d="M131 98h40v19h-40z"/><path id="XMLID_26_" class="st6" d="M136 98h10v-2.5c0-.9-.5-1.5-1.5-1.5h-6.4c-.9 0-2.1.6-2.1 1.5V98z"/><path id="XMLID_25_" class="st6" d="M156 98h9v-2.5c0-.9-.3-1.5-1.2-1.5h-6.4c-.9 0-1.4.6-1.4 1.5V98z"/></g><g id="XMLID_20_"><path id="XMLID_23_" class="st7" d="M191 98h40v19h-40z"/><path id="XMLID_22_" class="st7" d="M197 98h10v-2.5c0-.9-1.1-1.5-2-1.5h-6.6c-.9 0-1.4.6-1.4 1.5V98z"/><path id="XMLID_21_" class="st7" d="M216 98h10v-2.5c0-.9-.3-1.5-1.3-1.5h-6.6c-1 0-2.2.6-2.2 1.5V98z"/></g><path id="XMLID_19_" class="st4" d="M91 117h20v20H91z"/><path id="XMLID_18_" class="st4" d="M171 117h20v20h-20z"/><path id="XMLID_17_" class="st5" d="M71 137h20v20H71z"/><path id="XMLID_16_" class="st4" d="M191 137h20v20h-20z"/><path id="XMLID_15_" class="st8" d="M50 277h200v12H50z"/><path id="XMLID_14_" class="st7" d="M191 157h20v20h-20z"/><path id="XMLID_13_" class="st5" d="M191 217h20v20h-20z"/><g id="XMLID_9_"><path id="XMLID_12_" class="st6" d="M131 237h40v20h-40z"/><path id="XMLID_11_" class="st6" d="M136 237h10v-2.4c0-1-.5-1.6-1.5-1.6h-6.4c-.9 0-2.1.6-2.1 1.6v2.4z"/><path id="XMLID_10_" class="st6" d="M156 237h9v-2.4c0-1-.3-1.6-1.2-1.6h-6.4c-.9 0-1.4.6-1.4 1.6v2.4z"/></g><path id="XMLID_8_" class="st5" d="M171 237h20v20h-20z"/><path id="XMLID_7_" class="st7" d="M191 257h20v20h-20z"/><path id="XMLID_6_" class="st4" d="M111 217h20v20h-20z"/><path id="XMLID_5_" class="st6" d="M111 197h20v20h-20z"/><path id="XMLID_4_" class="st5" d="M111 237h20v20h-20z"/><path id="XMLID_3_" class="st7" d="M191 177h20v20h-20z"/></g></svg>