<svg width="750" height="195" xmlns="http://www.w3.org/2000/svg"><g fill-rule="nonzero" fill="none"><path d="M0 0h750v195H0z" fill="#F0F0F0"/><path fill="#1880AF" d="M232.584 147.73l-21.608 12.2v19.43l21.608-12.19z"/><path fill="#3A9ED8" d="M189.369 148.07l21.607 11.86v19.43l-21.607-11.75z"/><path fill="#D73737" d="M167.762 136.31l21.607 11.86v19.44l-21.607-11.76z"/><path fill="#3FB5E8" d="M210.59 135.81l22.034 11.96-21.607 12.2-21.689-11.92z"/><path fill="#F0534B" d="M188.983 124.04L211.017 136l-21.607 12.2-21.69-11.93z"/><path fill="#BCBCBC" d="M189.877 167.88l-1.117-.61-.01-19.44 1.116.24z"/><path fill="#FFF" d="M189.877 148.36l-1.127-.53 21.75-12.11 1.014.59z"/><g><path d="M716.53 63.95l-.5-.23 6.47-3.78V58.9l-17.83-8.77-88.14 50.57v1.02l17.83 9.8 5.23-3.06.12.06c20.59 10.48 54.47 9 75.69-3.32 21.21-12.3 21.72-30.78 1.13-41.26v.01zm-59.57 34.48l-.12-.06 15.48-9.05c3.68 1.53 9.22 1.2 12.78-.86 3.58-2.08 3.83-5.14.7-7.04l14.2-8.31.33.15c11.63 5.92 11.34 16.35-.64 23.3-11.97 6.95-31.1 7.79-42.73 1.87z" fill="#F1A521"/><path d="M716.53 62.92l-.5-.23 6.47-3.78-17.83-9.8-88.14 51.6 17.83 9.8 5.23-3.06.12.06c20.59 10.48 54.47 8.99 75.69-3.32 21.21-12.31 21.72-30.79 1.13-41.27zm-16.84 32.61c-11.97 6.96-31.1 7.8-42.73 1.88l-.11-.06 15.47-9.06c3.68 1.54 9.22 1.21 12.78-.85 3.58-2.08 3.83-5.15.7-7.04l14.2-8.32c.11.05.23.1.33.16 11.63 5.91 11.34 16.34-.64 23.3v-.01z" fill="#F9CD0E"/><path d="M635.12 98.9a.52.52 0 0 1-.25-.07l-7.52-4.16a.504.504 0 0 1 .49-.88l7.52 4.16a.5.5 0 0 1-.24.94v.01zm7.17-6.03a.51.51 0 0 1-.24-.07l-5.9-3.28a.5.5 0 1 1 .48-.87l5.9 3.28a.5.5 0 0 1-.24.94zm60.62-33.59a.52.52 0 0 1-.25-.06l-7.58-4.2a.5.5 0 1 1 .48-.87l7.59 4.2a.5.5 0 0 1-.24.93zm-9.02 3.79a.52.52 0 0 1-.24-.06l-6.28-3.48a.5.5 0 0 1 .49-.87l6.27 3.47a.5.5 0 0 1-.24.94zM669.5 79.04a.5.5 0 0 1-.25-.06l-7.68-4.34a.502.502 0 0 1 .5-.87l7.67 4.34a.5.5 0 0 1-.25.93h.01zm16.76-9.94a.52.52 0 0 1-.24-.07l-7.65-4.23a.5.5 0 0 1 .49-.87l7.64 4.23a.5.5 0 0 1-.24.93v.01zm-10.31 4a.52.52 0 0 1-.24-.06l-5.87-3.24a.504.504 0 0 1 .49-.88l5.86 3.25a.5.5 0 0 1-.24.93zm-16.77 10.07a.52.52 0 0 1-.25-.07l-6.1-3.37a.504.504 0 0 1 .49-.88l6.1 3.38a.5.5 0 0 1-.24.94zm-7.13 5.8a.5.5 0 0 1-.24-.06l-7.55-4.2a.5.5 0 0 1 .48-.87l7.56 4.2a.5.5 0 0 1-.25.94v-.01zm59.11 13.57a.5.5 0 0 1-.25-.07l-7.48-4.12a.501.501 0 0 1 .48-.88l7.49 4.13a.5.5 0 0 1-.25.94h.01zm-6.52-32.67a.5.5 0 0 1-.25-.93l7.33-4.3a.502.502 0 1 1 .5.87l-7.33 4.3a.51.51 0 0 1-.25.06zm-59.92 35.02a.5.5 0 0 1-.25-.94l7.33-4.29a.5.5 0 0 1 .735.563.5.5 0 0 1-.235.307l-7.33 4.29a.5.5 0 0 1-.25.07z" fill="#F1A521"/></g><g transform="translate(531 122)"><path fill="#FC0" d="M20.6 23.4l20.1-11.7L20.6.3.5 12z"/><path d="M20.6 23.4v26.4L41 38V11.7L20.6 23.4zM12 5v4.6c0 2.7 3.8 4.8 8.5 4.8 4.1 0 8.5-1.6 8.5-3.8V5.1H12V5z" fill="#F68E22"/><ellipse fill="#F6C11A" cx="20.5" cy="4.8" rx="8.5" ry="4.8"/><path fill="#F2A41F" d="M20.6 49.8L.5 38.4V12.1l20.1 11.3z"/></g><g transform="rotate(4 -236.543 335.3)"><path fill="#F9CD0E" d="M107.968.244H88.592L14.487 43.752l7.763 2.923 64.247-37.54 5.197-3.24 6.107 11.085z"/><path fill="#F1A521" d="M99.246 8.656l-63.8 37.402-7.553-2.85L96.128 3.151z"/><path fill="#F79124" d="M99.246 8.656l-1.445 8.324-63.144 36.728-7.454-2.81z"/><ellipse fill="#9D9E9F" transform="rotate(-29.27 30.32 45.45)" cx="30.321" cy="45.449" rx="7.057" ry="10.776"/><path d="M31.637 39.254c4.742 4.125 6.959 12.14 1.762 15.241l-11.645 6.732-16.638-11.97L23.874 38.23c2.874-1.689 5.237-.958 7.77 1.024h-.007z" fill="#C6C6C5"/><path d="M26.448 47.764c2.907 5.188 2.509 10.938-.893 12.846-3.403 1.908-6.212-2.152-9.12-7.34-2.907-5.198-4.815-9.55-1.412-11.45 3.402-1.909 8.518.747 11.425 5.944z" fill="#9D9E9F"/><path d="M25.985 51.686c.179 1.413-4.028 9.427-4.028 9.427 1.283.244 2.526.098 3.598-.503a5.303 5.303 0 0 0 2.354-2.94l4.036-2.33a5.278 5.278 0 0 0 3.646-.495c2.81-1.576-7.893-4.24-7.893-4.24.244.764-1.04 1.438-1.713 1.08v.001z" fill="#808180"/><path d="M21.9 45.214c5.58 4.848 5.547 12.74 2.323 14.665l-9.59 5.498-8.9-16.452 8.957-5.319c2.866-1.68 6.317.73 7.21 1.608z" fill="#F0534B"/><path d="M14.617 65.368l.056.017 9.55-5.473c1.99-1.178 2.76-4.629 1.762-8.226l-14.276 8.323 2.9 5.36h.008v-.001z" fill="#E04142"/><ellipse fill="#D73737" transform="rotate(-29.27 10.187 57.12)" cx="10.187" cy="57.119" rx="6.131" ry="9.355"/><path d="M104.403 4.661c.08.73-.033 1.527-.374 2.111l3.939-6.528h-7.471c1.81.08 3.67 2.281 3.906 4.417z" fill="#000"/><path d="M37.703 44.743c.227.706-1.089 1.445-1.811.999l-8.186 4.847c.861 2.64.902 5.222.163 7.17 0-.032.024-.056.032-.097l4.044-2.33a5.278 5.278 0 0 0 3.646-.496c2.81-1.575 3.573-5.765 2.112-10.101v.008z" fill="#B3B4B4"/><path d="M37.703 44.743c.227.706-1.08 1.437-1.803.999 1.072 3.426.585 6.934-2.469 8.761l-1.461.837c1.299.243 2.541.105 3.621-.495 2.802-1.576 3.573-5.766 2.112-10.102z" fill="#808180"/></g></g></svg>